G04 #@! TF.GenerationSoftware,KiCad,Pcbnew,5.0.2+dfsg1-1~bpo9+1*
G04 #@! TF.CreationDate,2019-05-22T13:48:08+02:00*
G04 #@! TF.ProjectId,MainDisk,4d61696e-4469-4736-9b2e-6b696361645f,rev?*
G04 #@! TF.SameCoordinates,Original*
G04 #@! TF.FileFunction,Legend,Top*
G04 #@! TF.FilePolarity,Positive*
%FSLAX46Y46*%
G04 Gerber Fmt 4.6, Leading zero omitted, Abs format (unit mm)*
G04 Created by KiCad (PCBNEW 5.0.2+dfsg1-1~bpo9+1) date Wed 22 May 2019 13:48:08 CEST*
%MOMM*%
%LPD*%
G01*
G04 APERTURE LIST*
%ADD10C,0.200000*%
%ADD11C,0.150000*%
%ADD12C,0.500000*%
%ADD13C,0.120000*%
G04 APERTURE END LIST*
D10*
X168717980Y-71724780D02*
X168384647Y-71248590D01*
X168146552Y-71724780D02*
X168146552Y-70724780D01*
X168527504Y-70724780D01*
X168622742Y-70772400D01*
X168670361Y-70820019D01*
X168717980Y-70915257D01*
X168717980Y-71058114D01*
X168670361Y-71153352D01*
X168622742Y-71200971D01*
X168527504Y-71248590D01*
X168146552Y-71248590D01*
X169098933Y-71677161D02*
X169241790Y-71724780D01*
X169479885Y-71724780D01*
X169575123Y-71677161D01*
X169622742Y-71629542D01*
X169670361Y-71534304D01*
X169670361Y-71439066D01*
X169622742Y-71343828D01*
X169575123Y-71296209D01*
X169479885Y-71248590D01*
X169289409Y-71200971D01*
X169194171Y-71153352D01*
X169146552Y-71105733D01*
X169098933Y-71010495D01*
X169098933Y-70915257D01*
X169146552Y-70820019D01*
X169194171Y-70772400D01*
X169289409Y-70724780D01*
X169527504Y-70724780D01*
X169670361Y-70772400D01*
X169956076Y-70724780D02*
X170527504Y-70724780D01*
X170241790Y-71724780D02*
X170241790Y-70724780D01*
X167746514Y-68762571D02*
X168079847Y-68762571D01*
X168222704Y-69286380D02*
X167746514Y-69286380D01*
X167746514Y-68286380D01*
X168222704Y-68286380D01*
X169222704Y-69286380D02*
X168889371Y-68810190D01*
X168651276Y-69286380D02*
X168651276Y-68286380D01*
X169032228Y-68286380D01*
X169127466Y-68334000D01*
X169175085Y-68381619D01*
X169222704Y-68476857D01*
X169222704Y-68619714D01*
X169175085Y-68714952D01*
X169127466Y-68762571D01*
X169032228Y-68810190D01*
X168651276Y-68810190D01*
X170222704Y-69286380D02*
X169889371Y-68810190D01*
X169651276Y-69286380D02*
X169651276Y-68286380D01*
X170032228Y-68286380D01*
X170127466Y-68334000D01*
X170175085Y-68381619D01*
X170222704Y-68476857D01*
X170222704Y-68619714D01*
X170175085Y-68714952D01*
X170127466Y-68762571D01*
X170032228Y-68810190D01*
X169651276Y-68810190D01*
D11*
X167627466Y-67355980D02*
X167627466Y-66355980D01*
X168008419Y-66355980D01*
X168103657Y-66403600D01*
X168151276Y-66451219D01*
X168198895Y-66546457D01*
X168198895Y-66689314D01*
X168151276Y-66784552D01*
X168103657Y-66832171D01*
X168008419Y-66879790D01*
X167627466Y-66879790D01*
X168532228Y-66355980D02*
X168770323Y-67355980D01*
X168960800Y-66641695D01*
X169151276Y-67355980D01*
X169389371Y-66355980D01*
X170341752Y-67355980D02*
X170008419Y-66879790D01*
X169770323Y-67355980D02*
X169770323Y-66355980D01*
X170151276Y-66355980D01*
X170246514Y-66403600D01*
X170294133Y-66451219D01*
X170341752Y-66546457D01*
X170341752Y-66689314D01*
X170294133Y-66784552D01*
X170246514Y-66832171D01*
X170151276Y-66879790D01*
X169770323Y-66879790D01*
D12*
X170900000Y-69850000D02*
G75*
G03X170900000Y-69850000I-18500000J0D01*
G01*
D13*
G04 #@! TO.C,BZ1*
X147790000Y-79066000D02*
X147790000Y-76416000D01*
X147790000Y-76416000D02*
X157010000Y-76416000D01*
X157010000Y-76416000D02*
X157010000Y-79066000D01*
X157010000Y-82986000D02*
X157010000Y-85636000D01*
X157010000Y-85636000D02*
X147790000Y-85636000D01*
X147790000Y-85636000D02*
X147790000Y-82986000D01*
X147790000Y-79066000D02*
X147460000Y-79066000D01*
G04 #@! TO.C,R8*
X158745422Y-64669600D02*
X159262578Y-64669600D01*
X158745422Y-66089600D02*
X159262578Y-66089600D01*
G04 #@! TO.C,R6*
X159253422Y-75335200D02*
X159770578Y-75335200D01*
X159253422Y-73915200D02*
X159770578Y-73915200D01*
G04 #@! TO.C,R7*
X156468578Y-75335200D02*
X155951422Y-75335200D01*
X156468578Y-73915200D02*
X155951422Y-73915200D01*
G04 #@! TO.C,SW3*
X167410400Y-70172400D02*
X167410400Y-69872400D01*
X167410400Y-69872400D02*
X164110400Y-69872400D01*
X164110400Y-69872400D02*
X164110400Y-70172400D01*
X167410400Y-72372400D02*
X167410400Y-72672400D01*
X167410400Y-72672400D02*
X164110400Y-72672400D01*
X164110400Y-72672400D02*
X164110400Y-72372400D01*
G04 #@! TO.C,D6*
X167420000Y-67874000D02*
X164735000Y-67874000D01*
X167420000Y-69794000D02*
X167420000Y-67874000D01*
X164735000Y-69794000D02*
X167420000Y-69794000D01*
G04 #@! TO.C,D5*
X164735000Y-67863600D02*
X167420000Y-67863600D01*
X167420000Y-67863600D02*
X167420000Y-65943600D01*
X167420000Y-65943600D02*
X164735000Y-65943600D01*
G04 #@! TO.C,R4*
X162555422Y-67613600D02*
X163072578Y-67613600D01*
X162555422Y-66193600D02*
X163072578Y-66193600D01*
G04 #@! TO.C,R5*
X162555422Y-68124000D02*
X163072578Y-68124000D01*
X162555422Y-69544000D02*
X163072578Y-69544000D01*
G04 #@! TO.C,R3*
X156158000Y-61726578D02*
X156158000Y-61209422D01*
X154738000Y-61726578D02*
X154738000Y-61209422D01*
G04 #@! TO.C,C8*
X158802000Y-69845422D02*
X158802000Y-70362578D01*
X160222000Y-69845422D02*
X160222000Y-70362578D01*
G04 #@! TO.C,C1*
X143054000Y-70861422D02*
X143054000Y-71378578D01*
X144474000Y-70861422D02*
X144474000Y-71378578D01*
G04 #@! TO.C,C2*
X143054000Y-67305422D02*
X143054000Y-67822578D01*
X144474000Y-67305422D02*
X144474000Y-67822578D01*
G04 #@! TO.C,JP1*
X138160000Y-66709001D02*
X138160000Y-69509001D01*
X138160000Y-69509001D02*
X136160000Y-69509001D01*
X136160000Y-69509001D02*
X136160000Y-66709001D01*
X136160000Y-66709001D02*
X138160000Y-66709001D01*
G04 #@! TO.C,C7*
X146506000Y-70108578D02*
X146506000Y-69591422D01*
X145086000Y-70108578D02*
X145086000Y-69591422D01*
G04 #@! TO.C,C3*
X138425422Y-62686000D02*
X138942578Y-62686000D01*
X138425422Y-61266000D02*
X138942578Y-61266000D01*
G04 #@! TO.C,C4*
X145086000Y-73147422D02*
X145086000Y-73664578D01*
X146506000Y-73147422D02*
X146506000Y-73664578D01*
G04 #@! TO.C,U2*
X146772000Y-55104000D02*
X146992000Y-55104000D01*
X146772000Y-55104000D02*
G75*
G03X141572000Y-55104000I-2600000J-1100000D01*
G01*
X141192000Y-58764000D02*
X144272000Y-58764000D01*
X141112000Y-55104000D02*
X141572000Y-55104000D01*
X141112000Y-55104000D02*
X141112000Y-56304000D01*
G04 #@! TO.C,Q1*
X160076000Y-60708000D02*
X160076000Y-62168000D01*
X156916000Y-60708000D02*
X156916000Y-62868000D01*
X156916000Y-60708000D02*
X157846000Y-60708000D01*
X160076000Y-60708000D02*
X159146000Y-60708000D01*
G04 #@! TO.C,R1*
X162254000Y-61726578D02*
X162254000Y-61209422D01*
X160834000Y-61726578D02*
X160834000Y-61209422D01*
G04 #@! TO.C,SW1*
X149170000Y-73080000D02*
X155630000Y-73080000D01*
X149170000Y-68550000D02*
X149170000Y-71150000D01*
X149170000Y-66620000D02*
X155630000Y-66620000D01*
X155630000Y-68550000D02*
X155630000Y-71150000D01*
X149170000Y-66650000D02*
X149170000Y-66620000D01*
X149170000Y-73080000D02*
X149170000Y-73050000D01*
X155630000Y-73080000D02*
X155630000Y-73050000D01*
X155630000Y-66620000D02*
X155630000Y-66650000D01*
G04 #@! TO.C,D2*
X157620000Y-55804000D02*
X157620000Y-56604000D01*
X162270000Y-55804000D02*
X157620000Y-55804000D01*
X162270000Y-59004000D02*
X157620000Y-59004000D01*
G04 #@! TO.C,D4*
X140256570Y-72629207D02*
X139260641Y-73204207D01*
X143906570Y-78951193D02*
X140256570Y-72629207D01*
X139143430Y-81701193D02*
X135493430Y-75379207D01*
G04 #@! TO.C,D3*
X156050000Y-57995000D02*
X156050000Y-56845000D01*
X148750000Y-57995000D02*
X156050000Y-57995000D01*
X148750000Y-52495000D02*
X156050000Y-52495000D01*
G04 #@! TO.C,D1*
X160842630Y-78951193D02*
X161838559Y-79526193D01*
X164492630Y-72629207D02*
X160842630Y-78951193D01*
X169255770Y-75379207D02*
X165605770Y-81701193D01*
G04 #@! TO.C,BZ1*
D11*
X151519047Y-86542571D02*
X151661904Y-86590190D01*
X151709523Y-86637809D01*
X151757142Y-86733047D01*
X151757142Y-86875904D01*
X151709523Y-86971142D01*
X151661904Y-87018761D01*
X151566666Y-87066380D01*
X151185714Y-87066380D01*
X151185714Y-86066380D01*
X151519047Y-86066380D01*
X151614285Y-86114000D01*
X151661904Y-86161619D01*
X151709523Y-86256857D01*
X151709523Y-86352095D01*
X151661904Y-86447333D01*
X151614285Y-86494952D01*
X151519047Y-86542571D01*
X151185714Y-86542571D01*
X152090476Y-86066380D02*
X152757142Y-86066380D01*
X152090476Y-87066380D01*
X152757142Y-87066380D01*
X153661904Y-87066380D02*
X153090476Y-87066380D01*
X153376190Y-87066380D02*
X153376190Y-86066380D01*
X153280952Y-86209238D01*
X153185714Y-86304476D01*
X153090476Y-86352095D01*
G04 #@! TO.C,R8*
X156144933Y-65831980D02*
X155811600Y-65355790D01*
X155573504Y-65831980D02*
X155573504Y-64831980D01*
X155954457Y-64831980D01*
X156049695Y-64879600D01*
X156097314Y-64927219D01*
X156144933Y-65022457D01*
X156144933Y-65165314D01*
X156097314Y-65260552D01*
X156049695Y-65308171D01*
X155954457Y-65355790D01*
X155573504Y-65355790D01*
X156716361Y-65260552D02*
X156621123Y-65212933D01*
X156573504Y-65165314D01*
X156525885Y-65070076D01*
X156525885Y-65022457D01*
X156573504Y-64927219D01*
X156621123Y-64879600D01*
X156716361Y-64831980D01*
X156906838Y-64831980D01*
X157002076Y-64879600D01*
X157049695Y-64927219D01*
X157097314Y-65022457D01*
X157097314Y-65070076D01*
X157049695Y-65165314D01*
X157002076Y-65212933D01*
X156906838Y-65260552D01*
X156716361Y-65260552D01*
X156621123Y-65308171D01*
X156573504Y-65355790D01*
X156525885Y-65451028D01*
X156525885Y-65641504D01*
X156573504Y-65736742D01*
X156621123Y-65784361D01*
X156716361Y-65831980D01*
X156906838Y-65831980D01*
X157002076Y-65784361D01*
X157049695Y-65736742D01*
X157097314Y-65641504D01*
X157097314Y-65451028D01*
X157049695Y-65355790D01*
X157002076Y-65308171D01*
X156906838Y-65260552D01*
G04 #@! TO.C,R6*
X159345333Y-73427580D02*
X159012000Y-72951390D01*
X158773904Y-73427580D02*
X158773904Y-72427580D01*
X159154857Y-72427580D01*
X159250095Y-72475200D01*
X159297714Y-72522819D01*
X159345333Y-72618057D01*
X159345333Y-72760914D01*
X159297714Y-72856152D01*
X159250095Y-72903771D01*
X159154857Y-72951390D01*
X158773904Y-72951390D01*
X160202476Y-72427580D02*
X160012000Y-72427580D01*
X159916761Y-72475200D01*
X159869142Y-72522819D01*
X159773904Y-72665676D01*
X159726285Y-72856152D01*
X159726285Y-73237104D01*
X159773904Y-73332342D01*
X159821523Y-73379961D01*
X159916761Y-73427580D01*
X160107238Y-73427580D01*
X160202476Y-73379961D01*
X160250095Y-73332342D01*
X160297714Y-73237104D01*
X160297714Y-72999009D01*
X160250095Y-72903771D01*
X160202476Y-72856152D01*
X160107238Y-72808533D01*
X159916761Y-72808533D01*
X159821523Y-72856152D01*
X159773904Y-72903771D01*
X159726285Y-72999009D01*
G04 #@! TO.C,R7*
X153401733Y-75077580D02*
X153068400Y-74601390D01*
X152830304Y-75077580D02*
X152830304Y-74077580D01*
X153211257Y-74077580D01*
X153306495Y-74125200D01*
X153354114Y-74172819D01*
X153401733Y-74268057D01*
X153401733Y-74410914D01*
X153354114Y-74506152D01*
X153306495Y-74553771D01*
X153211257Y-74601390D01*
X152830304Y-74601390D01*
X153735066Y-74077580D02*
X154401733Y-74077580D01*
X153973161Y-75077580D01*
G04 #@! TO.C,R4*
X162291733Y-65831980D02*
X161958400Y-65355790D01*
X161720304Y-65831980D02*
X161720304Y-64831980D01*
X162101257Y-64831980D01*
X162196495Y-64879600D01*
X162244114Y-64927219D01*
X162291733Y-65022457D01*
X162291733Y-65165314D01*
X162244114Y-65260552D01*
X162196495Y-65308171D01*
X162101257Y-65355790D01*
X161720304Y-65355790D01*
X163148876Y-65165314D02*
X163148876Y-65831980D01*
X162910780Y-64784361D02*
X162672685Y-65498647D01*
X163291733Y-65498647D01*
G04 #@! TO.C,R5*
X162190133Y-70962780D02*
X161856800Y-70486590D01*
X161618704Y-70962780D02*
X161618704Y-69962780D01*
X161999657Y-69962780D01*
X162094895Y-70010400D01*
X162142514Y-70058019D01*
X162190133Y-70153257D01*
X162190133Y-70296114D01*
X162142514Y-70391352D01*
X162094895Y-70438971D01*
X161999657Y-70486590D01*
X161618704Y-70486590D01*
X163094895Y-69962780D02*
X162618704Y-69962780D01*
X162571085Y-70438971D01*
X162618704Y-70391352D01*
X162713942Y-70343733D01*
X162952038Y-70343733D01*
X163047276Y-70391352D01*
X163094895Y-70438971D01*
X163142514Y-70534209D01*
X163142514Y-70772304D01*
X163094895Y-70867542D01*
X163047276Y-70915161D01*
X162952038Y-70962780D01*
X162713942Y-70962780D01*
X162618704Y-70915161D01*
X162571085Y-70867542D01*
G04 #@! TO.C,R3*
X155281333Y-64206380D02*
X154948000Y-63730190D01*
X154709904Y-64206380D02*
X154709904Y-63206380D01*
X155090857Y-63206380D01*
X155186095Y-63254000D01*
X155233714Y-63301619D01*
X155281333Y-63396857D01*
X155281333Y-63539714D01*
X155233714Y-63634952D01*
X155186095Y-63682571D01*
X155090857Y-63730190D01*
X154709904Y-63730190D01*
X155614666Y-63206380D02*
X156233714Y-63206380D01*
X155900380Y-63587333D01*
X156043238Y-63587333D01*
X156138476Y-63634952D01*
X156186095Y-63682571D01*
X156233714Y-63777809D01*
X156233714Y-64015904D01*
X156186095Y-64111142D01*
X156138476Y-64158761D01*
X156043238Y-64206380D01*
X155757523Y-64206380D01*
X155662285Y-64158761D01*
X155614666Y-64111142D01*
G04 #@! TO.C,C8*
X159869142Y-67730666D02*
X159916761Y-67778285D01*
X159964380Y-67921142D01*
X159964380Y-68016380D01*
X159916761Y-68159238D01*
X159821523Y-68254476D01*
X159726285Y-68302095D01*
X159535809Y-68349714D01*
X159392952Y-68349714D01*
X159202476Y-68302095D01*
X159107238Y-68254476D01*
X159012000Y-68159238D01*
X158964380Y-68016380D01*
X158964380Y-67921142D01*
X159012000Y-67778285D01*
X159059619Y-67730666D01*
X159392952Y-67159238D02*
X159345333Y-67254476D01*
X159297714Y-67302095D01*
X159202476Y-67349714D01*
X159154857Y-67349714D01*
X159059619Y-67302095D01*
X159012000Y-67254476D01*
X158964380Y-67159238D01*
X158964380Y-66968761D01*
X159012000Y-66873523D01*
X159059619Y-66825904D01*
X159154857Y-66778285D01*
X159202476Y-66778285D01*
X159297714Y-66825904D01*
X159345333Y-66873523D01*
X159392952Y-66968761D01*
X159392952Y-67159238D01*
X159440571Y-67254476D01*
X159488190Y-67302095D01*
X159583428Y-67349714D01*
X159773904Y-67349714D01*
X159869142Y-67302095D01*
X159916761Y-67254476D01*
X159964380Y-67159238D01*
X159964380Y-66968761D01*
X159916761Y-66873523D01*
X159869142Y-66825904D01*
X159773904Y-66778285D01*
X159583428Y-66778285D01*
X159488190Y-66825904D01*
X159440571Y-66873523D01*
X159392952Y-66968761D01*
G04 #@! TO.C,C1*
X142597142Y-71286666D02*
X142644761Y-71334285D01*
X142692380Y-71477142D01*
X142692380Y-71572380D01*
X142644761Y-71715238D01*
X142549523Y-71810476D01*
X142454285Y-71858095D01*
X142263809Y-71905714D01*
X142120952Y-71905714D01*
X141930476Y-71858095D01*
X141835238Y-71810476D01*
X141740000Y-71715238D01*
X141692380Y-71572380D01*
X141692380Y-71477142D01*
X141740000Y-71334285D01*
X141787619Y-71286666D01*
X142692380Y-70334285D02*
X142692380Y-70905714D01*
X142692380Y-70620000D02*
X141692380Y-70620000D01*
X141835238Y-70715238D01*
X141930476Y-70810476D01*
X141978095Y-70905714D01*
G04 #@! TO.C,C2*
X142597142Y-67730666D02*
X142644761Y-67778285D01*
X142692380Y-67921142D01*
X142692380Y-68016380D01*
X142644761Y-68159238D01*
X142549523Y-68254476D01*
X142454285Y-68302095D01*
X142263809Y-68349714D01*
X142120952Y-68349714D01*
X141930476Y-68302095D01*
X141835238Y-68254476D01*
X141740000Y-68159238D01*
X141692380Y-68016380D01*
X141692380Y-67921142D01*
X141740000Y-67778285D01*
X141787619Y-67730666D01*
X141787619Y-67349714D02*
X141740000Y-67302095D01*
X141692380Y-67206857D01*
X141692380Y-66968761D01*
X141740000Y-66873523D01*
X141787619Y-66825904D01*
X141882857Y-66778285D01*
X141978095Y-66778285D01*
X142120952Y-66825904D01*
X142692380Y-67397333D01*
X142692380Y-66778285D01*
G04 #@! TO.C,JP1*
X134834380Y-68942334D02*
X135548666Y-68942334D01*
X135691523Y-68989953D01*
X135786761Y-69085191D01*
X135834380Y-69228048D01*
X135834380Y-69323286D01*
X135834380Y-68466143D02*
X134834380Y-68466143D01*
X134834380Y-68085191D01*
X134882000Y-67989953D01*
X134929619Y-67942334D01*
X135024857Y-67894715D01*
X135167714Y-67894715D01*
X135262952Y-67942334D01*
X135310571Y-67989953D01*
X135358190Y-68085191D01*
X135358190Y-68466143D01*
X135834380Y-66942334D02*
X135834380Y-67513762D01*
X135834380Y-67228048D02*
X134834380Y-67228048D01*
X134977238Y-67323286D01*
X135072476Y-67418524D01*
X135120095Y-67513762D01*
G04 #@! TO.C,C7*
X146153142Y-67476666D02*
X146200761Y-67524285D01*
X146248380Y-67667142D01*
X146248380Y-67762380D01*
X146200761Y-67905238D01*
X146105523Y-68000476D01*
X146010285Y-68048095D01*
X145819809Y-68095714D01*
X145676952Y-68095714D01*
X145486476Y-68048095D01*
X145391238Y-68000476D01*
X145296000Y-67905238D01*
X145248380Y-67762380D01*
X145248380Y-67667142D01*
X145296000Y-67524285D01*
X145343619Y-67476666D01*
X145248380Y-67143333D02*
X145248380Y-66476666D01*
X146248380Y-66905238D01*
G04 #@! TO.C,C3*
X141311333Y-62333142D02*
X141263714Y-62380761D01*
X141120857Y-62428380D01*
X141025619Y-62428380D01*
X140882761Y-62380761D01*
X140787523Y-62285523D01*
X140739904Y-62190285D01*
X140692285Y-61999809D01*
X140692285Y-61856952D01*
X140739904Y-61666476D01*
X140787523Y-61571238D01*
X140882761Y-61476000D01*
X141025619Y-61428380D01*
X141120857Y-61428380D01*
X141263714Y-61476000D01*
X141311333Y-61523619D01*
X141644666Y-61428380D02*
X142263714Y-61428380D01*
X141930380Y-61809333D01*
X142073238Y-61809333D01*
X142168476Y-61856952D01*
X142216095Y-61904571D01*
X142263714Y-61999809D01*
X142263714Y-62237904D01*
X142216095Y-62333142D01*
X142168476Y-62380761D01*
X142073238Y-62428380D01*
X141787523Y-62428380D01*
X141692285Y-62380761D01*
X141644666Y-62333142D01*
G04 #@! TO.C,C4*
X146109994Y-76187400D02*
X146157613Y-76235019D01*
X146205232Y-76377876D01*
X146205232Y-76473114D01*
X146157613Y-76615972D01*
X146062375Y-76711210D01*
X145967137Y-76758829D01*
X145776661Y-76806448D01*
X145633804Y-76806448D01*
X145443328Y-76758829D01*
X145348090Y-76711210D01*
X145252852Y-76615972D01*
X145205232Y-76473114D01*
X145205232Y-76377876D01*
X145252852Y-76235019D01*
X145300471Y-76187400D01*
X145538566Y-75330257D02*
X146205232Y-75330257D01*
X145157613Y-75568353D02*
X145871899Y-75806448D01*
X145871899Y-75187400D01*
G04 #@! TO.C,U2*
X143550095Y-59106380D02*
X143550095Y-59915904D01*
X143597714Y-60011142D01*
X143645333Y-60058761D01*
X143740571Y-60106380D01*
X143931047Y-60106380D01*
X144026285Y-60058761D01*
X144073904Y-60011142D01*
X144121523Y-59915904D01*
X144121523Y-59106380D01*
X144550095Y-59201619D02*
X144597714Y-59154000D01*
X144692952Y-59106380D01*
X144931047Y-59106380D01*
X145026285Y-59154000D01*
X145073904Y-59201619D01*
X145121523Y-59296857D01*
X145121523Y-59392095D01*
X145073904Y-59534952D01*
X144502476Y-60106380D01*
X145121523Y-60106380D01*
G04 #@! TO.C,Q1*
X158375361Y-64301619D02*
X158280123Y-64254000D01*
X158184885Y-64158761D01*
X158042028Y-64015904D01*
X157946790Y-63968285D01*
X157851552Y-63968285D01*
X157899171Y-64206380D02*
X157803933Y-64158761D01*
X157708695Y-64063523D01*
X157661076Y-63873047D01*
X157661076Y-63539714D01*
X157708695Y-63349238D01*
X157803933Y-63254000D01*
X157899171Y-63206380D01*
X158089647Y-63206380D01*
X158184885Y-63254000D01*
X158280123Y-63349238D01*
X158327742Y-63539714D01*
X158327742Y-63873047D01*
X158280123Y-64063523D01*
X158184885Y-64158761D01*
X158089647Y-64206380D01*
X157899171Y-64206380D01*
X159280123Y-64206380D02*
X158708695Y-64206380D01*
X158994409Y-64206380D02*
X158994409Y-63206380D01*
X158899171Y-63349238D01*
X158803933Y-63444476D01*
X158708695Y-63492095D01*
G04 #@! TO.C,R1*
X161377333Y-64206380D02*
X161044000Y-63730190D01*
X160805904Y-64206380D02*
X160805904Y-63206380D01*
X161186857Y-63206380D01*
X161282095Y-63254000D01*
X161329714Y-63301619D01*
X161377333Y-63396857D01*
X161377333Y-63539714D01*
X161329714Y-63634952D01*
X161282095Y-63682571D01*
X161186857Y-63730190D01*
X160805904Y-63730190D01*
X162329714Y-64206380D02*
X161758285Y-64206380D01*
X162044000Y-64206380D02*
X162044000Y-63206380D01*
X161948761Y-63349238D01*
X161853523Y-63444476D01*
X161758285Y-63492095D01*
G04 #@! TO.C,SW1*
X151066666Y-66204761D02*
X151209523Y-66252380D01*
X151447619Y-66252380D01*
X151542857Y-66204761D01*
X151590476Y-66157142D01*
X151638095Y-66061904D01*
X151638095Y-65966666D01*
X151590476Y-65871428D01*
X151542857Y-65823809D01*
X151447619Y-65776190D01*
X151257142Y-65728571D01*
X151161904Y-65680952D01*
X151114285Y-65633333D01*
X151066666Y-65538095D01*
X151066666Y-65442857D01*
X151114285Y-65347619D01*
X151161904Y-65300000D01*
X151257142Y-65252380D01*
X151495238Y-65252380D01*
X151638095Y-65300000D01*
X151971428Y-65252380D02*
X152209523Y-66252380D01*
X152400000Y-65538095D01*
X152590476Y-66252380D01*
X152828571Y-65252380D01*
X153733333Y-66252380D02*
X153161904Y-66252380D01*
X153447619Y-66252380D02*
X153447619Y-65252380D01*
X153352380Y-65395238D01*
X153257142Y-65490476D01*
X153161904Y-65538095D01*
G04 #@! TO.C,D2*
X157503904Y-55316380D02*
X157503904Y-54316380D01*
X157742000Y-54316380D01*
X157884857Y-54364000D01*
X157980095Y-54459238D01*
X158027714Y-54554476D01*
X158075333Y-54744952D01*
X158075333Y-54887809D01*
X158027714Y-55078285D01*
X157980095Y-55173523D01*
X157884857Y-55268761D01*
X157742000Y-55316380D01*
X157503904Y-55316380D01*
X158456285Y-54411619D02*
X158503904Y-54364000D01*
X158599142Y-54316380D01*
X158837238Y-54316380D01*
X158932476Y-54364000D01*
X158980095Y-54411619D01*
X159027714Y-54506857D01*
X159027714Y-54602095D01*
X158980095Y-54744952D01*
X158408666Y-55316380D01*
X159027714Y-55316380D01*
G04 #@! TO.C,D4*
X141987178Y-75024981D02*
X142853204Y-74524981D01*
X142972252Y-74731177D01*
X143002441Y-74878705D01*
X142967581Y-75008802D01*
X142908912Y-75097661D01*
X142767764Y-75234138D01*
X142644047Y-75305567D01*
X142455280Y-75359565D01*
X142348992Y-75365945D01*
X142218894Y-75331086D01*
X142106226Y-75231177D01*
X141987178Y-75024981D01*
X143278814Y-75928827D02*
X142701464Y-76262160D01*
X143489681Y-75532154D02*
X142752044Y-75683100D01*
X143061568Y-76219211D01*
X140140442Y-82032831D02*
X139854728Y-81537959D01*
X139997585Y-81785395D02*
X140863611Y-81285395D01*
X140692274Y-81274345D01*
X140562176Y-81239485D01*
X140473318Y-81180816D01*
G04 #@! TO.C,D3*
X151661904Y-59253380D02*
X151661904Y-58253380D01*
X151900000Y-58253380D01*
X152042857Y-58301000D01*
X152138095Y-58396238D01*
X152185714Y-58491476D01*
X152233333Y-58681952D01*
X152233333Y-58824809D01*
X152185714Y-59015285D01*
X152138095Y-59110523D01*
X152042857Y-59205761D01*
X151900000Y-59253380D01*
X151661904Y-59253380D01*
X152566666Y-58253380D02*
X153185714Y-58253380D01*
X152852380Y-58634333D01*
X152995238Y-58634333D01*
X153090476Y-58681952D01*
X153138095Y-58729571D01*
X153185714Y-58824809D01*
X153185714Y-59062904D01*
X153138095Y-59158142D01*
X153090476Y-59205761D01*
X152995238Y-59253380D01*
X152709523Y-59253380D01*
X152614285Y-59205761D01*
X152566666Y-59158142D01*
X148535714Y-54097380D02*
X147964285Y-54097380D01*
X148250000Y-54097380D02*
X148250000Y-53097380D01*
X148154761Y-53240238D01*
X148059523Y-53335476D01*
X147964285Y-53383095D01*
G04 #@! TO.C,D1*
X162074725Y-76303399D02*
X161208700Y-75803399D01*
X161327747Y-75597203D01*
X161440415Y-75497294D01*
X161570513Y-75462435D01*
X161676801Y-75468814D01*
X161865568Y-75522813D01*
X161989286Y-75594242D01*
X162130434Y-75730719D01*
X162189103Y-75819578D01*
X162223962Y-75949675D01*
X162193773Y-76097203D01*
X162074725Y-76303399D01*
X162836630Y-74983741D02*
X162550916Y-75478613D01*
X162693773Y-75231177D02*
X161827747Y-74731177D01*
X161903846Y-74885084D01*
X161938706Y-75015182D01*
X161932326Y-75121470D01*
X169044471Y-74349949D02*
X168758757Y-74844821D01*
X168901614Y-74597385D02*
X168035588Y-74097385D01*
X168111687Y-74251292D01*
X168146547Y-74381390D01*
X168140167Y-74487678D01*
G04 #@! TD*
M02*
