M48
;DRILL file {KiCad 5.0.2+dfsg1-1~bpo9+1} date Wed 22 May 2019 13:48:33 CEST
;FORMAT={-:-/ absolute / inch / decimal}
FMAT,2
INCH,TZ
T1C0.0157
T2C0.0295
T3C0.0315
T4C0.0354
%
G90
G05
T1
X5.4231Y-2.44
X5.66Y-2.8369
X5.67Y-2.5827
X5.74Y-2.7869
X5.7424Y-2.7155
X5.8675Y-3.06
X5.904Y-2.8485
X5.92Y-2.5315
X5.985Y-2.855
X5.99Y-3.0315
X6.0309Y-3.0309
X6.1Y-2.84
X6.1025Y-2.7225
X6.1116Y-2.9934
X6.1157Y-2.7657
X6.1242Y-3.0551
X6.1508Y-2.9899
X6.1869Y-2.938
X6.19Y-2.995
X6.32Y-2.65
X6.3443Y-3.1816
X6.46Y-2.32
X6.5325Y-2.8725
X6.54Y-2.51
X6.5772Y-2.546
X6.5975Y-3.0875
X6.6075Y-2.5775
T2
X5.48Y-2.5713
X5.48Y-2.65
T3
X5.42Y-2.81
X5.4987Y-2.81
X6.2613Y-2.258
X6.34Y-2.258
T4
X5.58Y-2.26
X5.68Y-2.26
X5.78Y-2.26
T0
M30
