G04 #@! TF.GenerationSoftware,KiCad,Pcbnew,5.0.2+dfsg1-1~bpo9+1*
G04 #@! TF.CreationDate,2019-05-22T13:48:08+02:00*
G04 #@! TF.ProjectId,MainDisk,4d61696e-4469-4736-9b2e-6b696361645f,rev?*
G04 #@! TF.SameCoordinates,Original*
G04 #@! TF.FileFunction,Legend,Bot*
G04 #@! TF.FilePolarity,Positive*
%FSLAX46Y46*%
G04 Gerber Fmt 4.6, Leading zero omitted, Abs format (unit mm)*
G04 Created by KiCad (PCBNEW 5.0.2+dfsg1-1~bpo9+1) date Wed 22 May 2019 13:48:08 CEST*
%MOMM*%
%LPD*%
G01*
G04 APERTURE LIST*
%ADD10C,0.150000*%
%ADD11C,0.200000*%
%ADD12C,0.300000*%
%ADD13C,0.220000*%
%ADD14C,0.600000*%
%ADD15C,0.120000*%
G04 APERTURE END LIST*
D10*
X151852095Y-86526666D02*
X151375904Y-86526666D01*
X151947333Y-86812380D02*
X151614000Y-85812380D01*
X151280666Y-86812380D01*
X150947333Y-86812380D02*
X150947333Y-85812380D01*
X150709238Y-85812380D01*
X150566380Y-85860000D01*
X150471142Y-85955238D01*
X150423523Y-86050476D01*
X150375904Y-86240952D01*
X150375904Y-86383809D01*
X150423523Y-86574285D01*
X150471142Y-86669523D01*
X150566380Y-86764761D01*
X150709238Y-86812380D01*
X150947333Y-86812380D01*
X149947333Y-86812380D02*
X149947333Y-85812380D01*
X149709238Y-85812380D01*
X149566380Y-85860000D01*
X149471142Y-85955238D01*
X149423523Y-86050476D01*
X149375904Y-86240952D01*
X149375904Y-86383809D01*
X149423523Y-86574285D01*
X149471142Y-86669523D01*
X149566380Y-86764761D01*
X149709238Y-86812380D01*
X149947333Y-86812380D01*
X148375904Y-86812380D02*
X148709238Y-86336190D01*
X148947333Y-86812380D02*
X148947333Y-85812380D01*
X148566380Y-85812380D01*
X148471142Y-85860000D01*
X148423523Y-85907619D01*
X148375904Y-86002857D01*
X148375904Y-86145714D01*
X148423523Y-86240952D01*
X148471142Y-86288571D01*
X148566380Y-86336190D01*
X148947333Y-86336190D01*
D11*
X144526000Y-85445600D02*
X144526000Y-78435200D01*
X155498800Y-85445600D02*
X144526000Y-85445600D01*
X155498800Y-78435200D02*
X155498800Y-85445600D01*
X144576800Y-78435200D02*
X155498800Y-78435200D01*
X146240476Y-79801980D02*
X146811904Y-79801980D01*
X146526190Y-79801980D02*
X146526190Y-78801980D01*
X146621428Y-78944838D01*
X146716666Y-79040076D01*
X146811904Y-79087695D01*
X145383333Y-78801980D02*
X145573809Y-78801980D01*
X145669047Y-78849600D01*
X145716666Y-78897219D01*
X145811904Y-79040076D01*
X145859523Y-79230552D01*
X145859523Y-79611504D01*
X145811904Y-79706742D01*
X145764285Y-79754361D01*
X145669047Y-79801980D01*
X145478571Y-79801980D01*
X145383333Y-79754361D01*
X145335714Y-79706742D01*
X145288095Y-79611504D01*
X145288095Y-79373409D01*
X145335714Y-79278171D01*
X145383333Y-79230552D01*
X145478571Y-79182933D01*
X145669047Y-79182933D01*
X145764285Y-79230552D01*
X145811904Y-79278171D01*
X145859523Y-79373409D01*
X148177238Y-79230552D02*
X148272476Y-79182933D01*
X148320095Y-79135314D01*
X148367714Y-79040076D01*
X148367714Y-78992457D01*
X148320095Y-78897219D01*
X148272476Y-78849600D01*
X148177238Y-78801980D01*
X147986761Y-78801980D01*
X147891523Y-78849600D01*
X147843904Y-78897219D01*
X147796285Y-78992457D01*
X147796285Y-79040076D01*
X147843904Y-79135314D01*
X147891523Y-79182933D01*
X147986761Y-79230552D01*
X148177238Y-79230552D01*
X148272476Y-79278171D01*
X148320095Y-79325790D01*
X148367714Y-79421028D01*
X148367714Y-79611504D01*
X148320095Y-79706742D01*
X148272476Y-79754361D01*
X148177238Y-79801980D01*
X147986761Y-79801980D01*
X147891523Y-79754361D01*
X147843904Y-79706742D01*
X147796285Y-79611504D01*
X147796285Y-79421028D01*
X147843904Y-79325790D01*
X147891523Y-79278171D01*
X147986761Y-79230552D01*
X149923523Y-79135314D02*
X149923523Y-79801980D01*
X150161619Y-78754361D02*
X150399714Y-79468647D01*
X149780666Y-79468647D01*
X152431714Y-78897219D02*
X152384095Y-78849600D01*
X152288857Y-78801980D01*
X152050761Y-78801980D01*
X151955523Y-78849600D01*
X151907904Y-78897219D01*
X151860285Y-78992457D01*
X151860285Y-79087695D01*
X151907904Y-79230552D01*
X152479333Y-79801980D01*
X151860285Y-79801980D01*
X153892285Y-79801980D02*
X154463714Y-79801980D01*
X154178000Y-79801980D02*
X154178000Y-78801980D01*
X154273238Y-78944838D01*
X154368476Y-79040076D01*
X154463714Y-79087695D01*
X163496476Y-74953761D02*
X163353619Y-75001380D01*
X163115523Y-75001380D01*
X163020285Y-74953761D01*
X162972666Y-74906142D01*
X162925047Y-74810904D01*
X162925047Y-74715666D01*
X162972666Y-74620428D01*
X163020285Y-74572809D01*
X163115523Y-74525190D01*
X163306000Y-74477571D01*
X163401238Y-74429952D01*
X163448857Y-74382333D01*
X163496476Y-74287095D01*
X163496476Y-74191857D01*
X163448857Y-74096619D01*
X163401238Y-74049000D01*
X163306000Y-74001380D01*
X163067904Y-74001380D01*
X162925047Y-74049000D01*
X161925047Y-74906142D02*
X161972666Y-74953761D01*
X162115523Y-75001380D01*
X162210761Y-75001380D01*
X162353619Y-74953761D01*
X162448857Y-74858523D01*
X162496476Y-74763285D01*
X162544095Y-74572809D01*
X162544095Y-74429952D01*
X162496476Y-74239476D01*
X162448857Y-74144238D01*
X162353619Y-74049000D01*
X162210761Y-74001380D01*
X162115523Y-74001380D01*
X161972666Y-74049000D01*
X161925047Y-74096619D01*
X161020285Y-75001380D02*
X161496476Y-75001380D01*
X161496476Y-74001380D01*
X161615285Y-76731761D02*
X161472428Y-76779380D01*
X161234333Y-76779380D01*
X161139095Y-76731761D01*
X161091476Y-76684142D01*
X161043857Y-76588904D01*
X161043857Y-76493666D01*
X161091476Y-76398428D01*
X161139095Y-76350809D01*
X161234333Y-76303190D01*
X161424809Y-76255571D01*
X161520047Y-76207952D01*
X161567666Y-76160333D01*
X161615285Y-76065095D01*
X161615285Y-75969857D01*
X161567666Y-75874619D01*
X161520047Y-75827000D01*
X161424809Y-75779380D01*
X161186714Y-75779380D01*
X161043857Y-75827000D01*
X160615285Y-76779380D02*
X160615285Y-75779380D01*
X160377190Y-75779380D01*
X160234333Y-75827000D01*
X160139095Y-75922238D01*
X160091476Y-76017476D01*
X160043857Y-76207952D01*
X160043857Y-76350809D01*
X160091476Y-76541285D01*
X160139095Y-76636523D01*
X160234333Y-76731761D01*
X160377190Y-76779380D01*
X160615285Y-76779380D01*
X159662904Y-76493666D02*
X159186714Y-76493666D01*
X159758142Y-76779380D02*
X159424809Y-75779380D01*
X159091476Y-76779380D01*
D12*
X159483822Y-77903700D02*
X158675700Y-78711822D01*
X159483822Y-78711822D02*
X158675700Y-77903700D01*
D13*
X157355857Y-80001360D02*
X156709360Y-80647857D01*
D11*
X157539474Y-58293000D02*
G75*
G03X157539474Y-58293000I-4504474J0D01*
G01*
D14*
X170900000Y-69850000D02*
G75*
G03X170900000Y-69850000I-18500000J0D01*
G01*
D15*
G04 #@! TO.C,J2*
X157976000Y-58413200D02*
X157976000Y-56293200D01*
X160036000Y-58413200D02*
X157976000Y-58413200D01*
X160036000Y-56293200D02*
X157976000Y-56293200D01*
X160036000Y-58413200D02*
X160036000Y-56293200D01*
X161036000Y-58413200D02*
X162096000Y-58413200D01*
X162096000Y-58413200D02*
X162096000Y-57353200D01*
G04 #@! TO.C,J1*
X166023600Y-69064600D02*
X166023600Y-68044600D01*
X160823600Y-69064600D02*
X160823600Y-68044600D01*
X166023600Y-71604600D02*
X166023600Y-70584600D01*
X160823600Y-71604600D02*
X160823600Y-70584600D01*
X166023600Y-66524600D02*
X166023600Y-65954600D01*
X160823600Y-66524600D02*
X160823600Y-65954600D01*
X166023600Y-73694600D02*
X166023600Y-73124600D01*
X160823600Y-73694600D02*
X160823600Y-73124600D01*
X159383600Y-73124600D02*
X160823600Y-73124600D01*
X160823600Y-65954600D02*
X166023600Y-65954600D01*
X160823600Y-73694600D02*
X166023600Y-73694600D01*
G04 #@! TO.C,C9*
X144410500Y-60383922D02*
X144410500Y-60901078D01*
X142990500Y-60383922D02*
X142990500Y-60901078D01*
G04 #@! TO.C,R2*
X141022000Y-60916077D02*
X141022000Y-60398921D01*
X142442000Y-60916077D02*
X142442000Y-60398921D01*
G04 #@! TO.C,JP2*
X153178000Y-81088000D02*
X153178000Y-82488000D01*
X153878000Y-83188000D02*
X154478000Y-83188000D01*
X155178000Y-82488000D02*
X155178000Y-81088000D01*
X154478000Y-80388000D02*
X153878000Y-80388000D01*
X153878000Y-80388000D02*
G75*
G03X153178000Y-81088000I0J-700000D01*
G01*
X155178000Y-81088000D02*
G75*
G03X154478000Y-80388000I-700000J0D01*
G01*
X154478000Y-83188000D02*
G75*
G03X155178000Y-82488000I0J700000D01*
G01*
X153178000Y-82488000D02*
G75*
G03X153878000Y-83188000I700000J0D01*
G01*
G04 #@! TO.C,JP4*
X149114000Y-81088000D02*
X149114000Y-82488000D01*
X149814000Y-83188000D02*
X150414000Y-83188000D01*
X151114000Y-82488000D02*
X151114000Y-81088000D01*
X150414000Y-80388000D02*
X149814000Y-80388000D01*
X149814000Y-80388000D02*
G75*
G03X149114000Y-81088000I0J-700000D01*
G01*
X151114000Y-81088000D02*
G75*
G03X150414000Y-80388000I-700000J0D01*
G01*
X150414000Y-83188000D02*
G75*
G03X151114000Y-82488000I0J700000D01*
G01*
X149114000Y-82488000D02*
G75*
G03X149814000Y-83188000I700000J0D01*
G01*
G04 #@! TO.C,JP3*
X151146000Y-81088000D02*
X151146000Y-82488000D01*
X151846000Y-83188000D02*
X152446000Y-83188000D01*
X153146000Y-82488000D02*
X153146000Y-81088000D01*
X152446000Y-80388000D02*
X151846000Y-80388000D01*
X151846000Y-80388000D02*
G75*
G03X151146000Y-81088000I0J-700000D01*
G01*
X153146000Y-81088000D02*
G75*
G03X152446000Y-80388000I-700000J0D01*
G01*
X152446000Y-83188000D02*
G75*
G03X153146000Y-82488000I0J700000D01*
G01*
X151146000Y-82488000D02*
G75*
G03X151846000Y-83188000I700000J0D01*
G01*
G04 #@! TO.C,JP6*
X145050000Y-81088000D02*
X145050000Y-82488000D01*
X145750000Y-83188000D02*
X146350000Y-83188000D01*
X147050000Y-82488000D02*
X147050000Y-81088000D01*
X146350000Y-80388000D02*
X145750000Y-80388000D01*
X145750000Y-80388000D02*
G75*
G03X145050000Y-81088000I0J-700000D01*
G01*
X147050000Y-81088000D02*
G75*
G03X146350000Y-80388000I-700000J0D01*
G01*
X146350000Y-83188000D02*
G75*
G03X147050000Y-82488000I0J700000D01*
G01*
X145050000Y-82488000D02*
G75*
G03X145750000Y-83188000I700000J0D01*
G01*
G04 #@! TO.C,JP5*
X147082000Y-81088000D02*
X147082000Y-82488000D01*
X147782000Y-83188000D02*
X148382000Y-83188000D01*
X149082000Y-82488000D02*
X149082000Y-81088000D01*
X148382000Y-80388000D02*
X147782000Y-80388000D01*
X147782000Y-80388000D02*
G75*
G03X147082000Y-81088000I0J-700000D01*
G01*
X149082000Y-81088000D02*
G75*
G03X148382000Y-80388000I-700000J0D01*
G01*
X148382000Y-83188000D02*
G75*
G03X149082000Y-82488000I0J700000D01*
G01*
X147082000Y-82488000D02*
G75*
G03X147782000Y-83188000I700000J0D01*
G01*
D10*
G04 #@! TO.C,TP4*
X159863581Y-84975898D02*
X161560637Y-83278842D01*
X156893733Y-82006050D02*
X159863581Y-84975898D01*
X158590789Y-80308994D02*
X156893733Y-82006050D01*
X161560637Y-83278842D02*
X158590789Y-80308994D01*
G04 #@! TO.C,TP2*
X164174104Y-80665375D02*
X165871160Y-78968319D01*
X161204256Y-77695527D02*
X164174104Y-80665375D01*
X162901312Y-75998471D02*
X161204256Y-77695527D01*
X165871160Y-78968319D02*
X162901312Y-75998471D01*
G04 #@! TO.C,TP3*
X166329365Y-78510114D02*
X168026421Y-76813058D01*
X163359517Y-75540266D02*
X166329365Y-78510114D01*
X165056573Y-73843210D02*
X163359517Y-75540266D01*
X168026421Y-76813058D02*
X165056573Y-73843210D01*
G04 #@! TO.C,TP1*
X162018842Y-82820637D02*
X163715898Y-81123581D01*
X159048994Y-79850789D02*
X162018842Y-82820637D01*
X160746050Y-78153733D02*
X159048994Y-79850789D01*
X163715898Y-81123581D02*
X160746050Y-78153733D01*
D15*
G04 #@! TO.C,SW2*
X136608000Y-70314000D02*
X136608000Y-71374000D01*
X137668000Y-70314000D02*
X136608000Y-70314000D01*
X138668000Y-70314000D02*
X138668000Y-72434000D01*
X138668000Y-72434000D02*
X140728000Y-72434000D01*
X138668000Y-70314000D02*
X140728000Y-70314000D01*
X140728000Y-70314000D02*
X140728000Y-72434000D01*
G04 #@! TO.C,BT1*
X141302000Y-69670000D02*
X140052000Y-69670000D01*
X141302000Y-68420000D02*
X141302000Y-69670000D01*
X136892000Y-66310000D02*
X137392000Y-66310000D01*
X137392000Y-66210000D02*
X136892000Y-66210000D01*
X137392000Y-66410000D02*
X137392000Y-66210000D01*
X136892000Y-66410000D02*
X137392000Y-66410000D01*
X138392000Y-63250000D02*
X138392000Y-63860000D01*
X139692000Y-63250000D02*
X139692000Y-63860000D01*
X138392000Y-69370000D02*
X138392000Y-68760000D01*
X139692000Y-69370000D02*
X139692000Y-68760000D01*
X140392000Y-65810000D02*
X141002000Y-65810000D01*
X140392000Y-63860000D02*
X140392000Y-65810000D01*
X136892000Y-63860000D02*
X140392000Y-63860000D01*
X136892000Y-68760000D02*
X136892000Y-63860000D01*
X140392000Y-68760000D02*
X136892000Y-68760000D01*
X140392000Y-66810000D02*
X140392000Y-68760000D01*
X141002000Y-66810000D02*
X140392000Y-66810000D01*
X141102000Y-67610000D02*
X141102000Y-67910000D01*
X141202000Y-67910000D02*
X141002000Y-67910000D01*
X141202000Y-67610000D02*
X141202000Y-67910000D01*
X141002000Y-67610000D02*
X141202000Y-67610000D01*
X141002000Y-63250000D02*
X141002000Y-69370000D01*
X136282000Y-63250000D02*
X141002000Y-63250000D01*
X136282000Y-69370000D02*
X136282000Y-63250000D01*
X141002000Y-69370000D02*
X136282000Y-69370000D01*
G04 #@! TO.C,Y1*
X146568000Y-63150000D02*
X146568000Y-75750000D01*
X141468000Y-63150000D02*
X146568000Y-63150000D01*
X141468000Y-75750000D02*
X141468000Y-63150000D01*
D10*
G04 #@! TO.C,U1*
X148775000Y-73250000D02*
X147350000Y-73250000D01*
X156025000Y-73475000D02*
X155700000Y-73475000D01*
X156025000Y-66225000D02*
X155700000Y-66225000D01*
X148775000Y-66225000D02*
X149100000Y-66225000D01*
X148775000Y-73475000D02*
X149100000Y-73475000D01*
X148775000Y-66225000D02*
X148775000Y-66550000D01*
X156025000Y-66225000D02*
X156025000Y-66550000D01*
X156025000Y-73475000D02*
X156025000Y-73150000D01*
X148775000Y-73475000D02*
X148775000Y-73250000D01*
G04 #@! TO.C,J2*
X162548380Y-57019866D02*
X163262666Y-57019866D01*
X163405523Y-56972247D01*
X163500761Y-56877009D01*
X163548380Y-56734152D01*
X163548380Y-56638914D01*
X162643619Y-57448438D02*
X162596000Y-57496057D01*
X162548380Y-57591295D01*
X162548380Y-57829390D01*
X162596000Y-57924628D01*
X162643619Y-57972247D01*
X162738857Y-58019866D01*
X162834095Y-58019866D01*
X162976952Y-57972247D01*
X163548380Y-57400819D01*
X163548380Y-58019866D01*
G04 #@! TO.C,J1*
X161851933Y-64603380D02*
X161851933Y-65317666D01*
X161899552Y-65460523D01*
X161994790Y-65555761D01*
X162137647Y-65603380D01*
X162232885Y-65603380D01*
X160851933Y-65603380D02*
X161423361Y-65603380D01*
X161137647Y-65603380D02*
X161137647Y-64603380D01*
X161232885Y-64746238D01*
X161328123Y-64841476D01*
X161423361Y-64889095D01*
G04 #@! TO.C,C9*
X145746742Y-59802733D02*
X145794361Y-59755114D01*
X145841980Y-59612257D01*
X145841980Y-59517019D01*
X145794361Y-59374161D01*
X145699123Y-59278923D01*
X145603885Y-59231304D01*
X145413409Y-59183685D01*
X145270552Y-59183685D01*
X145080076Y-59231304D01*
X144984838Y-59278923D01*
X144889600Y-59374161D01*
X144841980Y-59517019D01*
X144841980Y-59612257D01*
X144889600Y-59755114D01*
X144937219Y-59802733D01*
X145841980Y-60278923D02*
X145841980Y-60469400D01*
X145794361Y-60564638D01*
X145746742Y-60612257D01*
X145603885Y-60707495D01*
X145413409Y-60755114D01*
X145032457Y-60755114D01*
X144937219Y-60707495D01*
X144889600Y-60659876D01*
X144841980Y-60564638D01*
X144841980Y-60374161D01*
X144889600Y-60278923D01*
X144937219Y-60231304D01*
X145032457Y-60183685D01*
X145270552Y-60183685D01*
X145365790Y-60231304D01*
X145413409Y-60278923D01*
X145461028Y-60374161D01*
X145461028Y-60564638D01*
X145413409Y-60659876D01*
X145365790Y-60707495D01*
X145270552Y-60755114D01*
G04 #@! TO.C,R2*
X140609580Y-59878933D02*
X140133390Y-59545600D01*
X140609580Y-59307504D02*
X139609580Y-59307504D01*
X139609580Y-59688457D01*
X139657200Y-59783695D01*
X139704819Y-59831314D01*
X139800057Y-59878933D01*
X139942914Y-59878933D01*
X140038152Y-59831314D01*
X140085771Y-59783695D01*
X140133390Y-59688457D01*
X140133390Y-59307504D01*
X139704819Y-60259885D02*
X139657200Y-60307504D01*
X139609580Y-60402742D01*
X139609580Y-60640838D01*
X139657200Y-60736076D01*
X139704819Y-60783695D01*
X139800057Y-60831314D01*
X139895295Y-60831314D01*
X140038152Y-60783695D01*
X140609580Y-60212266D01*
X140609580Y-60831314D01*
G04 #@! TO.C,SW2*
X139966533Y-74013961D02*
X139823676Y-74061580D01*
X139585580Y-74061580D01*
X139490342Y-74013961D01*
X139442723Y-73966342D01*
X139395104Y-73871104D01*
X139395104Y-73775866D01*
X139442723Y-73680628D01*
X139490342Y-73633009D01*
X139585580Y-73585390D01*
X139776057Y-73537771D01*
X139871295Y-73490152D01*
X139918914Y-73442533D01*
X139966533Y-73347295D01*
X139966533Y-73252057D01*
X139918914Y-73156819D01*
X139871295Y-73109200D01*
X139776057Y-73061580D01*
X139537961Y-73061580D01*
X139395104Y-73109200D01*
X139061771Y-73061580D02*
X138823676Y-74061580D01*
X138633200Y-73347295D01*
X138442723Y-74061580D01*
X138204628Y-73061580D01*
X137871295Y-73156819D02*
X137823676Y-73109200D01*
X137728438Y-73061580D01*
X137490342Y-73061580D01*
X137395104Y-73109200D01*
X137347485Y-73156819D01*
X137299866Y-73252057D01*
X137299866Y-73347295D01*
X137347485Y-73490152D01*
X137918914Y-74061580D01*
X137299866Y-74061580D01*
G04 #@! TO.C,BT1*
X139469714Y-62158571D02*
X139326857Y-62206190D01*
X139279238Y-62253809D01*
X139231619Y-62349047D01*
X139231619Y-62491904D01*
X139279238Y-62587142D01*
X139326857Y-62634761D01*
X139422095Y-62682380D01*
X139803047Y-62682380D01*
X139803047Y-61682380D01*
X139469714Y-61682380D01*
X139374476Y-61730000D01*
X139326857Y-61777619D01*
X139279238Y-61872857D01*
X139279238Y-61968095D01*
X139326857Y-62063333D01*
X139374476Y-62110952D01*
X139469714Y-62158571D01*
X139803047Y-62158571D01*
X138945904Y-61682380D02*
X138374476Y-61682380D01*
X138660190Y-62682380D02*
X138660190Y-61682380D01*
X137517333Y-62682380D02*
X138088761Y-62682380D01*
X137803047Y-62682380D02*
X137803047Y-61682380D01*
X137898285Y-61825238D01*
X137993523Y-61920476D01*
X138088761Y-61968095D01*
G04 #@! TO.C,Y1*
X147423190Y-63506409D02*
X147899380Y-63506409D01*
X146899380Y-63173076D02*
X147423190Y-63506409D01*
X146899380Y-63839742D01*
X147899380Y-64696885D02*
X147899380Y-64125457D01*
X147899380Y-64411171D02*
X146899380Y-64411171D01*
X147042238Y-64315933D01*
X147137476Y-64220695D01*
X147185095Y-64125457D01*
G04 #@! TO.C,U1*
X153161904Y-75352380D02*
X153161904Y-76161904D01*
X153114285Y-76257142D01*
X153066666Y-76304761D01*
X152971428Y-76352380D01*
X152780952Y-76352380D01*
X152685714Y-76304761D01*
X152638095Y-76257142D01*
X152590476Y-76161904D01*
X152590476Y-75352380D01*
X151590476Y-76352380D02*
X152161904Y-76352380D01*
X151876190Y-76352380D02*
X151876190Y-75352380D01*
X151971428Y-75495238D01*
X152066666Y-75590476D01*
X152161904Y-75638095D01*
G04 #@! TD*
M02*
