G04 #@! TF.GenerationSoftware,KiCad,Pcbnew,5.0.2+dfsg1-1~bpo9+1*
G04 #@! TF.CreationDate,2019-05-22T13:48:08+02:00*
G04 #@! TF.ProjectId,MainDisk,4d61696e-4469-4736-9b2e-6b696361645f,rev?*
G04 #@! TF.SameCoordinates,Original*
G04 #@! TF.FileFunction,Soldermask,Bot*
G04 #@! TF.FilePolarity,Negative*
%FSLAX46Y46*%
G04 Gerber Fmt 4.6, Leading zero omitted, Abs format (unit mm)*
G04 Created by KiCad (PCBNEW 5.0.2+dfsg1-1~bpo9+1) date Wed 22 May 2019 13:48:08 CEST*
%MOMM*%
%LPD*%
G01*
G04 APERTURE LIST*
%ADD10C,0.180000*%
%ADD11C,0.300000*%
%ADD12C,0.010000*%
%ADD13C,0.100000*%
G04 APERTURE END LIST*
D10*
X152312666Y-83613714D02*
X152312666Y-84089904D01*
X152598380Y-83518476D02*
X151598380Y-83851809D01*
X152598380Y-84185142D01*
X152598380Y-85042285D02*
X152598380Y-84470857D01*
X152598380Y-84756571D02*
X151598380Y-84756571D01*
X151741238Y-84661333D01*
X151836476Y-84566095D01*
X151884095Y-84470857D01*
X154344666Y-83613714D02*
X154344666Y-84089904D01*
X154630380Y-83518476D02*
X153630380Y-83851809D01*
X154630380Y-84185142D01*
X153630380Y-84708952D02*
X153630380Y-84804190D01*
X153678000Y-84899428D01*
X153725619Y-84947047D01*
X153820857Y-84994666D01*
X154011333Y-85042285D01*
X154249428Y-85042285D01*
X154439904Y-84994666D01*
X154535142Y-84947047D01*
X154582761Y-84899428D01*
X154630380Y-84804190D01*
X154630380Y-84708952D01*
X154582761Y-84613714D01*
X154535142Y-84566095D01*
X154439904Y-84518476D01*
X154249428Y-84470857D01*
X154011333Y-84470857D01*
X153820857Y-84518476D01*
X153725619Y-84566095D01*
X153678000Y-84613714D01*
X153630380Y-84708952D01*
X147534380Y-83566095D02*
X147534380Y-84137523D01*
X148534380Y-83851809D02*
X147534380Y-83851809D01*
X147534380Y-84375619D02*
X148534380Y-85042285D01*
X147534380Y-85042285D02*
X148534380Y-84375619D01*
X150566380Y-84161333D02*
X150090190Y-83828000D01*
X150566380Y-83589904D02*
X149566380Y-83589904D01*
X149566380Y-83970857D01*
X149614000Y-84066095D01*
X149661619Y-84113714D01*
X149756857Y-84161333D01*
X149899714Y-84161333D01*
X149994952Y-84113714D01*
X150042571Y-84066095D01*
X150090190Y-83970857D01*
X150090190Y-83589904D01*
X149566380Y-84494666D02*
X150566380Y-85161333D01*
X149566380Y-85161333D02*
X150566380Y-84494666D01*
D11*
X166605190Y-61312095D02*
X166605190Y-60012095D01*
X165243285Y-61312095D02*
X165676619Y-60693047D01*
X165986142Y-61312095D02*
X165986142Y-60012095D01*
X165490904Y-60012095D01*
X165367095Y-60074000D01*
X165305190Y-60135904D01*
X165243285Y-60259714D01*
X165243285Y-60445428D01*
X165305190Y-60569238D01*
X165367095Y-60631142D01*
X165490904Y-60693047D01*
X165986142Y-60693047D01*
X164686142Y-60816857D02*
X163695666Y-60816857D01*
X162643285Y-60631142D02*
X162457571Y-60693047D01*
X162395666Y-60754952D01*
X162333761Y-60878761D01*
X162333761Y-61064476D01*
X162395666Y-61188285D01*
X162457571Y-61250190D01*
X162581380Y-61312095D01*
X163076619Y-61312095D01*
X163076619Y-60012095D01*
X162643285Y-60012095D01*
X162519476Y-60074000D01*
X162457571Y-60135904D01*
X162395666Y-60259714D01*
X162395666Y-60383523D01*
X162457571Y-60507333D01*
X162519476Y-60569238D01*
X162643285Y-60631142D01*
X163076619Y-60631142D01*
X161219476Y-61312095D02*
X161219476Y-60631142D01*
X161281380Y-60507333D01*
X161405190Y-60445428D01*
X161652809Y-60445428D01*
X161776619Y-60507333D01*
X161219476Y-61250190D02*
X161343285Y-61312095D01*
X161652809Y-61312095D01*
X161776619Y-61250190D01*
X161838523Y-61126380D01*
X161838523Y-61002571D01*
X161776619Y-60878761D01*
X161652809Y-60816857D01*
X161343285Y-60816857D01*
X161219476Y-60754952D01*
X160043285Y-61250190D02*
X160167095Y-61312095D01*
X160414714Y-61312095D01*
X160538523Y-61250190D01*
X160600428Y-61188285D01*
X160662333Y-61064476D01*
X160662333Y-60693047D01*
X160600428Y-60569238D01*
X160538523Y-60507333D01*
X160414714Y-60445428D01*
X160167095Y-60445428D01*
X160043285Y-60507333D01*
X159300428Y-61312095D02*
X159424238Y-61250190D01*
X159486142Y-61188285D01*
X159548047Y-61064476D01*
X159548047Y-60693047D01*
X159486142Y-60569238D01*
X159424238Y-60507333D01*
X159300428Y-60445428D01*
X159114714Y-60445428D01*
X158990904Y-60507333D01*
X158929000Y-60569238D01*
X158867095Y-60693047D01*
X158867095Y-61064476D01*
X158929000Y-61188285D01*
X158990904Y-61250190D01*
X159114714Y-61312095D01*
X159300428Y-61312095D01*
X158309952Y-60445428D02*
X158309952Y-61312095D01*
X158309952Y-60569238D02*
X158248047Y-60507333D01*
X158124238Y-60445428D01*
X157938523Y-60445428D01*
X157814714Y-60507333D01*
X157752809Y-60631142D01*
X157752809Y-61312095D01*
X164252809Y-63562095D02*
X164686142Y-62943047D01*
X164995666Y-63562095D02*
X164995666Y-62262095D01*
X164500428Y-62262095D01*
X164376619Y-62324000D01*
X164314714Y-62385904D01*
X164252809Y-62509714D01*
X164252809Y-62695428D01*
X164314714Y-62819238D01*
X164376619Y-62881142D01*
X164500428Y-62943047D01*
X164995666Y-62943047D01*
X163200428Y-63500190D02*
X163324238Y-63562095D01*
X163571857Y-63562095D01*
X163695666Y-63500190D01*
X163757571Y-63376380D01*
X163757571Y-62881142D01*
X163695666Y-62757333D01*
X163571857Y-62695428D01*
X163324238Y-62695428D01*
X163200428Y-62757333D01*
X163138523Y-62881142D01*
X163138523Y-63004952D01*
X163757571Y-63128761D01*
X162705190Y-62695428D02*
X162395666Y-63562095D01*
X162086142Y-62695428D01*
X161590904Y-63438285D02*
X161529000Y-63500190D01*
X161590904Y-63562095D01*
X161652809Y-63500190D01*
X161590904Y-63438285D01*
X161590904Y-63562095D01*
X159300428Y-63562095D02*
X160043285Y-63562095D01*
X159671857Y-63562095D02*
X159671857Y-62262095D01*
X159795666Y-62447809D01*
X159919476Y-62571619D01*
X160043285Y-62633523D01*
D12*
G04 #@! TO.C,SYM1*
G36*
X153444466Y-62764303D02*
X153635885Y-62755926D01*
X153797722Y-62742940D01*
X153918796Y-62725347D01*
X153952222Y-62717331D01*
X154287090Y-62615740D01*
X154600934Y-62508284D01*
X154884428Y-62398513D01*
X155128247Y-62289982D01*
X155278667Y-62211983D01*
X155384986Y-62152871D01*
X155489249Y-62095959D01*
X155555719Y-62060509D01*
X155629995Y-62015698D01*
X155728763Y-61948211D01*
X155832912Y-61871214D01*
X155852052Y-61856344D01*
X155949753Y-61780968D01*
X156039921Y-61713519D01*
X156106227Y-61666162D01*
X156116815Y-61659112D01*
X156180652Y-61604220D01*
X156221024Y-61548172D01*
X156247615Y-61504324D01*
X156301699Y-61425523D01*
X156376337Y-61321542D01*
X156464589Y-61202154D01*
X156501797Y-61152737D01*
X156614043Y-60998060D01*
X156733527Y-60822803D01*
X156846062Y-60648355D01*
X156937460Y-60496108D01*
X156938467Y-60494333D01*
X157007572Y-60363842D01*
X157081188Y-60210285D01*
X157155095Y-60044168D01*
X157225070Y-59875999D01*
X157286892Y-59716282D01*
X157336340Y-59575525D01*
X157369190Y-59464234D01*
X157381221Y-59392914D01*
X157381222Y-59392505D01*
X157387700Y-59328006D01*
X157403919Y-59246469D01*
X157425057Y-59166295D01*
X157446293Y-59105883D01*
X157462184Y-59083557D01*
X157497181Y-59090526D01*
X157568926Y-59108168D01*
X157635222Y-59125555D01*
X157774282Y-59158235D01*
X157867928Y-59167941D01*
X157922540Y-59154145D01*
X157944495Y-59116319D01*
X157945667Y-59099842D01*
X157928078Y-59040298D01*
X157872204Y-58972922D01*
X157773382Y-58893295D01*
X157626949Y-58796997D01*
X157624734Y-58795630D01*
X157473904Y-58702596D01*
X157457277Y-58123853D01*
X157448754Y-57885018D01*
X157437502Y-57688281D01*
X157422187Y-57519314D01*
X157401477Y-57363790D01*
X157374038Y-57207379D01*
X157370123Y-57187328D01*
X157341420Y-57047849D01*
X157313961Y-56925287D01*
X157290684Y-56832060D01*
X157274524Y-56780590D01*
X157273356Y-56778106D01*
X157250132Y-56728083D01*
X157212717Y-56642852D01*
X157168527Y-56539350D01*
X157160868Y-56521141D01*
X157116413Y-56424150D01*
X157050813Y-56292472D01*
X156971342Y-56140189D01*
X156885278Y-55981380D01*
X156839973Y-55900252D01*
X156745848Y-55736339D01*
X156667513Y-55608731D01*
X156594699Y-55503667D01*
X156517135Y-55407385D01*
X156424551Y-55306121D01*
X156308106Y-55187546D01*
X155906306Y-54818023D01*
X155491762Y-54501548D01*
X155060375Y-54235388D01*
X154608048Y-54016812D01*
X154465897Y-53959430D01*
X154366727Y-53924924D01*
X154285340Y-53903452D01*
X154238147Y-53899273D01*
X154236216Y-53899859D01*
X154195689Y-53901452D01*
X154110640Y-53895791D01*
X153992379Y-53883906D01*
X153852219Y-53866828D01*
X153807209Y-53860793D01*
X153540105Y-53831310D01*
X153263506Y-53813484D01*
X152993176Y-53807626D01*
X152744881Y-53814046D01*
X152534385Y-53833057D01*
X152518295Y-53835329D01*
X152319634Y-53866722D01*
X152138028Y-53899910D01*
X151983200Y-53932823D01*
X151864877Y-53963392D01*
X151792782Y-53989547D01*
X151792247Y-53989820D01*
X151754571Y-54004681D01*
X152077300Y-54004681D01*
X152110758Y-53988259D01*
X152184721Y-53971285D01*
X152304802Y-53950391D01*
X152417903Y-53931858D01*
X152519246Y-53919946D01*
X152653408Y-53910911D01*
X152810439Y-53904715D01*
X152980392Y-53901318D01*
X153153316Y-53900679D01*
X153319262Y-53902760D01*
X153468283Y-53907521D01*
X153590428Y-53914922D01*
X153675750Y-53924924D01*
X153713867Y-53937023D01*
X153705591Y-53957771D01*
X153641670Y-53980219D01*
X153550703Y-53999255D01*
X153426058Y-54025705D01*
X153277428Y-54063495D01*
X153119469Y-54108210D01*
X153076228Y-54121589D01*
X153698867Y-54121589D01*
X153839656Y-54102519D01*
X153926656Y-54089643D01*
X153990890Y-54078162D01*
X154008667Y-54073786D01*
X154071117Y-54064963D01*
X154161811Y-54064646D01*
X154253359Y-54071800D01*
X154318372Y-54085391D01*
X154318662Y-54085504D01*
X154348562Y-54101833D01*
X154335535Y-54117251D01*
X154276328Y-54138377D01*
X154128046Y-54174531D01*
X153984191Y-54190944D01*
X153861008Y-54186778D01*
X153779778Y-54163983D01*
X153698867Y-54121589D01*
X153076228Y-54121589D01*
X152966842Y-54155433D01*
X152834203Y-54200751D01*
X152736211Y-54239747D01*
X152710445Y-54252345D01*
X152621666Y-54294896D01*
X152541111Y-54326985D01*
X152484871Y-54340784D01*
X152442241Y-54328781D01*
X152392631Y-54282750D01*
X152371778Y-54259329D01*
X152293786Y-54183483D01*
X152198392Y-54107736D01*
X152163815Y-54084319D01*
X152109442Y-54049343D01*
X152078733Y-54023919D01*
X152077300Y-54004681D01*
X151754571Y-54004681D01*
X151713254Y-54020978D01*
X151621840Y-54045149D01*
X151619696Y-54045557D01*
X151518675Y-54064508D01*
X151451152Y-53845655D01*
X151416381Y-53742756D01*
X151383804Y-53663195D01*
X151359167Y-53620556D01*
X151354451Y-53617076D01*
X151310521Y-53624220D01*
X151275033Y-53644087D01*
X151248319Y-53688676D01*
X151222248Y-53773452D01*
X151199604Y-53882195D01*
X151183170Y-53998690D01*
X151175731Y-54106717D01*
X151179893Y-54186671D01*
X151539222Y-54186671D01*
X151563851Y-54161289D01*
X151625568Y-54132022D01*
X151706116Y-54106081D01*
X151780288Y-54091455D01*
X151798830Y-54106413D01*
X151931979Y-54106413D01*
X151955878Y-54093005D01*
X152018156Y-54111040D01*
X152055184Y-54126076D01*
X152122555Y-54165521D01*
X152201926Y-54227602D01*
X152280248Y-54299864D01*
X152344469Y-54369853D01*
X152381541Y-54425115D01*
X152385889Y-54441685D01*
X152362955Y-54479196D01*
X152306943Y-54525375D01*
X152237042Y-54567575D01*
X152172437Y-54593148D01*
X152151967Y-54595889D01*
X152114031Y-54569908D01*
X152088296Y-54504167D01*
X152064680Y-54429065D01*
X152024018Y-54329214D01*
X151986869Y-54250167D01*
X151943346Y-54156917D01*
X151931979Y-54106413D01*
X151798830Y-54106413D01*
X151806938Y-54112953D01*
X151847601Y-54172593D01*
X151889723Y-54250167D01*
X151952267Y-54381630D01*
X151988338Y-54473046D01*
X151999227Y-54533511D01*
X151986227Y-54572123D01*
X151950629Y-54597978D01*
X151939800Y-54602897D01*
X151858348Y-54644048D01*
X151788148Y-54686746D01*
X151727632Y-54716653D01*
X151695103Y-54709844D01*
X151678185Y-54668561D01*
X151651563Y-54589290D01*
X151620009Y-54488047D01*
X151588296Y-54380853D01*
X151561197Y-54283723D01*
X151543484Y-54212677D01*
X151539222Y-54186671D01*
X151179893Y-54186671D01*
X151180070Y-54190059D01*
X151180708Y-54193617D01*
X151173636Y-54250972D01*
X151119736Y-54294017D01*
X151119011Y-54294386D01*
X150727532Y-54510197D01*
X150364632Y-54744806D01*
X150037568Y-54992785D01*
X149753596Y-55248705D01*
X149554728Y-55464576D01*
X149461999Y-55585262D01*
X149355813Y-55738983D01*
X149242474Y-55915004D01*
X149128290Y-56102587D01*
X149019566Y-56290997D01*
X148922609Y-56469495D01*
X148843723Y-56627347D01*
X148789215Y-56753814D01*
X148777077Y-56788632D01*
X148732892Y-56942518D01*
X148685176Y-57132955D01*
X148638346Y-57340611D01*
X148596819Y-57546157D01*
X148571987Y-57686222D01*
X148555347Y-57821131D01*
X148542236Y-57993023D01*
X148532893Y-58188283D01*
X148527554Y-58393298D01*
X148526518Y-58583283D01*
X148686464Y-58583283D01*
X148692721Y-58296579D01*
X148714851Y-57995377D01*
X148752969Y-57687645D01*
X148788865Y-57474555D01*
X148836192Y-57240543D01*
X148886726Y-57034507D01*
X148944900Y-56846364D01*
X149015150Y-56666031D01*
X149101909Y-56483426D01*
X149209612Y-56288465D01*
X149342691Y-56071066D01*
X149505582Y-55821145D01*
X149536078Y-55775415D01*
X149606000Y-55670830D01*
X149623248Y-56085859D01*
X149624818Y-56115726D01*
X149765300Y-56115726D01*
X149771254Y-56070048D01*
X149771379Y-56069842D01*
X149777176Y-56034469D01*
X149782998Y-55953919D01*
X149788233Y-55839455D01*
X149792270Y-55702341D01*
X149792865Y-55673977D01*
X149800163Y-55301068D01*
X150027637Y-55116880D01*
X150249793Y-54940380D01*
X150439170Y-54797692D01*
X150603494Y-54683321D01*
X150750494Y-54591774D01*
X150824014Y-54550634D01*
X150924852Y-54495384D01*
X151012112Y-54445669D01*
X151068690Y-54411259D01*
X151072780Y-54408502D01*
X151128405Y-54377234D01*
X151165277Y-54379866D01*
X151188754Y-54422872D01*
X151204194Y-54512725D01*
X151210352Y-54574722D01*
X151225312Y-54696572D01*
X151249852Y-54847531D01*
X151279648Y-55002006D01*
X151292638Y-55061555D01*
X151322043Y-55197594D01*
X151338304Y-55299555D01*
X151342636Y-55387952D01*
X151336249Y-55483296D01*
X151323501Y-55583667D01*
X151310028Y-55709891D01*
X151298708Y-55870864D01*
X151290812Y-56044897D01*
X151287690Y-56193988D01*
X151287680Y-56209416D01*
X151373385Y-56209416D01*
X151377834Y-55978840D01*
X151397559Y-55733565D01*
X151397935Y-55730179D01*
X151414666Y-55590470D01*
X151429236Y-55498805D01*
X151443784Y-55446949D01*
X151460447Y-55426666D01*
X151476507Y-55427548D01*
X151533497Y-55429362D01*
X151621569Y-55411896D01*
X151721281Y-55381043D01*
X151813195Y-55342696D01*
X151871882Y-55307676D01*
X151936430Y-55257287D01*
X151853084Y-55074755D01*
X151769739Y-54892222D01*
X151844981Y-54830654D01*
X151902350Y-54790811D01*
X151962149Y-54759062D01*
X152006540Y-54743818D01*
X152019000Y-54748570D01*
X152014313Y-54777341D01*
X152002206Y-54845119D01*
X151990044Y-54911494D01*
X151977077Y-55058751D01*
X152002376Y-55176659D01*
X152069612Y-55280471D01*
X152082244Y-55294389D01*
X152144272Y-55347175D01*
X152180962Y-55354426D01*
X152187237Y-55323288D01*
X152158022Y-55260909D01*
X152131889Y-55224479D01*
X152097555Y-55152279D01*
X152079952Y-55054796D01*
X152077750Y-54946156D01*
X152089620Y-54840488D01*
X152114229Y-54751919D01*
X152150249Y-54694578D01*
X152183109Y-54680555D01*
X152235462Y-54665373D01*
X152308547Y-54627309D01*
X152335507Y-54610000D01*
X152400510Y-54567400D01*
X152443292Y-54542292D01*
X152450661Y-54539444D01*
X152471094Y-54564235D01*
X152500079Y-54628467D01*
X152532055Y-54716928D01*
X152561463Y-54814407D01*
X152580759Y-54895359D01*
X152594572Y-55002439D01*
X152596335Y-55106061D01*
X152592725Y-55142303D01*
X152590744Y-55218059D01*
X152610732Y-55245631D01*
X152643455Y-55222076D01*
X152671464Y-55167389D01*
X152682870Y-55092506D01*
X152678986Y-54982992D01*
X152662474Y-54857728D01*
X152635992Y-54735599D01*
X152602202Y-54635487D01*
X152594136Y-54618457D01*
X152566312Y-54556887D01*
X152555222Y-54518854D01*
X152580208Y-54492695D01*
X152647921Y-54453566D01*
X152747494Y-54406208D01*
X152868061Y-54355359D01*
X152998754Y-54305762D01*
X153128706Y-54262157D01*
X153176111Y-54248007D01*
X153332063Y-54203783D01*
X153444318Y-54174476D01*
X153523420Y-54159388D01*
X153579915Y-54157821D01*
X153624346Y-54169075D01*
X153667259Y-54192453D01*
X153698717Y-54213403D01*
X153784806Y-54258537D01*
X153870509Y-54283515D01*
X153892661Y-54285281D01*
X154017647Y-54277318D01*
X154149980Y-54256549D01*
X154271183Y-54227009D01*
X154362781Y-54192732D01*
X154389515Y-54176765D01*
X154442035Y-54144320D01*
X154491603Y-54139715D01*
X154565014Y-54160684D01*
X154567853Y-54161680D01*
X154656647Y-54198409D01*
X154762080Y-54249480D01*
X154814768Y-54277771D01*
X154904039Y-54333110D01*
X154949791Y-54373381D01*
X154948900Y-54395291D01*
X154929135Y-54398333D01*
X154897578Y-54419597D01*
X154856718Y-54470737D01*
X154856631Y-54470869D01*
X154826121Y-54527554D01*
X154828287Y-54550626D01*
X154925889Y-54550626D01*
X154947630Y-54506789D01*
X154997306Y-54465985D01*
X155051594Y-54443972D01*
X155078655Y-54447408D01*
X155119314Y-54472544D01*
X155188064Y-54515573D01*
X155228544Y-54541039D01*
X155293107Y-54586996D01*
X155328026Y-54622477D01*
X155329673Y-54634253D01*
X155285877Y-54648401D01*
X155207973Y-54652106D01*
X155117137Y-54646302D01*
X155034546Y-54631926D01*
X154997772Y-54619581D01*
X154945130Y-54583981D01*
X154925889Y-54550626D01*
X154828287Y-54550626D01*
X154830225Y-54571269D01*
X154852386Y-54609462D01*
X154932887Y-54681129D01*
X155059546Y-54722046D01*
X155230949Y-54731847D01*
X155306423Y-54727429D01*
X155508205Y-54710373D01*
X155897621Y-55033333D01*
X155644588Y-55039211D01*
X155266997Y-55055434D01*
X154900126Y-55085583D01*
X154551372Y-55128394D01*
X154228134Y-55182600D01*
X153937807Y-55246938D01*
X153687790Y-55320142D01*
X153485478Y-55400947D01*
X153462109Y-55412427D01*
X153369678Y-55456753D01*
X153313089Y-55475797D01*
X153279240Y-55472389D01*
X153260253Y-55456034D01*
X153222667Y-55427159D01*
X153194331Y-55446498D01*
X153172642Y-55517283D01*
X153163138Y-55575589D01*
X153345445Y-55575589D01*
X153369098Y-55559026D01*
X153431620Y-55526032D01*
X153520352Y-55483224D01*
X153536744Y-55475625D01*
X153784763Y-55380049D01*
X154080639Y-55298497D01*
X154417267Y-55232134D01*
X154787542Y-55182129D01*
X155184360Y-55149647D01*
X155600617Y-55135855D01*
X155606246Y-55135802D01*
X156018492Y-55132111D01*
X156167080Y-55280278D01*
X156336851Y-55463515D01*
X156488449Y-55659478D01*
X156634180Y-55884877D01*
X156712772Y-56021136D01*
X156784554Y-56153069D01*
X156852980Y-56284770D01*
X156913640Y-56407020D01*
X156962125Y-56510599D01*
X156994025Y-56586286D01*
X157004933Y-56624861D01*
X157002940Y-56627889D01*
X156975785Y-56614425D01*
X156910636Y-56577998D01*
X156817973Y-56524557D01*
X156733344Y-56474892D01*
X156587963Y-56394065D01*
X156423106Y-56310204D01*
X156266872Y-56237386D01*
X156215215Y-56215375D01*
X155956000Y-56108855D01*
X155476222Y-56109079D01*
X155299835Y-56109521D01*
X155166403Y-56111818D01*
X155062436Y-56117710D01*
X154974446Y-56128935D01*
X154888943Y-56147234D01*
X154792437Y-56174345D01*
X154671440Y-56212008D01*
X154666920Y-56213437D01*
X154517804Y-56265232D01*
X154349232Y-56331387D01*
X154173196Y-56406408D01*
X154001691Y-56484803D01*
X153846711Y-56561077D01*
X153720251Y-56629738D01*
X153634305Y-56685293D01*
X153630916Y-56687918D01*
X153567096Y-56731271D01*
X153537437Y-56731331D01*
X153539300Y-56685785D01*
X153558363Y-56624341D01*
X153590311Y-56476495D01*
X153597583Y-56298499D01*
X153580661Y-56110726D01*
X153542153Y-55940345D01*
X153508076Y-55843641D01*
X153473992Y-55768986D01*
X153447495Y-55732761D01*
X153410319Y-55695428D01*
X153370918Y-55637261D01*
X153346973Y-55585493D01*
X153345445Y-55575589D01*
X153163138Y-55575589D01*
X153162966Y-55576643D01*
X153149944Y-55676417D01*
X153145829Y-55733615D01*
X153151268Y-55761493D01*
X153166911Y-55773313D01*
X153172691Y-55775378D01*
X153198239Y-55757958D01*
X153223067Y-55702580D01*
X153226214Y-55691417D01*
X153250701Y-55597778D01*
X153289753Y-55668333D01*
X153314821Y-55744996D01*
X153327313Y-55847912D01*
X153327143Y-55956271D01*
X153314224Y-56049262D01*
X153291564Y-56102689D01*
X153267415Y-56151609D01*
X153287498Y-56174336D01*
X153328536Y-56167201D01*
X153362320Y-56131879D01*
X153395886Y-56063108D01*
X153404831Y-56036532D01*
X153430108Y-55963800D01*
X153449567Y-55941716D01*
X153466259Y-55972030D01*
X153483232Y-56056490D01*
X153487524Y-56083936D01*
X153495805Y-56158429D01*
X153489671Y-56216626D01*
X153463206Y-56277773D01*
X153410494Y-56361120D01*
X153395515Y-56383275D01*
X153331348Y-56487179D01*
X153306233Y-56552836D01*
X153311839Y-56577350D01*
X153345042Y-56576199D01*
X153398554Y-56524928D01*
X153431351Y-56482893D01*
X153522205Y-56359778D01*
X153505832Y-56467599D01*
X153485723Y-56542496D01*
X153446385Y-56648275D01*
X153395096Y-56765985D01*
X153375781Y-56806266D01*
X153322233Y-56932898D01*
X153263860Y-57100941D01*
X153233354Y-57201447D01*
X153345445Y-57201447D01*
X153364398Y-57158861D01*
X153413517Y-57091818D01*
X153481187Y-57013813D01*
X153555793Y-56938343D01*
X153618042Y-56884680D01*
X153766844Y-56785206D01*
X153958028Y-56679875D01*
X154178713Y-56574318D01*
X154416018Y-56474170D01*
X154657062Y-56385062D01*
X154888966Y-56312627D01*
X154982333Y-56288090D01*
X155046165Y-56279875D01*
X155153038Y-56274095D01*
X155289586Y-56271163D01*
X155442441Y-56271495D01*
X155490333Y-56272311D01*
X155658971Y-56276822D01*
X155786178Y-56283737D01*
X155886966Y-56295201D01*
X155976348Y-56313358D01*
X156069336Y-56340353D01*
X156145139Y-56365837D01*
X156271555Y-56416665D01*
X156427498Y-56489853D01*
X156597716Y-56577184D01*
X156766953Y-56670441D01*
X156919958Y-56761405D01*
X157041476Y-56841861D01*
X157074053Y-56866258D01*
X157140585Y-56915986D01*
X157194485Y-56952444D01*
X157229239Y-57000925D01*
X157262508Y-57099584D01*
X157293333Y-57242159D01*
X157320758Y-57422386D01*
X157343823Y-57634002D01*
X157361572Y-57870744D01*
X157372801Y-58118432D01*
X157389898Y-58663531D01*
X157237394Y-58587998D01*
X157127675Y-58520671D01*
X157043328Y-58444244D01*
X157023505Y-58418074D01*
X156985913Y-58357116D01*
X156978748Y-58326976D01*
X157000994Y-58311596D01*
X157016450Y-58306439D01*
X157054583Y-58278752D01*
X157071923Y-58239766D01*
X157061462Y-58211609D01*
X157047515Y-58208333D01*
X157014102Y-58192017D01*
X156949535Y-58149351D01*
X156866319Y-58089760D01*
X156776959Y-58022669D01*
X156693962Y-57957503D01*
X156629833Y-57903687D01*
X156597076Y-57870646D01*
X156595487Y-57867659D01*
X156562432Y-57836225D01*
X156490457Y-57795035D01*
X156394724Y-57750496D01*
X156290394Y-57709014D01*
X156192626Y-57676997D01*
X156116583Y-57660852D01*
X156104256Y-57660066D01*
X156030770Y-57651651D01*
X156000841Y-57626587D01*
X155998423Y-57610277D01*
X155984202Y-57558415D01*
X155938880Y-57547093D01*
X155858062Y-57575637D01*
X155837915Y-57585727D01*
X155785647Y-57609896D01*
X155733246Y-57624392D01*
X155667328Y-57630213D01*
X155574507Y-57628357D01*
X155441398Y-57619822D01*
X155410968Y-57617566D01*
X155278495Y-57608710D01*
X155163778Y-57603015D01*
X155080326Y-57601030D01*
X155044079Y-57602665D01*
X154991673Y-57612670D01*
X154904973Y-57629300D01*
X154826568Y-57644372D01*
X154656692Y-57677060D01*
X154503236Y-57573791D01*
X154327567Y-57465427D01*
X154143360Y-57369090D01*
X153959981Y-57288189D01*
X153786797Y-57226134D01*
X153633177Y-57186333D01*
X153508487Y-57172195D01*
X153430690Y-57183476D01*
X153372753Y-57201536D01*
X153345707Y-57202464D01*
X153345445Y-57201447D01*
X153233354Y-57201447D01*
X153204639Y-57296052D01*
X153148550Y-57503890D01*
X153099570Y-57710112D01*
X153061680Y-57900375D01*
X153047456Y-57989826D01*
X153020968Y-58095809D01*
X152969566Y-58171692D01*
X152943544Y-58195604D01*
X152881826Y-58238752D01*
X152834396Y-58256843D01*
X152826836Y-58256042D01*
X152808696Y-58222081D01*
X152799918Y-58143712D01*
X152799765Y-58032063D01*
X152807497Y-57898260D01*
X152822376Y-57753428D01*
X152843663Y-57608696D01*
X152870621Y-57475188D01*
X152881516Y-57432222D01*
X152930120Y-57215085D01*
X152947354Y-57030607D01*
X152933763Y-56864891D01*
X152908015Y-56758524D01*
X152886690Y-56664491D01*
X152879982Y-56582141D01*
X152883158Y-56553913D01*
X152886111Y-56500444D01*
X152856472Y-56492091D01*
X152793730Y-56528878D01*
X152754867Y-56559906D01*
X152700194Y-56618161D01*
X152686724Y-56661012D01*
X152715204Y-56679978D01*
X152744456Y-56678026D01*
X152791357Y-56694614D01*
X152825775Y-56756997D01*
X152847254Y-56855824D01*
X152855340Y-56981741D01*
X152849577Y-57125396D01*
X152829511Y-57277437D01*
X152794686Y-57428512D01*
X152782862Y-57467400D01*
X152754269Y-57581474D01*
X152729612Y-57724770D01*
X152713395Y-57870069D01*
X152711421Y-57899339D01*
X152701964Y-58019159D01*
X152689279Y-58121362D01*
X152675541Y-58189928D01*
X152669961Y-58204877D01*
X152600807Y-58284470D01*
X152588933Y-58292214D01*
X153013639Y-58292214D01*
X153023230Y-58260990D01*
X153044872Y-58239621D01*
X153057218Y-58260876D01*
X153057429Y-58304935D01*
X153052051Y-58313579D01*
X153024909Y-58320155D01*
X153013639Y-58292214D01*
X152588933Y-58292214D01*
X152490941Y-58356117D01*
X152356078Y-58413297D01*
X152211933Y-58449485D01*
X152074220Y-58458161D01*
X152061790Y-58457297D01*
X151979599Y-58440463D01*
X151927973Y-58397585D01*
X151906883Y-58363555D01*
X151854670Y-58234490D01*
X151818921Y-58067045D01*
X151798761Y-57855563D01*
X151793222Y-57627625D01*
X151793742Y-57481742D01*
X151796289Y-57383105D01*
X151802342Y-57322516D01*
X151813384Y-57290779D01*
X151830894Y-57278696D01*
X151849667Y-57277000D01*
X151896069Y-57269055D01*
X151898490Y-57240849D01*
X151856617Y-57185824D01*
X151844747Y-57172986D01*
X151783383Y-57107667D01*
X151856810Y-57107667D01*
X151940762Y-57082297D01*
X152004575Y-57012350D01*
X152045125Y-56907065D01*
X152059290Y-56775682D01*
X152043946Y-56627442D01*
X152033852Y-56583846D01*
X151998878Y-56467606D01*
X151960565Y-56391254D01*
X151908221Y-56338715D01*
X151846068Y-56301472D01*
X151733864Y-56263336D01*
X151643241Y-56276682D01*
X151573504Y-56341976D01*
X151533345Y-56437389D01*
X151709175Y-56437389D01*
X151719568Y-56368616D01*
X151754189Y-56348749D01*
X151816311Y-56376796D01*
X151843693Y-56396620D01*
X151886679Y-56451671D01*
X151927023Y-56538825D01*
X151958907Y-56638898D01*
X151976509Y-56732703D01*
X151974011Y-56801056D01*
X151969633Y-56811796D01*
X151934380Y-56835028D01*
X151887127Y-56814899D01*
X151834724Y-56761254D01*
X151784017Y-56683937D01*
X151741854Y-56592791D01*
X151715085Y-56497661D01*
X151709175Y-56437389D01*
X151533345Y-56437389D01*
X151523961Y-56459682D01*
X151508491Y-56527600D01*
X151504243Y-56589707D01*
X151590481Y-56589707D01*
X151603461Y-56569430D01*
X151622605Y-56597955D01*
X151640531Y-56646151D01*
X151686088Y-56732406D01*
X151761491Y-56827754D01*
X151808418Y-56874719D01*
X151878317Y-56942056D01*
X151908938Y-56982873D01*
X151905381Y-57005524D01*
X151892614Y-57012559D01*
X151839806Y-57004577D01*
X151762564Y-56948308D01*
X151733880Y-56921393D01*
X151640844Y-56807196D01*
X151591622Y-56693026D01*
X151590481Y-56589707D01*
X151504243Y-56589707D01*
X151499438Y-56659942D01*
X151528677Y-56782361D01*
X151600926Y-56910541D01*
X151639205Y-56962184D01*
X151741588Y-57093555D01*
X151622660Y-56966555D01*
X151545588Y-56872657D01*
X151476825Y-56769505D01*
X151446713Y-56712555D01*
X151408323Y-56586315D01*
X151383714Y-56415255D01*
X151373385Y-56209416D01*
X151287680Y-56209416D01*
X151287584Y-56350325D01*
X151290864Y-56463859D01*
X151299287Y-56548206D01*
X151314607Y-56616985D01*
X151338582Y-56683813D01*
X151356117Y-56724727D01*
X151416387Y-56835371D01*
X151497632Y-56952925D01*
X151558278Y-57025367D01*
X151689545Y-57165701D01*
X151693964Y-57581184D01*
X151705483Y-57878665D01*
X151733182Y-58122323D01*
X151777132Y-58312433D01*
X151837404Y-58449268D01*
X151914068Y-58533102D01*
X151943034Y-58549208D01*
X151962470Y-58563104D01*
X151933515Y-58567401D01*
X151852748Y-58562472D01*
X151835556Y-58560923D01*
X151666918Y-58525101D01*
X151471909Y-58449087D01*
X151258348Y-58337597D01*
X151034058Y-58195350D01*
X150806858Y-58027061D01*
X150584570Y-57837448D01*
X150493190Y-57751260D01*
X150270195Y-57508011D01*
X150093253Y-57252892D01*
X149952128Y-56969858D01*
X149888498Y-56803463D01*
X149859537Y-56705313D01*
X149831150Y-56583048D01*
X149805434Y-56449814D01*
X149784488Y-56318752D01*
X149770410Y-56203008D01*
X149765300Y-56115726D01*
X149624818Y-56115726D01*
X149631923Y-56250785D01*
X149643610Y-56411909D01*
X149656922Y-56553001D01*
X149670474Y-56657831D01*
X149673639Y-56675956D01*
X149733877Y-56888453D01*
X149835944Y-57121889D01*
X149974655Y-57365964D01*
X150141557Y-57606083D01*
X150283800Y-57769935D01*
X150467935Y-57946343D01*
X150683473Y-58126822D01*
X150919928Y-58302887D01*
X151166815Y-58466052D01*
X151308192Y-58550035D01*
X151487316Y-58651848D01*
X151377642Y-58666559D01*
X151220436Y-58708616D01*
X151051915Y-58789214D01*
X150889940Y-58898578D01*
X150787490Y-58989551D01*
X150714634Y-59068151D01*
X150660978Y-59135869D01*
X150636616Y-59179762D01*
X150636111Y-59183666D01*
X150622909Y-59228818D01*
X150588550Y-59304731D01*
X150547686Y-59381869D01*
X150495951Y-59485395D01*
X150482460Y-59548279D01*
X150508807Y-59572804D01*
X150576587Y-59561258D01*
X150652264Y-59531749D01*
X150740680Y-59492726D01*
X150787764Y-59468728D01*
X150803805Y-59451948D01*
X150799092Y-59434578D01*
X150793160Y-59424845D01*
X150753114Y-59410280D01*
X150701754Y-59423757D01*
X150638252Y-59441785D01*
X150618936Y-59429808D01*
X150643955Y-59386307D01*
X150712878Y-59310352D01*
X150798099Y-59234946D01*
X150879619Y-59194386D01*
X150956192Y-59178237D01*
X151047385Y-59157775D01*
X151085889Y-59127927D01*
X151087667Y-59118084D01*
X151077392Y-59094209D01*
X151038413Y-59086022D01*
X150958496Y-59091512D01*
X150939500Y-59093715D01*
X150791333Y-59111480D01*
X150894497Y-59019057D01*
X150949247Y-58972524D01*
X150995881Y-58945798D01*
X151051921Y-58934432D01*
X151134889Y-58933981D01*
X151215435Y-58937631D01*
X151327283Y-58941436D01*
X151392236Y-58938050D01*
X151419529Y-58926233D01*
X151420524Y-58910092D01*
X151387101Y-58883449D01*
X151317763Y-58861509D01*
X151283031Y-58855666D01*
X151158222Y-58839776D01*
X151263149Y-58792166D01*
X151368111Y-58761286D01*
X151502320Y-58745634D01*
X151547728Y-58744555D01*
X151652797Y-58735583D01*
X151799031Y-58710657D01*
X151974423Y-58672770D01*
X152166969Y-58624912D01*
X152364660Y-58570073D01*
X152555493Y-58511243D01*
X152727460Y-58451412D01*
X152732986Y-58449338D01*
X152835135Y-58412623D01*
X152902941Y-58395509D01*
X152954248Y-58396091D01*
X153006902Y-58412462D01*
X153021671Y-58418508D01*
X153085439Y-58455577D01*
X153118415Y-58495114D01*
X153119667Y-58502494D01*
X153094562Y-58537943D01*
X153025977Y-58586313D01*
X152924004Y-58642751D01*
X152798737Y-58702406D01*
X152660270Y-58760427D01*
X152518695Y-58811962D01*
X152402044Y-58847424D01*
X152140992Y-58935735D01*
X151929560Y-59046690D01*
X151766519Y-59180190D01*
X151699737Y-59239184D01*
X151640001Y-59275375D01*
X151618353Y-59280778D01*
X151574925Y-59295853D01*
X151572848Y-59331209D01*
X151609256Y-59372043D01*
X151639328Y-59389137D01*
X151724167Y-59417831D01*
X151786100Y-59420908D01*
X151815828Y-59401239D01*
X151804051Y-59361696D01*
X151787952Y-59343240D01*
X151777303Y-59299010D01*
X151812964Y-59241953D01*
X151887587Y-59176768D01*
X151993827Y-59108152D01*
X152124336Y-59040803D01*
X152271769Y-58979416D01*
X152428780Y-58928691D01*
X152441810Y-58925160D01*
X152584830Y-58881108D01*
X152735937Y-58825213D01*
X152865947Y-58768413D01*
X152883653Y-58759556D01*
X153016524Y-58697672D01*
X153120157Y-58667414D01*
X153210521Y-58666610D01*
X153303589Y-58693092D01*
X153320831Y-58700153D01*
X153410686Y-58753578D01*
X153505602Y-58834483D01*
X153594126Y-58929800D01*
X153664807Y-59026464D01*
X153706192Y-59111407D01*
X153712333Y-59146842D01*
X153688534Y-59213065D01*
X153622110Y-59298966D01*
X153520525Y-59398203D01*
X153391243Y-59504430D01*
X153241725Y-59611304D01*
X153079437Y-59712479D01*
X152986479Y-59763903D01*
X152879002Y-59818687D01*
X152811192Y-59847529D01*
X152774107Y-59853176D01*
X152758805Y-59838377D01*
X152757764Y-59834210D01*
X152737880Y-59794638D01*
X152725247Y-59788778D01*
X152700077Y-59813365D01*
X152672890Y-59874001D01*
X152650578Y-59950997D01*
X152640036Y-60024666D01*
X152639889Y-60032575D01*
X152624880Y-60123051D01*
X152585529Y-60238669D01*
X152530351Y-60358677D01*
X152467861Y-60462320D01*
X152458208Y-60475401D01*
X152358639Y-60577647D01*
X152211914Y-60688521D01*
X152025669Y-60803101D01*
X151807542Y-60916462D01*
X151689573Y-60970854D01*
X151374258Y-61110489D01*
X151301486Y-61000524D01*
X151238559Y-60928382D01*
X151153496Y-60858712D01*
X151064579Y-60804180D01*
X150990088Y-60777451D01*
X150978204Y-60776555D01*
X150946937Y-60798201D01*
X150903354Y-60851861D01*
X150892401Y-60868278D01*
X150837162Y-60948787D01*
X150782419Y-61020348D01*
X150778913Y-61024524D01*
X150741617Y-61064084D01*
X150708295Y-61074140D01*
X150656953Y-61056629D01*
X150618684Y-61038635D01*
X150537019Y-60992806D01*
X150509842Y-60956356D01*
X150536969Y-60924629D01*
X150612985Y-60894587D01*
X150708162Y-60857439D01*
X150794089Y-60812210D01*
X150808564Y-60802556D01*
X150866363Y-60744397D01*
X150909047Y-60670655D01*
X150932836Y-60595514D01*
X150933952Y-60533157D01*
X150908617Y-60497765D01*
X150890688Y-60494333D01*
X150868066Y-60518580D01*
X150848556Y-60575456D01*
X150810132Y-60663423D01*
X150732663Y-60737434D01*
X150608998Y-60803396D01*
X150539373Y-60830929D01*
X150367524Y-60913492D01*
X150222084Y-61029166D01*
X150089969Y-61188750D01*
X150069436Y-61218717D01*
X150015226Y-61292969D01*
X149971851Y-61340307D01*
X149949491Y-61350528D01*
X149935328Y-61306485D01*
X149930682Y-61224219D01*
X149934802Y-61121011D01*
X149946936Y-61014140D01*
X149966332Y-60920887D01*
X149968501Y-60913443D01*
X150027423Y-60773539D01*
X150117013Y-60628126D01*
X150226567Y-60489727D01*
X150345379Y-60370868D01*
X150462744Y-60284073D01*
X150535569Y-60249985D01*
X150608022Y-60216262D01*
X150634128Y-60184249D01*
X150613551Y-60163353D01*
X150545954Y-60162982D01*
X150538648Y-60164097D01*
X150434681Y-60202113D01*
X150315583Y-60279964D01*
X150193839Y-60388259D01*
X150100392Y-60493698D01*
X150011243Y-60606257D01*
X149808622Y-60468172D01*
X149691700Y-60378996D01*
X149555194Y-60259677D01*
X149407982Y-60119556D01*
X149258941Y-59967972D01*
X149116949Y-59814266D01*
X148990884Y-59667775D01*
X148889624Y-59537841D01*
X148822046Y-59433804D01*
X148817784Y-59425768D01*
X148761737Y-59276732D01*
X148721089Y-59081328D01*
X148695959Y-58847522D01*
X148686464Y-58583283D01*
X148526518Y-58583283D01*
X148526457Y-58594453D01*
X148529839Y-58778135D01*
X148537938Y-58930729D01*
X148548637Y-59025395D01*
X148566727Y-59137245D01*
X148581756Y-59233903D01*
X148590748Y-59296183D01*
X148591239Y-59300095D01*
X148609883Y-59370270D01*
X148640252Y-59441206D01*
X148721648Y-59608090D01*
X148815044Y-59819206D01*
X148835220Y-59867723D01*
X148931393Y-59867723D01*
X148949212Y-59867479D01*
X148996039Y-59910132D01*
X149072203Y-59994109D01*
X149078127Y-60000903D01*
X149185640Y-60118016D01*
X149310718Y-60244815D01*
X149428451Y-60356153D01*
X149441956Y-60368214D01*
X149550194Y-60461243D01*
X149663922Y-60554520D01*
X149761962Y-60630764D01*
X149779534Y-60643689D01*
X149924846Y-60748949D01*
X149884079Y-60882697D01*
X149857600Y-60997125D01*
X149841488Y-61118701D01*
X149839786Y-61150517D01*
X149836379Y-61229947D01*
X149827437Y-61262249D01*
X149806505Y-61256730D01*
X149781079Y-61235184D01*
X149684948Y-61134696D01*
X149571949Y-60992942D01*
X149448790Y-60819942D01*
X149322181Y-60625714D01*
X149198832Y-60420277D01*
X149085452Y-60213649D01*
X149048694Y-60141555D01*
X148981463Y-60003189D01*
X148942253Y-59912436D01*
X148931393Y-59867723D01*
X148835220Y-59867723D01*
X148882780Y-59982085D01*
X149002162Y-60240415D01*
X149153383Y-60512501D01*
X149327662Y-60785695D01*
X149516219Y-61047348D01*
X149710272Y-61284811D01*
X149874333Y-61457351D01*
X150010129Y-61457351D01*
X150101576Y-61321564D01*
X150192781Y-61192485D01*
X150263309Y-61109269D01*
X150318502Y-61067685D01*
X150363699Y-61063505D01*
X150398471Y-61086427D01*
X150439950Y-61115487D01*
X150510008Y-61154513D01*
X150535372Y-61167217D01*
X150644624Y-61220358D01*
X150221028Y-61662174D01*
X150115578Y-61559762D01*
X150010129Y-61457351D01*
X149874333Y-61457351D01*
X149901040Y-61485438D01*
X149970966Y-61549493D01*
X150160995Y-61715652D01*
X150013263Y-61864943D01*
X150558075Y-61864943D01*
X150575539Y-61846862D01*
X150628497Y-61806899D01*
X150699186Y-61757985D01*
X150782798Y-61696559D01*
X150891329Y-61609258D01*
X151008858Y-61509171D01*
X151090478Y-61436207D01*
X151209287Y-61330857D01*
X151308593Y-61253831D01*
X151407920Y-61192677D01*
X151526793Y-61134941D01*
X151635975Y-61088276D01*
X151779033Y-61025746D01*
X151923302Y-60957399D01*
X152048691Y-60893003D01*
X152112942Y-60856439D01*
X152207889Y-60798546D01*
X152264195Y-60765937D01*
X152291863Y-60755264D01*
X152300896Y-60763181D01*
X152301299Y-60786341D01*
X152301222Y-60793455D01*
X152281833Y-60840221D01*
X152233586Y-60900835D01*
X152216556Y-60917667D01*
X152163459Y-60972046D01*
X152134001Y-61011497D01*
X152131889Y-61018232D01*
X152118674Y-61053089D01*
X152084921Y-61118454D01*
X152059171Y-61163792D01*
X152012164Y-61236352D01*
X151978738Y-61264952D01*
X151949597Y-61257234D01*
X151947518Y-61255564D01*
X151895707Y-61238045D01*
X151857200Y-61264201D01*
X151849667Y-61296098D01*
X151828686Y-61356802D01*
X151773580Y-61436855D01*
X151696104Y-61522724D01*
X151608012Y-61600879D01*
X151549122Y-61642057D01*
X151438613Y-61707140D01*
X151371964Y-61739726D01*
X151346932Y-61739885D01*
X151361273Y-61707684D01*
X151410076Y-61646302D01*
X151473666Y-61562723D01*
X151507914Y-61497689D01*
X151509027Y-61459904D01*
X151493980Y-61453889D01*
X151465989Y-61471391D01*
X151408799Y-61517320D01*
X151334680Y-61581812D01*
X151333176Y-61583163D01*
X151180486Y-61705260D01*
X151034256Y-61785774D01*
X150875615Y-61833560D01*
X150763437Y-61850561D01*
X150664925Y-61860325D01*
X150591676Y-61865558D01*
X150558528Y-61865220D01*
X150558075Y-61864943D01*
X150013263Y-61864943D01*
X149996819Y-61881560D01*
X149915562Y-61966577D01*
X149870149Y-62023656D01*
X149854506Y-62062655D01*
X149862555Y-62093433D01*
X149864404Y-62096401D01*
X149906180Y-62131172D01*
X149972060Y-62136590D01*
X150068422Y-62111511D01*
X150201645Y-62054792D01*
X150262640Y-62025016D01*
X150481782Y-61915332D01*
X150567955Y-61966857D01*
X150768082Y-61966857D01*
X150779893Y-61952413D01*
X150910857Y-61918199D01*
X150998227Y-61902102D01*
X151051602Y-61903353D01*
X151080580Y-61921185D01*
X151085062Y-61928010D01*
X151102972Y-61944126D01*
X151136474Y-61943476D01*
X151194736Y-61923160D01*
X151286927Y-61880281D01*
X151373651Y-61836768D01*
X151490537Y-61775027D01*
X151593484Y-61716576D01*
X151668650Y-61669488D01*
X151696263Y-61648606D01*
X151747779Y-61609140D01*
X151781050Y-61595000D01*
X151809686Y-61574909D01*
X151865392Y-61520809D01*
X151938993Y-61441960D01*
X151990778Y-61383333D01*
X152070289Y-61293713D01*
X152136814Y-61222895D01*
X152181480Y-61180096D01*
X152194499Y-61171667D01*
X152212109Y-61148251D01*
X152247346Y-61086482D01*
X152293798Y-60999076D01*
X152345051Y-60898746D01*
X152394694Y-60798211D01*
X152436313Y-60710184D01*
X152463497Y-60647381D01*
X152470556Y-60624277D01*
X152485060Y-60596747D01*
X152522790Y-60536557D01*
X152567252Y-60469204D01*
X152628805Y-60358940D01*
X152679914Y-60234952D01*
X152698856Y-60169529D01*
X152733764Y-60013545D01*
X152981455Y-59882948D01*
X153114419Y-59806107D01*
X153260031Y-59710892D01*
X153406574Y-59606125D01*
X153542332Y-59500628D01*
X153655588Y-59403225D01*
X153734626Y-59322737D01*
X153748151Y-59305634D01*
X153788836Y-59228996D01*
X153806811Y-59157487D01*
X153812112Y-59102653D01*
X153817593Y-59083242D01*
X153832978Y-59105861D01*
X153864563Y-59163210D01*
X153883114Y-59198948D01*
X153926634Y-59311993D01*
X153954645Y-59453998D01*
X153967795Y-59632042D01*
X153966725Y-59853205D01*
X153958494Y-60027054D01*
X153940357Y-60230750D01*
X153910991Y-60446526D01*
X153873220Y-60659522D01*
X153829870Y-60854880D01*
X153783765Y-61017739D01*
X153755516Y-61094726D01*
X153685281Y-61237267D01*
X153587534Y-61401547D01*
X153474381Y-61569100D01*
X153357927Y-61721460D01*
X153302180Y-61786245D01*
X153177002Y-61913743D01*
X153039787Y-62030289D01*
X152880374Y-62143025D01*
X152688599Y-62259091D01*
X152454299Y-62385629D01*
X152434780Y-62395714D01*
X152136498Y-62549429D01*
X152534757Y-62549429D01*
X152535073Y-62531576D01*
X152569241Y-62504328D01*
X152643819Y-62461440D01*
X152702846Y-62429768D01*
X152895403Y-62317363D01*
X153086937Y-62187395D01*
X153265480Y-62049272D01*
X153419063Y-61912404D01*
X153535719Y-61786200D01*
X153557249Y-61758052D01*
X153617861Y-61672240D01*
X153662711Y-61603952D01*
X153683548Y-61565866D01*
X153684111Y-61563154D01*
X153697401Y-61530047D01*
X153732217Y-61463156D01*
X153780250Y-61378300D01*
X153901010Y-61126854D01*
X153997458Y-60828720D01*
X154068470Y-60488674D01*
X154112921Y-60111489D01*
X154124614Y-59915778D01*
X154142381Y-59492444D01*
X154265803Y-59611703D01*
X154452752Y-59758147D01*
X154661492Y-59855560D01*
X154895975Y-59905216D01*
X155160152Y-59908393D01*
X155179889Y-59906905D01*
X155307779Y-59892849D01*
X155389356Y-59875495D01*
X155419694Y-59855914D01*
X155419778Y-59854801D01*
X155398310Y-59817638D01*
X155345065Y-59764989D01*
X155276785Y-59710215D01*
X155210210Y-59666675D01*
X155162081Y-59647730D01*
X155160232Y-59647667D01*
X155135999Y-59661245D01*
X155153316Y-59704215D01*
X155202667Y-59767611D01*
X155229082Y-59804760D01*
X155211347Y-59816307D01*
X155187710Y-59817000D01*
X155083879Y-59795852D01*
X154969682Y-59739909D01*
X154867394Y-59660426D01*
X154857109Y-59649978D01*
X154800934Y-59596217D01*
X154759425Y-59565656D01*
X154751275Y-59563000D01*
X154728468Y-59582385D01*
X154738724Y-59632374D01*
X154778370Y-59700717D01*
X154801398Y-59730168D01*
X154842941Y-59786499D01*
X154843935Y-59811920D01*
X154801340Y-59807850D01*
X154712114Y-59775712D01*
X154707738Y-59773947D01*
X154641009Y-59738193D01*
X154587996Y-59683995D01*
X154535113Y-59596123D01*
X154516667Y-59559754D01*
X154460439Y-59451666D01*
X154420216Y-59389615D01*
X154390971Y-59367258D01*
X154370415Y-59375289D01*
X154367701Y-59408844D01*
X154388756Y-59483968D01*
X154433205Y-59601072D01*
X154441236Y-59639296D01*
X154421483Y-59638842D01*
X154380456Y-59605867D01*
X154324667Y-59546526D01*
X154260625Y-59466973D01*
X154198910Y-59379555D01*
X154073914Y-59210869D01*
X153910643Y-59022483D01*
X153718701Y-58824593D01*
X153507690Y-58627394D01*
X153411859Y-58543965D01*
X153287191Y-58431474D01*
X153205843Y-58340705D01*
X153162960Y-58263966D01*
X153153686Y-58193568D01*
X153162762Y-58149489D01*
X153187534Y-58107452D01*
X153229224Y-58101409D01*
X153295552Y-58132936D01*
X153382026Y-58194222D01*
X153456878Y-58247937D01*
X153515494Y-58283813D01*
X153539207Y-58293000D01*
X153568987Y-58311605D01*
X153630265Y-58362412D01*
X153714431Y-58437912D01*
X153812873Y-58530595D01*
X153824498Y-58541800D01*
X154013217Y-58711034D01*
X154182831Y-58834044D01*
X154339876Y-58914890D01*
X154490893Y-58957631D01*
X154495500Y-58958383D01*
X154576545Y-58979872D01*
X154614076Y-59009214D01*
X154615445Y-59016274D01*
X154632583Y-59051220D01*
X154668341Y-59045736D01*
X154687132Y-59024947D01*
X154697489Y-58973300D01*
X154688713Y-58904173D01*
X154666705Y-58840024D01*
X154637368Y-58803309D01*
X154628277Y-58801000D01*
X154592494Y-58823790D01*
X154587222Y-58845576D01*
X154575552Y-58874398D01*
X154531340Y-58877604D01*
X154495500Y-58871388D01*
X154321819Y-58810457D01*
X154134731Y-58695819D01*
X153933660Y-58527106D01*
X153895778Y-58490811D01*
X153795421Y-58396468D01*
X153700748Y-58313717D01*
X153624033Y-58252953D01*
X153585333Y-58227894D01*
X153512480Y-58183091D01*
X153426328Y-58119249D01*
X153390406Y-58089382D01*
X153315220Y-58012122D01*
X153275800Y-57933552D01*
X153262033Y-57868110D01*
X153259901Y-57716068D01*
X153288794Y-57550277D01*
X153342962Y-57399810D01*
X153361537Y-57364963D01*
X153393675Y-57314433D01*
X153426147Y-57287582D01*
X153475962Y-57278390D01*
X153560132Y-57280838D01*
X153593504Y-57282872D01*
X153680050Y-57291950D01*
X153762346Y-57310842D01*
X153854369Y-57344477D01*
X153970102Y-57397784D01*
X154087393Y-57456999D01*
X154255145Y-57545120D01*
X154376755Y-57613572D01*
X154457387Y-57666213D01*
X154502208Y-57706900D01*
X154516382Y-57739492D01*
X154505074Y-57767847D01*
X154504509Y-57768536D01*
X154481235Y-57811797D01*
X154505690Y-57828387D01*
X154578409Y-57818264D01*
X154699929Y-57781386D01*
X154798889Y-57745492D01*
X154962405Y-57707252D01*
X155148546Y-57701147D01*
X155334234Y-57726187D01*
X155387421Y-57743628D01*
X155633418Y-57743628D01*
X155752376Y-57711555D01*
X155826651Y-57691266D01*
X155873504Y-57677968D01*
X155880291Y-57675797D01*
X155880448Y-57695024D01*
X155871938Y-57726650D01*
X155866632Y-57757131D01*
X155883880Y-57771135D01*
X155935536Y-57771913D01*
X156011757Y-57764972D01*
X156137715Y-57761247D01*
X156240417Y-57782912D01*
X156281165Y-57799386D01*
X156357064Y-57840489D01*
X156391365Y-57874031D01*
X156380061Y-57894368D01*
X156351111Y-57897889D01*
X156314284Y-57920671D01*
X156308778Y-57942703D01*
X156319531Y-57970754D01*
X156360979Y-57976652D01*
X156415147Y-57969546D01*
X156476549Y-57963840D01*
X156531293Y-57974660D01*
X156596091Y-58008284D01*
X156687655Y-58070989D01*
X156690313Y-58072899D01*
X156859111Y-58194222D01*
X156767389Y-58203066D01*
X156707297Y-58220914D01*
X156676035Y-58251173D01*
X156679911Y-58279860D01*
X156725229Y-58292992D01*
X156726831Y-58293000D01*
X156776953Y-58312560D01*
X156840376Y-58361480D01*
X156860887Y-58382020D01*
X156907000Y-58434994D01*
X156914024Y-58455010D01*
X156887333Y-58448877D01*
X156832802Y-58429818D01*
X156743182Y-58400809D01*
X156637484Y-58367997D01*
X156633333Y-58366736D01*
X156512091Y-58322042D01*
X156389683Y-58258648D01*
X156250794Y-58168039D01*
X156167667Y-58107855D01*
X156046383Y-58019290D01*
X155926797Y-57934391D01*
X155824472Y-57864081D01*
X155766487Y-57826290D01*
X155633418Y-57743628D01*
X155387421Y-57743628D01*
X155482441Y-57774786D01*
X155605256Y-57838338D01*
X155754285Y-57926622D01*
X155912233Y-58028413D01*
X156061803Y-58132487D01*
X156185702Y-58227619D01*
X156204543Y-58243440D01*
X156311974Y-58335333D01*
X156261852Y-58434111D01*
X156232177Y-58517068D01*
X156214690Y-58614951D01*
X156209754Y-58712041D01*
X156217730Y-58792618D01*
X156238978Y-58840962D01*
X156252333Y-58847932D01*
X156302749Y-58854242D01*
X156387436Y-58864053D01*
X156454118Y-58871496D01*
X156544866Y-58883449D01*
X156594574Y-58900081D01*
X156618439Y-58930911D01*
X156631075Y-58982333D01*
X156638071Y-59061390D01*
X156635624Y-59081440D01*
X156788556Y-59081440D01*
X156788556Y-58908927D01*
X156908500Y-58928775D01*
X156987253Y-58943751D01*
X157040821Y-58957490D01*
X157049611Y-58961143D01*
X157068424Y-58996663D01*
X157069501Y-59005623D01*
X157170478Y-59005623D01*
X157192684Y-59002511D01*
X157219044Y-59009016D01*
X157285950Y-59022919D01*
X157320203Y-59026392D01*
X157342616Y-59040941D01*
X157345563Y-59091301D01*
X157338114Y-59146722D01*
X157318588Y-59244420D01*
X157298396Y-59291245D01*
X157274145Y-59286288D01*
X157242439Y-59228640D01*
X157199885Y-59117392D01*
X157196882Y-59108906D01*
X157172801Y-59036928D01*
X157170478Y-59005623D01*
X157069501Y-59005623D01*
X157071398Y-59021388D01*
X157083009Y-59075090D01*
X157111536Y-59154395D01*
X157126462Y-59189055D01*
X157180907Y-59309000D01*
X157057124Y-59309000D01*
X156961325Y-59302621D01*
X156877187Y-59286771D01*
X156860948Y-59281476D01*
X156820779Y-59261379D01*
X156799046Y-59229774D01*
X156790168Y-59171239D01*
X156788556Y-59081440D01*
X156635624Y-59081440D01*
X156630622Y-59122421D01*
X156630295Y-59123298D01*
X156613020Y-59153247D01*
X156586522Y-59145532D01*
X156552115Y-59115939D01*
X156487160Y-59064275D01*
X156405808Y-59009186D01*
X156393445Y-59001624D01*
X156301308Y-58961724D01*
X156204213Y-58943561D01*
X156116501Y-58946573D01*
X156052516Y-58970196D01*
X156026598Y-59013868D01*
X156026556Y-59016020D01*
X156040657Y-59040562D01*
X156090699Y-59044068D01*
X156135684Y-59038217D01*
X156213894Y-59032748D01*
X156285594Y-59047799D01*
X156364561Y-59089273D01*
X156464573Y-59163073D01*
X156506333Y-59197000D01*
X156687743Y-59310944D01*
X156893161Y-59377524D01*
X157060029Y-59393667D01*
X157146291Y-59397821D01*
X157206743Y-59408474D01*
X157223226Y-59417401D01*
X157213193Y-59449352D01*
X157163903Y-59494579D01*
X157088011Y-59544197D01*
X156998172Y-59589319D01*
X156953288Y-59606957D01*
X156817790Y-59637067D01*
X156650603Y-59648348D01*
X156473054Y-59641349D01*
X156306468Y-59616618D01*
X156204003Y-59587671D01*
X156105762Y-59546488D01*
X156022080Y-59502584D01*
X155982403Y-59474782D01*
X155922742Y-59429511D01*
X155891862Y-59429930D01*
X155885445Y-59459303D01*
X155911548Y-59517707D01*
X155982591Y-59578714D01*
X156087672Y-59636693D01*
X156215892Y-59686013D01*
X156356347Y-59721042D01*
X156407556Y-59729036D01*
X156548667Y-59747335D01*
X156540370Y-59958556D01*
X156515948Y-60194804D01*
X156459359Y-60464304D01*
X156369566Y-60771485D01*
X156308311Y-60950660D01*
X156252088Y-61101111D01*
X156423254Y-61101111D01*
X156493997Y-60889444D01*
X156581455Y-60600429D01*
X156649983Y-60317182D01*
X156695045Y-60058976D01*
X156701210Y-60008784D01*
X156714854Y-59902415D01*
X156728907Y-59817541D01*
X156740650Y-59770194D01*
X156742161Y-59767126D01*
X156778850Y-59745200D01*
X156848068Y-59725744D01*
X156865541Y-59722604D01*
X156957360Y-59698625D01*
X157062126Y-59658643D01*
X157099000Y-59641286D01*
X157172670Y-59608053D01*
X157222514Y-59593085D01*
X157234400Y-59595255D01*
X157227737Y-59627023D01*
X157203378Y-59700055D01*
X157165186Y-59803451D01*
X157117524Y-59925062D01*
X157049576Y-60080099D01*
X156963531Y-60255441D01*
X156866281Y-60438880D01*
X156764717Y-60618209D01*
X156665730Y-60781218D01*
X156576214Y-60915701D01*
X156509373Y-61002333D01*
X156423254Y-61101111D01*
X156252088Y-61101111D01*
X156236835Y-61141927D01*
X156172855Y-61289381D01*
X156110024Y-61403927D01*
X156041995Y-61496473D01*
X155962420Y-61577926D01*
X155923489Y-61611906D01*
X155741251Y-61747717D01*
X155514178Y-61888974D01*
X155252913Y-62030711D01*
X154968097Y-62167962D01*
X154670371Y-62295761D01*
X154370377Y-62409141D01*
X154078757Y-62503138D01*
X153922786Y-62545531D01*
X153836041Y-62564101D01*
X153739345Y-62577430D01*
X153622348Y-62586164D01*
X153474699Y-62590950D01*
X153286050Y-62592434D01*
X153176111Y-62592155D01*
X153001521Y-62590050D01*
X152842998Y-62585795D01*
X152710479Y-62579843D01*
X152613897Y-62572645D01*
X152563187Y-62564657D01*
X152561735Y-62564129D01*
X152534757Y-62549429D01*
X152136498Y-62549429D01*
X152074450Y-62581404D01*
X151813892Y-62485216D01*
X151623135Y-62411692D01*
X151437357Y-62334390D01*
X151262644Y-62256445D01*
X151105084Y-62180995D01*
X150970761Y-62111174D01*
X150865762Y-62050121D01*
X150796174Y-62000970D01*
X150768082Y-61966857D01*
X150567955Y-61966857D01*
X150622447Y-61999439D01*
X150732889Y-62066312D01*
X150852889Y-62140184D01*
X150904222Y-62172228D01*
X151073981Y-62267652D01*
X151283505Y-62368016D01*
X151517206Y-62467234D01*
X151759491Y-62559215D01*
X151994772Y-62637873D01*
X152207457Y-62697118D01*
X152300883Y-62717642D01*
X152434987Y-62736967D01*
X152606597Y-62751670D01*
X152804531Y-62761753D01*
X153017608Y-62767218D01*
X153234647Y-62768067D01*
X153444466Y-62764303D01*
X153444466Y-62764303D01*
G37*
X153444466Y-62764303D02*
X153635885Y-62755926D01*
X153797722Y-62742940D01*
X153918796Y-62725347D01*
X153952222Y-62717331D01*
X154287090Y-62615740D01*
X154600934Y-62508284D01*
X154884428Y-62398513D01*
X155128247Y-62289982D01*
X155278667Y-62211983D01*
X155384986Y-62152871D01*
X155489249Y-62095959D01*
X155555719Y-62060509D01*
X155629995Y-62015698D01*
X155728763Y-61948211D01*
X155832912Y-61871214D01*
X155852052Y-61856344D01*
X155949753Y-61780968D01*
X156039921Y-61713519D01*
X156106227Y-61666162D01*
X156116815Y-61659112D01*
X156180652Y-61604220D01*
X156221024Y-61548172D01*
X156247615Y-61504324D01*
X156301699Y-61425523D01*
X156376337Y-61321542D01*
X156464589Y-61202154D01*
X156501797Y-61152737D01*
X156614043Y-60998060D01*
X156733527Y-60822803D01*
X156846062Y-60648355D01*
X156937460Y-60496108D01*
X156938467Y-60494333D01*
X157007572Y-60363842D01*
X157081188Y-60210285D01*
X157155095Y-60044168D01*
X157225070Y-59875999D01*
X157286892Y-59716282D01*
X157336340Y-59575525D01*
X157369190Y-59464234D01*
X157381221Y-59392914D01*
X157381222Y-59392505D01*
X157387700Y-59328006D01*
X157403919Y-59246469D01*
X157425057Y-59166295D01*
X157446293Y-59105883D01*
X157462184Y-59083557D01*
X157497181Y-59090526D01*
X157568926Y-59108168D01*
X157635222Y-59125555D01*
X157774282Y-59158235D01*
X157867928Y-59167941D01*
X157922540Y-59154145D01*
X157944495Y-59116319D01*
X157945667Y-59099842D01*
X157928078Y-59040298D01*
X157872204Y-58972922D01*
X157773382Y-58893295D01*
X157626949Y-58796997D01*
X157624734Y-58795630D01*
X157473904Y-58702596D01*
X157457277Y-58123853D01*
X157448754Y-57885018D01*
X157437502Y-57688281D01*
X157422187Y-57519314D01*
X157401477Y-57363790D01*
X157374038Y-57207379D01*
X157370123Y-57187328D01*
X157341420Y-57047849D01*
X157313961Y-56925287D01*
X157290684Y-56832060D01*
X157274524Y-56780590D01*
X157273356Y-56778106D01*
X157250132Y-56728083D01*
X157212717Y-56642852D01*
X157168527Y-56539350D01*
X157160868Y-56521141D01*
X157116413Y-56424150D01*
X157050813Y-56292472D01*
X156971342Y-56140189D01*
X156885278Y-55981380D01*
X156839973Y-55900252D01*
X156745848Y-55736339D01*
X156667513Y-55608731D01*
X156594699Y-55503667D01*
X156517135Y-55407385D01*
X156424551Y-55306121D01*
X156308106Y-55187546D01*
X155906306Y-54818023D01*
X155491762Y-54501548D01*
X155060375Y-54235388D01*
X154608048Y-54016812D01*
X154465897Y-53959430D01*
X154366727Y-53924924D01*
X154285340Y-53903452D01*
X154238147Y-53899273D01*
X154236216Y-53899859D01*
X154195689Y-53901452D01*
X154110640Y-53895791D01*
X153992379Y-53883906D01*
X153852219Y-53866828D01*
X153807209Y-53860793D01*
X153540105Y-53831310D01*
X153263506Y-53813484D01*
X152993176Y-53807626D01*
X152744881Y-53814046D01*
X152534385Y-53833057D01*
X152518295Y-53835329D01*
X152319634Y-53866722D01*
X152138028Y-53899910D01*
X151983200Y-53932823D01*
X151864877Y-53963392D01*
X151792782Y-53989547D01*
X151792247Y-53989820D01*
X151754571Y-54004681D01*
X152077300Y-54004681D01*
X152110758Y-53988259D01*
X152184721Y-53971285D01*
X152304802Y-53950391D01*
X152417903Y-53931858D01*
X152519246Y-53919946D01*
X152653408Y-53910911D01*
X152810439Y-53904715D01*
X152980392Y-53901318D01*
X153153316Y-53900679D01*
X153319262Y-53902760D01*
X153468283Y-53907521D01*
X153590428Y-53914922D01*
X153675750Y-53924924D01*
X153713867Y-53937023D01*
X153705591Y-53957771D01*
X153641670Y-53980219D01*
X153550703Y-53999255D01*
X153426058Y-54025705D01*
X153277428Y-54063495D01*
X153119469Y-54108210D01*
X153076228Y-54121589D01*
X153698867Y-54121589D01*
X153839656Y-54102519D01*
X153926656Y-54089643D01*
X153990890Y-54078162D01*
X154008667Y-54073786D01*
X154071117Y-54064963D01*
X154161811Y-54064646D01*
X154253359Y-54071800D01*
X154318372Y-54085391D01*
X154318662Y-54085504D01*
X154348562Y-54101833D01*
X154335535Y-54117251D01*
X154276328Y-54138377D01*
X154128046Y-54174531D01*
X153984191Y-54190944D01*
X153861008Y-54186778D01*
X153779778Y-54163983D01*
X153698867Y-54121589D01*
X153076228Y-54121589D01*
X152966842Y-54155433D01*
X152834203Y-54200751D01*
X152736211Y-54239747D01*
X152710445Y-54252345D01*
X152621666Y-54294896D01*
X152541111Y-54326985D01*
X152484871Y-54340784D01*
X152442241Y-54328781D01*
X152392631Y-54282750D01*
X152371778Y-54259329D01*
X152293786Y-54183483D01*
X152198392Y-54107736D01*
X152163815Y-54084319D01*
X152109442Y-54049343D01*
X152078733Y-54023919D01*
X152077300Y-54004681D01*
X151754571Y-54004681D01*
X151713254Y-54020978D01*
X151621840Y-54045149D01*
X151619696Y-54045557D01*
X151518675Y-54064508D01*
X151451152Y-53845655D01*
X151416381Y-53742756D01*
X151383804Y-53663195D01*
X151359167Y-53620556D01*
X151354451Y-53617076D01*
X151310521Y-53624220D01*
X151275033Y-53644087D01*
X151248319Y-53688676D01*
X151222248Y-53773452D01*
X151199604Y-53882195D01*
X151183170Y-53998690D01*
X151175731Y-54106717D01*
X151179893Y-54186671D01*
X151539222Y-54186671D01*
X151563851Y-54161289D01*
X151625568Y-54132022D01*
X151706116Y-54106081D01*
X151780288Y-54091455D01*
X151798830Y-54106413D01*
X151931979Y-54106413D01*
X151955878Y-54093005D01*
X152018156Y-54111040D01*
X152055184Y-54126076D01*
X152122555Y-54165521D01*
X152201926Y-54227602D01*
X152280248Y-54299864D01*
X152344469Y-54369853D01*
X152381541Y-54425115D01*
X152385889Y-54441685D01*
X152362955Y-54479196D01*
X152306943Y-54525375D01*
X152237042Y-54567575D01*
X152172437Y-54593148D01*
X152151967Y-54595889D01*
X152114031Y-54569908D01*
X152088296Y-54504167D01*
X152064680Y-54429065D01*
X152024018Y-54329214D01*
X151986869Y-54250167D01*
X151943346Y-54156917D01*
X151931979Y-54106413D01*
X151798830Y-54106413D01*
X151806938Y-54112953D01*
X151847601Y-54172593D01*
X151889723Y-54250167D01*
X151952267Y-54381630D01*
X151988338Y-54473046D01*
X151999227Y-54533511D01*
X151986227Y-54572123D01*
X151950629Y-54597978D01*
X151939800Y-54602897D01*
X151858348Y-54644048D01*
X151788148Y-54686746D01*
X151727632Y-54716653D01*
X151695103Y-54709844D01*
X151678185Y-54668561D01*
X151651563Y-54589290D01*
X151620009Y-54488047D01*
X151588296Y-54380853D01*
X151561197Y-54283723D01*
X151543484Y-54212677D01*
X151539222Y-54186671D01*
X151179893Y-54186671D01*
X151180070Y-54190059D01*
X151180708Y-54193617D01*
X151173636Y-54250972D01*
X151119736Y-54294017D01*
X151119011Y-54294386D01*
X150727532Y-54510197D01*
X150364632Y-54744806D01*
X150037568Y-54992785D01*
X149753596Y-55248705D01*
X149554728Y-55464576D01*
X149461999Y-55585262D01*
X149355813Y-55738983D01*
X149242474Y-55915004D01*
X149128290Y-56102587D01*
X149019566Y-56290997D01*
X148922609Y-56469495D01*
X148843723Y-56627347D01*
X148789215Y-56753814D01*
X148777077Y-56788632D01*
X148732892Y-56942518D01*
X148685176Y-57132955D01*
X148638346Y-57340611D01*
X148596819Y-57546157D01*
X148571987Y-57686222D01*
X148555347Y-57821131D01*
X148542236Y-57993023D01*
X148532893Y-58188283D01*
X148527554Y-58393298D01*
X148526518Y-58583283D01*
X148686464Y-58583283D01*
X148692721Y-58296579D01*
X148714851Y-57995377D01*
X148752969Y-57687645D01*
X148788865Y-57474555D01*
X148836192Y-57240543D01*
X148886726Y-57034507D01*
X148944900Y-56846364D01*
X149015150Y-56666031D01*
X149101909Y-56483426D01*
X149209612Y-56288465D01*
X149342691Y-56071066D01*
X149505582Y-55821145D01*
X149536078Y-55775415D01*
X149606000Y-55670830D01*
X149623248Y-56085859D01*
X149624818Y-56115726D01*
X149765300Y-56115726D01*
X149771254Y-56070048D01*
X149771379Y-56069842D01*
X149777176Y-56034469D01*
X149782998Y-55953919D01*
X149788233Y-55839455D01*
X149792270Y-55702341D01*
X149792865Y-55673977D01*
X149800163Y-55301068D01*
X150027637Y-55116880D01*
X150249793Y-54940380D01*
X150439170Y-54797692D01*
X150603494Y-54683321D01*
X150750494Y-54591774D01*
X150824014Y-54550634D01*
X150924852Y-54495384D01*
X151012112Y-54445669D01*
X151068690Y-54411259D01*
X151072780Y-54408502D01*
X151128405Y-54377234D01*
X151165277Y-54379866D01*
X151188754Y-54422872D01*
X151204194Y-54512725D01*
X151210352Y-54574722D01*
X151225312Y-54696572D01*
X151249852Y-54847531D01*
X151279648Y-55002006D01*
X151292638Y-55061555D01*
X151322043Y-55197594D01*
X151338304Y-55299555D01*
X151342636Y-55387952D01*
X151336249Y-55483296D01*
X151323501Y-55583667D01*
X151310028Y-55709891D01*
X151298708Y-55870864D01*
X151290812Y-56044897D01*
X151287690Y-56193988D01*
X151287680Y-56209416D01*
X151373385Y-56209416D01*
X151377834Y-55978840D01*
X151397559Y-55733565D01*
X151397935Y-55730179D01*
X151414666Y-55590470D01*
X151429236Y-55498805D01*
X151443784Y-55446949D01*
X151460447Y-55426666D01*
X151476507Y-55427548D01*
X151533497Y-55429362D01*
X151621569Y-55411896D01*
X151721281Y-55381043D01*
X151813195Y-55342696D01*
X151871882Y-55307676D01*
X151936430Y-55257287D01*
X151853084Y-55074755D01*
X151769739Y-54892222D01*
X151844981Y-54830654D01*
X151902350Y-54790811D01*
X151962149Y-54759062D01*
X152006540Y-54743818D01*
X152019000Y-54748570D01*
X152014313Y-54777341D01*
X152002206Y-54845119D01*
X151990044Y-54911494D01*
X151977077Y-55058751D01*
X152002376Y-55176659D01*
X152069612Y-55280471D01*
X152082244Y-55294389D01*
X152144272Y-55347175D01*
X152180962Y-55354426D01*
X152187237Y-55323288D01*
X152158022Y-55260909D01*
X152131889Y-55224479D01*
X152097555Y-55152279D01*
X152079952Y-55054796D01*
X152077750Y-54946156D01*
X152089620Y-54840488D01*
X152114229Y-54751919D01*
X152150249Y-54694578D01*
X152183109Y-54680555D01*
X152235462Y-54665373D01*
X152308547Y-54627309D01*
X152335507Y-54610000D01*
X152400510Y-54567400D01*
X152443292Y-54542292D01*
X152450661Y-54539444D01*
X152471094Y-54564235D01*
X152500079Y-54628467D01*
X152532055Y-54716928D01*
X152561463Y-54814407D01*
X152580759Y-54895359D01*
X152594572Y-55002439D01*
X152596335Y-55106061D01*
X152592725Y-55142303D01*
X152590744Y-55218059D01*
X152610732Y-55245631D01*
X152643455Y-55222076D01*
X152671464Y-55167389D01*
X152682870Y-55092506D01*
X152678986Y-54982992D01*
X152662474Y-54857728D01*
X152635992Y-54735599D01*
X152602202Y-54635487D01*
X152594136Y-54618457D01*
X152566312Y-54556887D01*
X152555222Y-54518854D01*
X152580208Y-54492695D01*
X152647921Y-54453566D01*
X152747494Y-54406208D01*
X152868061Y-54355359D01*
X152998754Y-54305762D01*
X153128706Y-54262157D01*
X153176111Y-54248007D01*
X153332063Y-54203783D01*
X153444318Y-54174476D01*
X153523420Y-54159388D01*
X153579915Y-54157821D01*
X153624346Y-54169075D01*
X153667259Y-54192453D01*
X153698717Y-54213403D01*
X153784806Y-54258537D01*
X153870509Y-54283515D01*
X153892661Y-54285281D01*
X154017647Y-54277318D01*
X154149980Y-54256549D01*
X154271183Y-54227009D01*
X154362781Y-54192732D01*
X154389515Y-54176765D01*
X154442035Y-54144320D01*
X154491603Y-54139715D01*
X154565014Y-54160684D01*
X154567853Y-54161680D01*
X154656647Y-54198409D01*
X154762080Y-54249480D01*
X154814768Y-54277771D01*
X154904039Y-54333110D01*
X154949791Y-54373381D01*
X154948900Y-54395291D01*
X154929135Y-54398333D01*
X154897578Y-54419597D01*
X154856718Y-54470737D01*
X154856631Y-54470869D01*
X154826121Y-54527554D01*
X154828287Y-54550626D01*
X154925889Y-54550626D01*
X154947630Y-54506789D01*
X154997306Y-54465985D01*
X155051594Y-54443972D01*
X155078655Y-54447408D01*
X155119314Y-54472544D01*
X155188064Y-54515573D01*
X155228544Y-54541039D01*
X155293107Y-54586996D01*
X155328026Y-54622477D01*
X155329673Y-54634253D01*
X155285877Y-54648401D01*
X155207973Y-54652106D01*
X155117137Y-54646302D01*
X155034546Y-54631926D01*
X154997772Y-54619581D01*
X154945130Y-54583981D01*
X154925889Y-54550626D01*
X154828287Y-54550626D01*
X154830225Y-54571269D01*
X154852386Y-54609462D01*
X154932887Y-54681129D01*
X155059546Y-54722046D01*
X155230949Y-54731847D01*
X155306423Y-54727429D01*
X155508205Y-54710373D01*
X155897621Y-55033333D01*
X155644588Y-55039211D01*
X155266997Y-55055434D01*
X154900126Y-55085583D01*
X154551372Y-55128394D01*
X154228134Y-55182600D01*
X153937807Y-55246938D01*
X153687790Y-55320142D01*
X153485478Y-55400947D01*
X153462109Y-55412427D01*
X153369678Y-55456753D01*
X153313089Y-55475797D01*
X153279240Y-55472389D01*
X153260253Y-55456034D01*
X153222667Y-55427159D01*
X153194331Y-55446498D01*
X153172642Y-55517283D01*
X153163138Y-55575589D01*
X153345445Y-55575589D01*
X153369098Y-55559026D01*
X153431620Y-55526032D01*
X153520352Y-55483224D01*
X153536744Y-55475625D01*
X153784763Y-55380049D01*
X154080639Y-55298497D01*
X154417267Y-55232134D01*
X154787542Y-55182129D01*
X155184360Y-55149647D01*
X155600617Y-55135855D01*
X155606246Y-55135802D01*
X156018492Y-55132111D01*
X156167080Y-55280278D01*
X156336851Y-55463515D01*
X156488449Y-55659478D01*
X156634180Y-55884877D01*
X156712772Y-56021136D01*
X156784554Y-56153069D01*
X156852980Y-56284770D01*
X156913640Y-56407020D01*
X156962125Y-56510599D01*
X156994025Y-56586286D01*
X157004933Y-56624861D01*
X157002940Y-56627889D01*
X156975785Y-56614425D01*
X156910636Y-56577998D01*
X156817973Y-56524557D01*
X156733344Y-56474892D01*
X156587963Y-56394065D01*
X156423106Y-56310204D01*
X156266872Y-56237386D01*
X156215215Y-56215375D01*
X155956000Y-56108855D01*
X155476222Y-56109079D01*
X155299835Y-56109521D01*
X155166403Y-56111818D01*
X155062436Y-56117710D01*
X154974446Y-56128935D01*
X154888943Y-56147234D01*
X154792437Y-56174345D01*
X154671440Y-56212008D01*
X154666920Y-56213437D01*
X154517804Y-56265232D01*
X154349232Y-56331387D01*
X154173196Y-56406408D01*
X154001691Y-56484803D01*
X153846711Y-56561077D01*
X153720251Y-56629738D01*
X153634305Y-56685293D01*
X153630916Y-56687918D01*
X153567096Y-56731271D01*
X153537437Y-56731331D01*
X153539300Y-56685785D01*
X153558363Y-56624341D01*
X153590311Y-56476495D01*
X153597583Y-56298499D01*
X153580661Y-56110726D01*
X153542153Y-55940345D01*
X153508076Y-55843641D01*
X153473992Y-55768986D01*
X153447495Y-55732761D01*
X153410319Y-55695428D01*
X153370918Y-55637261D01*
X153346973Y-55585493D01*
X153345445Y-55575589D01*
X153163138Y-55575589D01*
X153162966Y-55576643D01*
X153149944Y-55676417D01*
X153145829Y-55733615D01*
X153151268Y-55761493D01*
X153166911Y-55773313D01*
X153172691Y-55775378D01*
X153198239Y-55757958D01*
X153223067Y-55702580D01*
X153226214Y-55691417D01*
X153250701Y-55597778D01*
X153289753Y-55668333D01*
X153314821Y-55744996D01*
X153327313Y-55847912D01*
X153327143Y-55956271D01*
X153314224Y-56049262D01*
X153291564Y-56102689D01*
X153267415Y-56151609D01*
X153287498Y-56174336D01*
X153328536Y-56167201D01*
X153362320Y-56131879D01*
X153395886Y-56063108D01*
X153404831Y-56036532D01*
X153430108Y-55963800D01*
X153449567Y-55941716D01*
X153466259Y-55972030D01*
X153483232Y-56056490D01*
X153487524Y-56083936D01*
X153495805Y-56158429D01*
X153489671Y-56216626D01*
X153463206Y-56277773D01*
X153410494Y-56361120D01*
X153395515Y-56383275D01*
X153331348Y-56487179D01*
X153306233Y-56552836D01*
X153311839Y-56577350D01*
X153345042Y-56576199D01*
X153398554Y-56524928D01*
X153431351Y-56482893D01*
X153522205Y-56359778D01*
X153505832Y-56467599D01*
X153485723Y-56542496D01*
X153446385Y-56648275D01*
X153395096Y-56765985D01*
X153375781Y-56806266D01*
X153322233Y-56932898D01*
X153263860Y-57100941D01*
X153233354Y-57201447D01*
X153345445Y-57201447D01*
X153364398Y-57158861D01*
X153413517Y-57091818D01*
X153481187Y-57013813D01*
X153555793Y-56938343D01*
X153618042Y-56884680D01*
X153766844Y-56785206D01*
X153958028Y-56679875D01*
X154178713Y-56574318D01*
X154416018Y-56474170D01*
X154657062Y-56385062D01*
X154888966Y-56312627D01*
X154982333Y-56288090D01*
X155046165Y-56279875D01*
X155153038Y-56274095D01*
X155289586Y-56271163D01*
X155442441Y-56271495D01*
X155490333Y-56272311D01*
X155658971Y-56276822D01*
X155786178Y-56283737D01*
X155886966Y-56295201D01*
X155976348Y-56313358D01*
X156069336Y-56340353D01*
X156145139Y-56365837D01*
X156271555Y-56416665D01*
X156427498Y-56489853D01*
X156597716Y-56577184D01*
X156766953Y-56670441D01*
X156919958Y-56761405D01*
X157041476Y-56841861D01*
X157074053Y-56866258D01*
X157140585Y-56915986D01*
X157194485Y-56952444D01*
X157229239Y-57000925D01*
X157262508Y-57099584D01*
X157293333Y-57242159D01*
X157320758Y-57422386D01*
X157343823Y-57634002D01*
X157361572Y-57870744D01*
X157372801Y-58118432D01*
X157389898Y-58663531D01*
X157237394Y-58587998D01*
X157127675Y-58520671D01*
X157043328Y-58444244D01*
X157023505Y-58418074D01*
X156985913Y-58357116D01*
X156978748Y-58326976D01*
X157000994Y-58311596D01*
X157016450Y-58306439D01*
X157054583Y-58278752D01*
X157071923Y-58239766D01*
X157061462Y-58211609D01*
X157047515Y-58208333D01*
X157014102Y-58192017D01*
X156949535Y-58149351D01*
X156866319Y-58089760D01*
X156776959Y-58022669D01*
X156693962Y-57957503D01*
X156629833Y-57903687D01*
X156597076Y-57870646D01*
X156595487Y-57867659D01*
X156562432Y-57836225D01*
X156490457Y-57795035D01*
X156394724Y-57750496D01*
X156290394Y-57709014D01*
X156192626Y-57676997D01*
X156116583Y-57660852D01*
X156104256Y-57660066D01*
X156030770Y-57651651D01*
X156000841Y-57626587D01*
X155998423Y-57610277D01*
X155984202Y-57558415D01*
X155938880Y-57547093D01*
X155858062Y-57575637D01*
X155837915Y-57585727D01*
X155785647Y-57609896D01*
X155733246Y-57624392D01*
X155667328Y-57630213D01*
X155574507Y-57628357D01*
X155441398Y-57619822D01*
X155410968Y-57617566D01*
X155278495Y-57608710D01*
X155163778Y-57603015D01*
X155080326Y-57601030D01*
X155044079Y-57602665D01*
X154991673Y-57612670D01*
X154904973Y-57629300D01*
X154826568Y-57644372D01*
X154656692Y-57677060D01*
X154503236Y-57573791D01*
X154327567Y-57465427D01*
X154143360Y-57369090D01*
X153959981Y-57288189D01*
X153786797Y-57226134D01*
X153633177Y-57186333D01*
X153508487Y-57172195D01*
X153430690Y-57183476D01*
X153372753Y-57201536D01*
X153345707Y-57202464D01*
X153345445Y-57201447D01*
X153233354Y-57201447D01*
X153204639Y-57296052D01*
X153148550Y-57503890D01*
X153099570Y-57710112D01*
X153061680Y-57900375D01*
X153047456Y-57989826D01*
X153020968Y-58095809D01*
X152969566Y-58171692D01*
X152943544Y-58195604D01*
X152881826Y-58238752D01*
X152834396Y-58256843D01*
X152826836Y-58256042D01*
X152808696Y-58222081D01*
X152799918Y-58143712D01*
X152799765Y-58032063D01*
X152807497Y-57898260D01*
X152822376Y-57753428D01*
X152843663Y-57608696D01*
X152870621Y-57475188D01*
X152881516Y-57432222D01*
X152930120Y-57215085D01*
X152947354Y-57030607D01*
X152933763Y-56864891D01*
X152908015Y-56758524D01*
X152886690Y-56664491D01*
X152879982Y-56582141D01*
X152883158Y-56553913D01*
X152886111Y-56500444D01*
X152856472Y-56492091D01*
X152793730Y-56528878D01*
X152754867Y-56559906D01*
X152700194Y-56618161D01*
X152686724Y-56661012D01*
X152715204Y-56679978D01*
X152744456Y-56678026D01*
X152791357Y-56694614D01*
X152825775Y-56756997D01*
X152847254Y-56855824D01*
X152855340Y-56981741D01*
X152849577Y-57125396D01*
X152829511Y-57277437D01*
X152794686Y-57428512D01*
X152782862Y-57467400D01*
X152754269Y-57581474D01*
X152729612Y-57724770D01*
X152713395Y-57870069D01*
X152711421Y-57899339D01*
X152701964Y-58019159D01*
X152689279Y-58121362D01*
X152675541Y-58189928D01*
X152669961Y-58204877D01*
X152600807Y-58284470D01*
X152588933Y-58292214D01*
X153013639Y-58292214D01*
X153023230Y-58260990D01*
X153044872Y-58239621D01*
X153057218Y-58260876D01*
X153057429Y-58304935D01*
X153052051Y-58313579D01*
X153024909Y-58320155D01*
X153013639Y-58292214D01*
X152588933Y-58292214D01*
X152490941Y-58356117D01*
X152356078Y-58413297D01*
X152211933Y-58449485D01*
X152074220Y-58458161D01*
X152061790Y-58457297D01*
X151979599Y-58440463D01*
X151927973Y-58397585D01*
X151906883Y-58363555D01*
X151854670Y-58234490D01*
X151818921Y-58067045D01*
X151798761Y-57855563D01*
X151793222Y-57627625D01*
X151793742Y-57481742D01*
X151796289Y-57383105D01*
X151802342Y-57322516D01*
X151813384Y-57290779D01*
X151830894Y-57278696D01*
X151849667Y-57277000D01*
X151896069Y-57269055D01*
X151898490Y-57240849D01*
X151856617Y-57185824D01*
X151844747Y-57172986D01*
X151783383Y-57107667D01*
X151856810Y-57107667D01*
X151940762Y-57082297D01*
X152004575Y-57012350D01*
X152045125Y-56907065D01*
X152059290Y-56775682D01*
X152043946Y-56627442D01*
X152033852Y-56583846D01*
X151998878Y-56467606D01*
X151960565Y-56391254D01*
X151908221Y-56338715D01*
X151846068Y-56301472D01*
X151733864Y-56263336D01*
X151643241Y-56276682D01*
X151573504Y-56341976D01*
X151533345Y-56437389D01*
X151709175Y-56437389D01*
X151719568Y-56368616D01*
X151754189Y-56348749D01*
X151816311Y-56376796D01*
X151843693Y-56396620D01*
X151886679Y-56451671D01*
X151927023Y-56538825D01*
X151958907Y-56638898D01*
X151976509Y-56732703D01*
X151974011Y-56801056D01*
X151969633Y-56811796D01*
X151934380Y-56835028D01*
X151887127Y-56814899D01*
X151834724Y-56761254D01*
X151784017Y-56683937D01*
X151741854Y-56592791D01*
X151715085Y-56497661D01*
X151709175Y-56437389D01*
X151533345Y-56437389D01*
X151523961Y-56459682D01*
X151508491Y-56527600D01*
X151504243Y-56589707D01*
X151590481Y-56589707D01*
X151603461Y-56569430D01*
X151622605Y-56597955D01*
X151640531Y-56646151D01*
X151686088Y-56732406D01*
X151761491Y-56827754D01*
X151808418Y-56874719D01*
X151878317Y-56942056D01*
X151908938Y-56982873D01*
X151905381Y-57005524D01*
X151892614Y-57012559D01*
X151839806Y-57004577D01*
X151762564Y-56948308D01*
X151733880Y-56921393D01*
X151640844Y-56807196D01*
X151591622Y-56693026D01*
X151590481Y-56589707D01*
X151504243Y-56589707D01*
X151499438Y-56659942D01*
X151528677Y-56782361D01*
X151600926Y-56910541D01*
X151639205Y-56962184D01*
X151741588Y-57093555D01*
X151622660Y-56966555D01*
X151545588Y-56872657D01*
X151476825Y-56769505D01*
X151446713Y-56712555D01*
X151408323Y-56586315D01*
X151383714Y-56415255D01*
X151373385Y-56209416D01*
X151287680Y-56209416D01*
X151287584Y-56350325D01*
X151290864Y-56463859D01*
X151299287Y-56548206D01*
X151314607Y-56616985D01*
X151338582Y-56683813D01*
X151356117Y-56724727D01*
X151416387Y-56835371D01*
X151497632Y-56952925D01*
X151558278Y-57025367D01*
X151689545Y-57165701D01*
X151693964Y-57581184D01*
X151705483Y-57878665D01*
X151733182Y-58122323D01*
X151777132Y-58312433D01*
X151837404Y-58449268D01*
X151914068Y-58533102D01*
X151943034Y-58549208D01*
X151962470Y-58563104D01*
X151933515Y-58567401D01*
X151852748Y-58562472D01*
X151835556Y-58560923D01*
X151666918Y-58525101D01*
X151471909Y-58449087D01*
X151258348Y-58337597D01*
X151034058Y-58195350D01*
X150806858Y-58027061D01*
X150584570Y-57837448D01*
X150493190Y-57751260D01*
X150270195Y-57508011D01*
X150093253Y-57252892D01*
X149952128Y-56969858D01*
X149888498Y-56803463D01*
X149859537Y-56705313D01*
X149831150Y-56583048D01*
X149805434Y-56449814D01*
X149784488Y-56318752D01*
X149770410Y-56203008D01*
X149765300Y-56115726D01*
X149624818Y-56115726D01*
X149631923Y-56250785D01*
X149643610Y-56411909D01*
X149656922Y-56553001D01*
X149670474Y-56657831D01*
X149673639Y-56675956D01*
X149733877Y-56888453D01*
X149835944Y-57121889D01*
X149974655Y-57365964D01*
X150141557Y-57606083D01*
X150283800Y-57769935D01*
X150467935Y-57946343D01*
X150683473Y-58126822D01*
X150919928Y-58302887D01*
X151166815Y-58466052D01*
X151308192Y-58550035D01*
X151487316Y-58651848D01*
X151377642Y-58666559D01*
X151220436Y-58708616D01*
X151051915Y-58789214D01*
X150889940Y-58898578D01*
X150787490Y-58989551D01*
X150714634Y-59068151D01*
X150660978Y-59135869D01*
X150636616Y-59179762D01*
X150636111Y-59183666D01*
X150622909Y-59228818D01*
X150588550Y-59304731D01*
X150547686Y-59381869D01*
X150495951Y-59485395D01*
X150482460Y-59548279D01*
X150508807Y-59572804D01*
X150576587Y-59561258D01*
X150652264Y-59531749D01*
X150740680Y-59492726D01*
X150787764Y-59468728D01*
X150803805Y-59451948D01*
X150799092Y-59434578D01*
X150793160Y-59424845D01*
X150753114Y-59410280D01*
X150701754Y-59423757D01*
X150638252Y-59441785D01*
X150618936Y-59429808D01*
X150643955Y-59386307D01*
X150712878Y-59310352D01*
X150798099Y-59234946D01*
X150879619Y-59194386D01*
X150956192Y-59178237D01*
X151047385Y-59157775D01*
X151085889Y-59127927D01*
X151087667Y-59118084D01*
X151077392Y-59094209D01*
X151038413Y-59086022D01*
X150958496Y-59091512D01*
X150939500Y-59093715D01*
X150791333Y-59111480D01*
X150894497Y-59019057D01*
X150949247Y-58972524D01*
X150995881Y-58945798D01*
X151051921Y-58934432D01*
X151134889Y-58933981D01*
X151215435Y-58937631D01*
X151327283Y-58941436D01*
X151392236Y-58938050D01*
X151419529Y-58926233D01*
X151420524Y-58910092D01*
X151387101Y-58883449D01*
X151317763Y-58861509D01*
X151283031Y-58855666D01*
X151158222Y-58839776D01*
X151263149Y-58792166D01*
X151368111Y-58761286D01*
X151502320Y-58745634D01*
X151547728Y-58744555D01*
X151652797Y-58735583D01*
X151799031Y-58710657D01*
X151974423Y-58672770D01*
X152166969Y-58624912D01*
X152364660Y-58570073D01*
X152555493Y-58511243D01*
X152727460Y-58451412D01*
X152732986Y-58449338D01*
X152835135Y-58412623D01*
X152902941Y-58395509D01*
X152954248Y-58396091D01*
X153006902Y-58412462D01*
X153021671Y-58418508D01*
X153085439Y-58455577D01*
X153118415Y-58495114D01*
X153119667Y-58502494D01*
X153094562Y-58537943D01*
X153025977Y-58586313D01*
X152924004Y-58642751D01*
X152798737Y-58702406D01*
X152660270Y-58760427D01*
X152518695Y-58811962D01*
X152402044Y-58847424D01*
X152140992Y-58935735D01*
X151929560Y-59046690D01*
X151766519Y-59180190D01*
X151699737Y-59239184D01*
X151640001Y-59275375D01*
X151618353Y-59280778D01*
X151574925Y-59295853D01*
X151572848Y-59331209D01*
X151609256Y-59372043D01*
X151639328Y-59389137D01*
X151724167Y-59417831D01*
X151786100Y-59420908D01*
X151815828Y-59401239D01*
X151804051Y-59361696D01*
X151787952Y-59343240D01*
X151777303Y-59299010D01*
X151812964Y-59241953D01*
X151887587Y-59176768D01*
X151993827Y-59108152D01*
X152124336Y-59040803D01*
X152271769Y-58979416D01*
X152428780Y-58928691D01*
X152441810Y-58925160D01*
X152584830Y-58881108D01*
X152735937Y-58825213D01*
X152865947Y-58768413D01*
X152883653Y-58759556D01*
X153016524Y-58697672D01*
X153120157Y-58667414D01*
X153210521Y-58666610D01*
X153303589Y-58693092D01*
X153320831Y-58700153D01*
X153410686Y-58753578D01*
X153505602Y-58834483D01*
X153594126Y-58929800D01*
X153664807Y-59026464D01*
X153706192Y-59111407D01*
X153712333Y-59146842D01*
X153688534Y-59213065D01*
X153622110Y-59298966D01*
X153520525Y-59398203D01*
X153391243Y-59504430D01*
X153241725Y-59611304D01*
X153079437Y-59712479D01*
X152986479Y-59763903D01*
X152879002Y-59818687D01*
X152811192Y-59847529D01*
X152774107Y-59853176D01*
X152758805Y-59838377D01*
X152757764Y-59834210D01*
X152737880Y-59794638D01*
X152725247Y-59788778D01*
X152700077Y-59813365D01*
X152672890Y-59874001D01*
X152650578Y-59950997D01*
X152640036Y-60024666D01*
X152639889Y-60032575D01*
X152624880Y-60123051D01*
X152585529Y-60238669D01*
X152530351Y-60358677D01*
X152467861Y-60462320D01*
X152458208Y-60475401D01*
X152358639Y-60577647D01*
X152211914Y-60688521D01*
X152025669Y-60803101D01*
X151807542Y-60916462D01*
X151689573Y-60970854D01*
X151374258Y-61110489D01*
X151301486Y-61000524D01*
X151238559Y-60928382D01*
X151153496Y-60858712D01*
X151064579Y-60804180D01*
X150990088Y-60777451D01*
X150978204Y-60776555D01*
X150946937Y-60798201D01*
X150903354Y-60851861D01*
X150892401Y-60868278D01*
X150837162Y-60948787D01*
X150782419Y-61020348D01*
X150778913Y-61024524D01*
X150741617Y-61064084D01*
X150708295Y-61074140D01*
X150656953Y-61056629D01*
X150618684Y-61038635D01*
X150537019Y-60992806D01*
X150509842Y-60956356D01*
X150536969Y-60924629D01*
X150612985Y-60894587D01*
X150708162Y-60857439D01*
X150794089Y-60812210D01*
X150808564Y-60802556D01*
X150866363Y-60744397D01*
X150909047Y-60670655D01*
X150932836Y-60595514D01*
X150933952Y-60533157D01*
X150908617Y-60497765D01*
X150890688Y-60494333D01*
X150868066Y-60518580D01*
X150848556Y-60575456D01*
X150810132Y-60663423D01*
X150732663Y-60737434D01*
X150608998Y-60803396D01*
X150539373Y-60830929D01*
X150367524Y-60913492D01*
X150222084Y-61029166D01*
X150089969Y-61188750D01*
X150069436Y-61218717D01*
X150015226Y-61292969D01*
X149971851Y-61340307D01*
X149949491Y-61350528D01*
X149935328Y-61306485D01*
X149930682Y-61224219D01*
X149934802Y-61121011D01*
X149946936Y-61014140D01*
X149966332Y-60920887D01*
X149968501Y-60913443D01*
X150027423Y-60773539D01*
X150117013Y-60628126D01*
X150226567Y-60489727D01*
X150345379Y-60370868D01*
X150462744Y-60284073D01*
X150535569Y-60249985D01*
X150608022Y-60216262D01*
X150634128Y-60184249D01*
X150613551Y-60163353D01*
X150545954Y-60162982D01*
X150538648Y-60164097D01*
X150434681Y-60202113D01*
X150315583Y-60279964D01*
X150193839Y-60388259D01*
X150100392Y-60493698D01*
X150011243Y-60606257D01*
X149808622Y-60468172D01*
X149691700Y-60378996D01*
X149555194Y-60259677D01*
X149407982Y-60119556D01*
X149258941Y-59967972D01*
X149116949Y-59814266D01*
X148990884Y-59667775D01*
X148889624Y-59537841D01*
X148822046Y-59433804D01*
X148817784Y-59425768D01*
X148761737Y-59276732D01*
X148721089Y-59081328D01*
X148695959Y-58847522D01*
X148686464Y-58583283D01*
X148526518Y-58583283D01*
X148526457Y-58594453D01*
X148529839Y-58778135D01*
X148537938Y-58930729D01*
X148548637Y-59025395D01*
X148566727Y-59137245D01*
X148581756Y-59233903D01*
X148590748Y-59296183D01*
X148591239Y-59300095D01*
X148609883Y-59370270D01*
X148640252Y-59441206D01*
X148721648Y-59608090D01*
X148815044Y-59819206D01*
X148835220Y-59867723D01*
X148931393Y-59867723D01*
X148949212Y-59867479D01*
X148996039Y-59910132D01*
X149072203Y-59994109D01*
X149078127Y-60000903D01*
X149185640Y-60118016D01*
X149310718Y-60244815D01*
X149428451Y-60356153D01*
X149441956Y-60368214D01*
X149550194Y-60461243D01*
X149663922Y-60554520D01*
X149761962Y-60630764D01*
X149779534Y-60643689D01*
X149924846Y-60748949D01*
X149884079Y-60882697D01*
X149857600Y-60997125D01*
X149841488Y-61118701D01*
X149839786Y-61150517D01*
X149836379Y-61229947D01*
X149827437Y-61262249D01*
X149806505Y-61256730D01*
X149781079Y-61235184D01*
X149684948Y-61134696D01*
X149571949Y-60992942D01*
X149448790Y-60819942D01*
X149322181Y-60625714D01*
X149198832Y-60420277D01*
X149085452Y-60213649D01*
X149048694Y-60141555D01*
X148981463Y-60003189D01*
X148942253Y-59912436D01*
X148931393Y-59867723D01*
X148835220Y-59867723D01*
X148882780Y-59982085D01*
X149002162Y-60240415D01*
X149153383Y-60512501D01*
X149327662Y-60785695D01*
X149516219Y-61047348D01*
X149710272Y-61284811D01*
X149874333Y-61457351D01*
X150010129Y-61457351D01*
X150101576Y-61321564D01*
X150192781Y-61192485D01*
X150263309Y-61109269D01*
X150318502Y-61067685D01*
X150363699Y-61063505D01*
X150398471Y-61086427D01*
X150439950Y-61115487D01*
X150510008Y-61154513D01*
X150535372Y-61167217D01*
X150644624Y-61220358D01*
X150221028Y-61662174D01*
X150115578Y-61559762D01*
X150010129Y-61457351D01*
X149874333Y-61457351D01*
X149901040Y-61485438D01*
X149970966Y-61549493D01*
X150160995Y-61715652D01*
X150013263Y-61864943D01*
X150558075Y-61864943D01*
X150575539Y-61846862D01*
X150628497Y-61806899D01*
X150699186Y-61757985D01*
X150782798Y-61696559D01*
X150891329Y-61609258D01*
X151008858Y-61509171D01*
X151090478Y-61436207D01*
X151209287Y-61330857D01*
X151308593Y-61253831D01*
X151407920Y-61192677D01*
X151526793Y-61134941D01*
X151635975Y-61088276D01*
X151779033Y-61025746D01*
X151923302Y-60957399D01*
X152048691Y-60893003D01*
X152112942Y-60856439D01*
X152207889Y-60798546D01*
X152264195Y-60765937D01*
X152291863Y-60755264D01*
X152300896Y-60763181D01*
X152301299Y-60786341D01*
X152301222Y-60793455D01*
X152281833Y-60840221D01*
X152233586Y-60900835D01*
X152216556Y-60917667D01*
X152163459Y-60972046D01*
X152134001Y-61011497D01*
X152131889Y-61018232D01*
X152118674Y-61053089D01*
X152084921Y-61118454D01*
X152059171Y-61163792D01*
X152012164Y-61236352D01*
X151978738Y-61264952D01*
X151949597Y-61257234D01*
X151947518Y-61255564D01*
X151895707Y-61238045D01*
X151857200Y-61264201D01*
X151849667Y-61296098D01*
X151828686Y-61356802D01*
X151773580Y-61436855D01*
X151696104Y-61522724D01*
X151608012Y-61600879D01*
X151549122Y-61642057D01*
X151438613Y-61707140D01*
X151371964Y-61739726D01*
X151346932Y-61739885D01*
X151361273Y-61707684D01*
X151410076Y-61646302D01*
X151473666Y-61562723D01*
X151507914Y-61497689D01*
X151509027Y-61459904D01*
X151493980Y-61453889D01*
X151465989Y-61471391D01*
X151408799Y-61517320D01*
X151334680Y-61581812D01*
X151333176Y-61583163D01*
X151180486Y-61705260D01*
X151034256Y-61785774D01*
X150875615Y-61833560D01*
X150763437Y-61850561D01*
X150664925Y-61860325D01*
X150591676Y-61865558D01*
X150558528Y-61865220D01*
X150558075Y-61864943D01*
X150013263Y-61864943D01*
X149996819Y-61881560D01*
X149915562Y-61966577D01*
X149870149Y-62023656D01*
X149854506Y-62062655D01*
X149862555Y-62093433D01*
X149864404Y-62096401D01*
X149906180Y-62131172D01*
X149972060Y-62136590D01*
X150068422Y-62111511D01*
X150201645Y-62054792D01*
X150262640Y-62025016D01*
X150481782Y-61915332D01*
X150567955Y-61966857D01*
X150768082Y-61966857D01*
X150779893Y-61952413D01*
X150910857Y-61918199D01*
X150998227Y-61902102D01*
X151051602Y-61903353D01*
X151080580Y-61921185D01*
X151085062Y-61928010D01*
X151102972Y-61944126D01*
X151136474Y-61943476D01*
X151194736Y-61923160D01*
X151286927Y-61880281D01*
X151373651Y-61836768D01*
X151490537Y-61775027D01*
X151593484Y-61716576D01*
X151668650Y-61669488D01*
X151696263Y-61648606D01*
X151747779Y-61609140D01*
X151781050Y-61595000D01*
X151809686Y-61574909D01*
X151865392Y-61520809D01*
X151938993Y-61441960D01*
X151990778Y-61383333D01*
X152070289Y-61293713D01*
X152136814Y-61222895D01*
X152181480Y-61180096D01*
X152194499Y-61171667D01*
X152212109Y-61148251D01*
X152247346Y-61086482D01*
X152293798Y-60999076D01*
X152345051Y-60898746D01*
X152394694Y-60798211D01*
X152436313Y-60710184D01*
X152463497Y-60647381D01*
X152470556Y-60624277D01*
X152485060Y-60596747D01*
X152522790Y-60536557D01*
X152567252Y-60469204D01*
X152628805Y-60358940D01*
X152679914Y-60234952D01*
X152698856Y-60169529D01*
X152733764Y-60013545D01*
X152981455Y-59882948D01*
X153114419Y-59806107D01*
X153260031Y-59710892D01*
X153406574Y-59606125D01*
X153542332Y-59500628D01*
X153655588Y-59403225D01*
X153734626Y-59322737D01*
X153748151Y-59305634D01*
X153788836Y-59228996D01*
X153806811Y-59157487D01*
X153812112Y-59102653D01*
X153817593Y-59083242D01*
X153832978Y-59105861D01*
X153864563Y-59163210D01*
X153883114Y-59198948D01*
X153926634Y-59311993D01*
X153954645Y-59453998D01*
X153967795Y-59632042D01*
X153966725Y-59853205D01*
X153958494Y-60027054D01*
X153940357Y-60230750D01*
X153910991Y-60446526D01*
X153873220Y-60659522D01*
X153829870Y-60854880D01*
X153783765Y-61017739D01*
X153755516Y-61094726D01*
X153685281Y-61237267D01*
X153587534Y-61401547D01*
X153474381Y-61569100D01*
X153357927Y-61721460D01*
X153302180Y-61786245D01*
X153177002Y-61913743D01*
X153039787Y-62030289D01*
X152880374Y-62143025D01*
X152688599Y-62259091D01*
X152454299Y-62385629D01*
X152434780Y-62395714D01*
X152136498Y-62549429D01*
X152534757Y-62549429D01*
X152535073Y-62531576D01*
X152569241Y-62504328D01*
X152643819Y-62461440D01*
X152702846Y-62429768D01*
X152895403Y-62317363D01*
X153086937Y-62187395D01*
X153265480Y-62049272D01*
X153419063Y-61912404D01*
X153535719Y-61786200D01*
X153557249Y-61758052D01*
X153617861Y-61672240D01*
X153662711Y-61603952D01*
X153683548Y-61565866D01*
X153684111Y-61563154D01*
X153697401Y-61530047D01*
X153732217Y-61463156D01*
X153780250Y-61378300D01*
X153901010Y-61126854D01*
X153997458Y-60828720D01*
X154068470Y-60488674D01*
X154112921Y-60111489D01*
X154124614Y-59915778D01*
X154142381Y-59492444D01*
X154265803Y-59611703D01*
X154452752Y-59758147D01*
X154661492Y-59855560D01*
X154895975Y-59905216D01*
X155160152Y-59908393D01*
X155179889Y-59906905D01*
X155307779Y-59892849D01*
X155389356Y-59875495D01*
X155419694Y-59855914D01*
X155419778Y-59854801D01*
X155398310Y-59817638D01*
X155345065Y-59764989D01*
X155276785Y-59710215D01*
X155210210Y-59666675D01*
X155162081Y-59647730D01*
X155160232Y-59647667D01*
X155135999Y-59661245D01*
X155153316Y-59704215D01*
X155202667Y-59767611D01*
X155229082Y-59804760D01*
X155211347Y-59816307D01*
X155187710Y-59817000D01*
X155083879Y-59795852D01*
X154969682Y-59739909D01*
X154867394Y-59660426D01*
X154857109Y-59649978D01*
X154800934Y-59596217D01*
X154759425Y-59565656D01*
X154751275Y-59563000D01*
X154728468Y-59582385D01*
X154738724Y-59632374D01*
X154778370Y-59700717D01*
X154801398Y-59730168D01*
X154842941Y-59786499D01*
X154843935Y-59811920D01*
X154801340Y-59807850D01*
X154712114Y-59775712D01*
X154707738Y-59773947D01*
X154641009Y-59738193D01*
X154587996Y-59683995D01*
X154535113Y-59596123D01*
X154516667Y-59559754D01*
X154460439Y-59451666D01*
X154420216Y-59389615D01*
X154390971Y-59367258D01*
X154370415Y-59375289D01*
X154367701Y-59408844D01*
X154388756Y-59483968D01*
X154433205Y-59601072D01*
X154441236Y-59639296D01*
X154421483Y-59638842D01*
X154380456Y-59605867D01*
X154324667Y-59546526D01*
X154260625Y-59466973D01*
X154198910Y-59379555D01*
X154073914Y-59210869D01*
X153910643Y-59022483D01*
X153718701Y-58824593D01*
X153507690Y-58627394D01*
X153411859Y-58543965D01*
X153287191Y-58431474D01*
X153205843Y-58340705D01*
X153162960Y-58263966D01*
X153153686Y-58193568D01*
X153162762Y-58149489D01*
X153187534Y-58107452D01*
X153229224Y-58101409D01*
X153295552Y-58132936D01*
X153382026Y-58194222D01*
X153456878Y-58247937D01*
X153515494Y-58283813D01*
X153539207Y-58293000D01*
X153568987Y-58311605D01*
X153630265Y-58362412D01*
X153714431Y-58437912D01*
X153812873Y-58530595D01*
X153824498Y-58541800D01*
X154013217Y-58711034D01*
X154182831Y-58834044D01*
X154339876Y-58914890D01*
X154490893Y-58957631D01*
X154495500Y-58958383D01*
X154576545Y-58979872D01*
X154614076Y-59009214D01*
X154615445Y-59016274D01*
X154632583Y-59051220D01*
X154668341Y-59045736D01*
X154687132Y-59024947D01*
X154697489Y-58973300D01*
X154688713Y-58904173D01*
X154666705Y-58840024D01*
X154637368Y-58803309D01*
X154628277Y-58801000D01*
X154592494Y-58823790D01*
X154587222Y-58845576D01*
X154575552Y-58874398D01*
X154531340Y-58877604D01*
X154495500Y-58871388D01*
X154321819Y-58810457D01*
X154134731Y-58695819D01*
X153933660Y-58527106D01*
X153895778Y-58490811D01*
X153795421Y-58396468D01*
X153700748Y-58313717D01*
X153624033Y-58252953D01*
X153585333Y-58227894D01*
X153512480Y-58183091D01*
X153426328Y-58119249D01*
X153390406Y-58089382D01*
X153315220Y-58012122D01*
X153275800Y-57933552D01*
X153262033Y-57868110D01*
X153259901Y-57716068D01*
X153288794Y-57550277D01*
X153342962Y-57399810D01*
X153361537Y-57364963D01*
X153393675Y-57314433D01*
X153426147Y-57287582D01*
X153475962Y-57278390D01*
X153560132Y-57280838D01*
X153593504Y-57282872D01*
X153680050Y-57291950D01*
X153762346Y-57310842D01*
X153854369Y-57344477D01*
X153970102Y-57397784D01*
X154087393Y-57456999D01*
X154255145Y-57545120D01*
X154376755Y-57613572D01*
X154457387Y-57666213D01*
X154502208Y-57706900D01*
X154516382Y-57739492D01*
X154505074Y-57767847D01*
X154504509Y-57768536D01*
X154481235Y-57811797D01*
X154505690Y-57828387D01*
X154578409Y-57818264D01*
X154699929Y-57781386D01*
X154798889Y-57745492D01*
X154962405Y-57707252D01*
X155148546Y-57701147D01*
X155334234Y-57726187D01*
X155387421Y-57743628D01*
X155633418Y-57743628D01*
X155752376Y-57711555D01*
X155826651Y-57691266D01*
X155873504Y-57677968D01*
X155880291Y-57675797D01*
X155880448Y-57695024D01*
X155871938Y-57726650D01*
X155866632Y-57757131D01*
X155883880Y-57771135D01*
X155935536Y-57771913D01*
X156011757Y-57764972D01*
X156137715Y-57761247D01*
X156240417Y-57782912D01*
X156281165Y-57799386D01*
X156357064Y-57840489D01*
X156391365Y-57874031D01*
X156380061Y-57894368D01*
X156351111Y-57897889D01*
X156314284Y-57920671D01*
X156308778Y-57942703D01*
X156319531Y-57970754D01*
X156360979Y-57976652D01*
X156415147Y-57969546D01*
X156476549Y-57963840D01*
X156531293Y-57974660D01*
X156596091Y-58008284D01*
X156687655Y-58070989D01*
X156690313Y-58072899D01*
X156859111Y-58194222D01*
X156767389Y-58203066D01*
X156707297Y-58220914D01*
X156676035Y-58251173D01*
X156679911Y-58279860D01*
X156725229Y-58292992D01*
X156726831Y-58293000D01*
X156776953Y-58312560D01*
X156840376Y-58361480D01*
X156860887Y-58382020D01*
X156907000Y-58434994D01*
X156914024Y-58455010D01*
X156887333Y-58448877D01*
X156832802Y-58429818D01*
X156743182Y-58400809D01*
X156637484Y-58367997D01*
X156633333Y-58366736D01*
X156512091Y-58322042D01*
X156389683Y-58258648D01*
X156250794Y-58168039D01*
X156167667Y-58107855D01*
X156046383Y-58019290D01*
X155926797Y-57934391D01*
X155824472Y-57864081D01*
X155766487Y-57826290D01*
X155633418Y-57743628D01*
X155387421Y-57743628D01*
X155482441Y-57774786D01*
X155605256Y-57838338D01*
X155754285Y-57926622D01*
X155912233Y-58028413D01*
X156061803Y-58132487D01*
X156185702Y-58227619D01*
X156204543Y-58243440D01*
X156311974Y-58335333D01*
X156261852Y-58434111D01*
X156232177Y-58517068D01*
X156214690Y-58614951D01*
X156209754Y-58712041D01*
X156217730Y-58792618D01*
X156238978Y-58840962D01*
X156252333Y-58847932D01*
X156302749Y-58854242D01*
X156387436Y-58864053D01*
X156454118Y-58871496D01*
X156544866Y-58883449D01*
X156594574Y-58900081D01*
X156618439Y-58930911D01*
X156631075Y-58982333D01*
X156638071Y-59061390D01*
X156635624Y-59081440D01*
X156788556Y-59081440D01*
X156788556Y-58908927D01*
X156908500Y-58928775D01*
X156987253Y-58943751D01*
X157040821Y-58957490D01*
X157049611Y-58961143D01*
X157068424Y-58996663D01*
X157069501Y-59005623D01*
X157170478Y-59005623D01*
X157192684Y-59002511D01*
X157219044Y-59009016D01*
X157285950Y-59022919D01*
X157320203Y-59026392D01*
X157342616Y-59040941D01*
X157345563Y-59091301D01*
X157338114Y-59146722D01*
X157318588Y-59244420D01*
X157298396Y-59291245D01*
X157274145Y-59286288D01*
X157242439Y-59228640D01*
X157199885Y-59117392D01*
X157196882Y-59108906D01*
X157172801Y-59036928D01*
X157170478Y-59005623D01*
X157069501Y-59005623D01*
X157071398Y-59021388D01*
X157083009Y-59075090D01*
X157111536Y-59154395D01*
X157126462Y-59189055D01*
X157180907Y-59309000D01*
X157057124Y-59309000D01*
X156961325Y-59302621D01*
X156877187Y-59286771D01*
X156860948Y-59281476D01*
X156820779Y-59261379D01*
X156799046Y-59229774D01*
X156790168Y-59171239D01*
X156788556Y-59081440D01*
X156635624Y-59081440D01*
X156630622Y-59122421D01*
X156630295Y-59123298D01*
X156613020Y-59153247D01*
X156586522Y-59145532D01*
X156552115Y-59115939D01*
X156487160Y-59064275D01*
X156405808Y-59009186D01*
X156393445Y-59001624D01*
X156301308Y-58961724D01*
X156204213Y-58943561D01*
X156116501Y-58946573D01*
X156052516Y-58970196D01*
X156026598Y-59013868D01*
X156026556Y-59016020D01*
X156040657Y-59040562D01*
X156090699Y-59044068D01*
X156135684Y-59038217D01*
X156213894Y-59032748D01*
X156285594Y-59047799D01*
X156364561Y-59089273D01*
X156464573Y-59163073D01*
X156506333Y-59197000D01*
X156687743Y-59310944D01*
X156893161Y-59377524D01*
X157060029Y-59393667D01*
X157146291Y-59397821D01*
X157206743Y-59408474D01*
X157223226Y-59417401D01*
X157213193Y-59449352D01*
X157163903Y-59494579D01*
X157088011Y-59544197D01*
X156998172Y-59589319D01*
X156953288Y-59606957D01*
X156817790Y-59637067D01*
X156650603Y-59648348D01*
X156473054Y-59641349D01*
X156306468Y-59616618D01*
X156204003Y-59587671D01*
X156105762Y-59546488D01*
X156022080Y-59502584D01*
X155982403Y-59474782D01*
X155922742Y-59429511D01*
X155891862Y-59429930D01*
X155885445Y-59459303D01*
X155911548Y-59517707D01*
X155982591Y-59578714D01*
X156087672Y-59636693D01*
X156215892Y-59686013D01*
X156356347Y-59721042D01*
X156407556Y-59729036D01*
X156548667Y-59747335D01*
X156540370Y-59958556D01*
X156515948Y-60194804D01*
X156459359Y-60464304D01*
X156369566Y-60771485D01*
X156308311Y-60950660D01*
X156252088Y-61101111D01*
X156423254Y-61101111D01*
X156493997Y-60889444D01*
X156581455Y-60600429D01*
X156649983Y-60317182D01*
X156695045Y-60058976D01*
X156701210Y-60008784D01*
X156714854Y-59902415D01*
X156728907Y-59817541D01*
X156740650Y-59770194D01*
X156742161Y-59767126D01*
X156778850Y-59745200D01*
X156848068Y-59725744D01*
X156865541Y-59722604D01*
X156957360Y-59698625D01*
X157062126Y-59658643D01*
X157099000Y-59641286D01*
X157172670Y-59608053D01*
X157222514Y-59593085D01*
X157234400Y-59595255D01*
X157227737Y-59627023D01*
X157203378Y-59700055D01*
X157165186Y-59803451D01*
X157117524Y-59925062D01*
X157049576Y-60080099D01*
X156963531Y-60255441D01*
X156866281Y-60438880D01*
X156764717Y-60618209D01*
X156665730Y-60781218D01*
X156576214Y-60915701D01*
X156509373Y-61002333D01*
X156423254Y-61101111D01*
X156252088Y-61101111D01*
X156236835Y-61141927D01*
X156172855Y-61289381D01*
X156110024Y-61403927D01*
X156041995Y-61496473D01*
X155962420Y-61577926D01*
X155923489Y-61611906D01*
X155741251Y-61747717D01*
X155514178Y-61888974D01*
X155252913Y-62030711D01*
X154968097Y-62167962D01*
X154670371Y-62295761D01*
X154370377Y-62409141D01*
X154078757Y-62503138D01*
X153922786Y-62545531D01*
X153836041Y-62564101D01*
X153739345Y-62577430D01*
X153622348Y-62586164D01*
X153474699Y-62590950D01*
X153286050Y-62592434D01*
X153176111Y-62592155D01*
X153001521Y-62590050D01*
X152842998Y-62585795D01*
X152710479Y-62579843D01*
X152613897Y-62572645D01*
X152563187Y-62564657D01*
X152561735Y-62564129D01*
X152534757Y-62549429D01*
X152136498Y-62549429D01*
X152074450Y-62581404D01*
X151813892Y-62485216D01*
X151623135Y-62411692D01*
X151437357Y-62334390D01*
X151262644Y-62256445D01*
X151105084Y-62180995D01*
X150970761Y-62111174D01*
X150865762Y-62050121D01*
X150796174Y-62000970D01*
X150768082Y-61966857D01*
X150567955Y-61966857D01*
X150622447Y-61999439D01*
X150732889Y-62066312D01*
X150852889Y-62140184D01*
X150904222Y-62172228D01*
X151073981Y-62267652D01*
X151283505Y-62368016D01*
X151517206Y-62467234D01*
X151759491Y-62559215D01*
X151994772Y-62637873D01*
X152207457Y-62697118D01*
X152300883Y-62717642D01*
X152434987Y-62736967D01*
X152606597Y-62751670D01*
X152804531Y-62761753D01*
X153017608Y-62767218D01*
X153234647Y-62768067D01*
X153444466Y-62764303D01*
G36*
X153010876Y-54773428D02*
X153134597Y-54702929D01*
X153215083Y-54622959D01*
X153268599Y-54553583D01*
X153285201Y-54507469D01*
X153267657Y-54467736D01*
X153244651Y-54442682D01*
X153194117Y-54415362D01*
X153105115Y-54401289D01*
X153007271Y-54398333D01*
X152902646Y-54400236D01*
X152836679Y-54409808D01*
X152791614Y-54432842D01*
X152749696Y-54475133D01*
X152741175Y-54485165D01*
X152680441Y-54582127D01*
X152679194Y-54595453D01*
X152766358Y-54595453D01*
X152769279Y-54585727D01*
X152814997Y-54530155D01*
X152903734Y-54497144D01*
X153040532Y-54484841D01*
X153044125Y-54484789D01*
X153126400Y-54486866D01*
X153164860Y-54498971D01*
X153171867Y-54525650D01*
X153170930Y-54531396D01*
X153139016Y-54582293D01*
X153073583Y-54637697D01*
X152994595Y-54684079D01*
X152922016Y-54707906D01*
X152909221Y-54708778D01*
X152830848Y-54692090D01*
X152778568Y-54650218D01*
X152766358Y-54595453D01*
X152679194Y-54595453D01*
X152672758Y-54664191D01*
X152718048Y-54729323D01*
X152751376Y-54750386D01*
X152881884Y-54789591D01*
X153010876Y-54773428D01*
X153010876Y-54773428D01*
G37*
X153010876Y-54773428D02*
X153134597Y-54702929D01*
X153215083Y-54622959D01*
X153268599Y-54553583D01*
X153285201Y-54507469D01*
X153267657Y-54467736D01*
X153244651Y-54442682D01*
X153194117Y-54415362D01*
X153105115Y-54401289D01*
X153007271Y-54398333D01*
X152902646Y-54400236D01*
X152836679Y-54409808D01*
X152791614Y-54432842D01*
X152749696Y-54475133D01*
X152741175Y-54485165D01*
X152680441Y-54582127D01*
X152679194Y-54595453D01*
X152766358Y-54595453D01*
X152769279Y-54585727D01*
X152814997Y-54530155D01*
X152903734Y-54497144D01*
X153040532Y-54484841D01*
X153044125Y-54484789D01*
X153126400Y-54486866D01*
X153164860Y-54498971D01*
X153171867Y-54525650D01*
X153170930Y-54531396D01*
X153139016Y-54582293D01*
X153073583Y-54637697D01*
X152994595Y-54684079D01*
X152922016Y-54707906D01*
X152909221Y-54708778D01*
X152830848Y-54692090D01*
X152778568Y-54650218D01*
X152766358Y-54595453D01*
X152679194Y-54595453D01*
X152672758Y-54664191D01*
X152718048Y-54729323D01*
X152751376Y-54750386D01*
X152881884Y-54789591D01*
X153010876Y-54773428D01*
G36*
X152128568Y-60474253D02*
X152205771Y-60424220D01*
X152286642Y-60350841D01*
X152357585Y-60266074D01*
X152397099Y-60200127D01*
X152426228Y-60115143D01*
X152440718Y-60024119D01*
X152440303Y-59943075D01*
X152424721Y-59888032D01*
X152402481Y-59873444D01*
X152370582Y-59900246D01*
X152346328Y-59975200D01*
X152343052Y-59993389D01*
X152293886Y-60153780D01*
X152203280Y-60277271D01*
X152103587Y-60349876D01*
X152027459Y-60403297D01*
X152001966Y-60447367D01*
X152028055Y-60478316D01*
X152068631Y-60488983D01*
X152128568Y-60474253D01*
X152128568Y-60474253D01*
G37*
X152128568Y-60474253D02*
X152205771Y-60424220D01*
X152286642Y-60350841D01*
X152357585Y-60266074D01*
X152397099Y-60200127D01*
X152426228Y-60115143D01*
X152440718Y-60024119D01*
X152440303Y-59943075D01*
X152424721Y-59888032D01*
X152402481Y-59873444D01*
X152370582Y-59900246D01*
X152346328Y-59975200D01*
X152343052Y-59993389D01*
X152293886Y-60153780D01*
X152203280Y-60277271D01*
X152103587Y-60349876D01*
X152027459Y-60403297D01*
X152001966Y-60447367D01*
X152028055Y-60478316D01*
X152068631Y-60488983D01*
X152128568Y-60474253D01*
G36*
X155434934Y-58101870D02*
X155444028Y-58067255D01*
X155418684Y-58017781D01*
X155348406Y-57960490D01*
X155240595Y-57921232D01*
X155111825Y-57901964D01*
X154978669Y-57904641D01*
X154857699Y-57931218D01*
X154820056Y-57947147D01*
X154748150Y-57996430D01*
X154728426Y-58044914D01*
X154744605Y-58074087D01*
X154777519Y-58073122D01*
X154843239Y-58052523D01*
X154887109Y-58034521D01*
X154996725Y-57999290D01*
X155102021Y-57998726D01*
X155220495Y-58034445D01*
X155303191Y-58072953D01*
X155386178Y-58104634D01*
X155434934Y-58101870D01*
X155434934Y-58101870D01*
G37*
X155434934Y-58101870D02*
X155444028Y-58067255D01*
X155418684Y-58017781D01*
X155348406Y-57960490D01*
X155240595Y-57921232D01*
X155111825Y-57901964D01*
X154978669Y-57904641D01*
X154857699Y-57931218D01*
X154820056Y-57947147D01*
X154748150Y-57996430D01*
X154728426Y-58044914D01*
X154744605Y-58074087D01*
X154777519Y-58073122D01*
X154843239Y-58052523D01*
X154887109Y-58034521D01*
X154996725Y-57999290D01*
X155102021Y-57998726D01*
X155220495Y-58034445D01*
X155303191Y-58072953D01*
X155386178Y-58104634D01*
X155434934Y-58101870D01*
D13*
G36*
X161349920Y-83278842D02*
X159863581Y-84765181D01*
X157104450Y-82006050D01*
X158590789Y-80519711D01*
X161349920Y-83278842D01*
X161349920Y-83278842D01*
G37*
G36*
X154440198Y-80587954D02*
X154452450Y-80588556D01*
X154470869Y-80588556D01*
X154493149Y-80590750D01*
X154577236Y-80607476D01*
X154598655Y-80613974D01*
X154677871Y-80646785D01*
X154697607Y-80657335D01*
X154768897Y-80704969D01*
X154786208Y-80719176D01*
X154846824Y-80779792D01*
X154861031Y-80797103D01*
X154908665Y-80868393D01*
X154919215Y-80888129D01*
X154952026Y-80967345D01*
X154958524Y-80988764D01*
X154975250Y-81072851D01*
X154977444Y-81095131D01*
X154977444Y-81113550D01*
X154978046Y-81125802D01*
X154979852Y-81144140D01*
X154979852Y-81631860D01*
X154978263Y-81647999D01*
X154975347Y-81657611D01*
X154970612Y-81666469D01*
X154964237Y-81674237D01*
X154951798Y-81684446D01*
X154941432Y-81691372D01*
X154924105Y-81708698D01*
X154910490Y-81729073D01*
X154901112Y-81751711D01*
X154896331Y-81775745D01*
X154896331Y-81800249D01*
X154901111Y-81824283D01*
X154910487Y-81846922D01*
X154924101Y-81867297D01*
X154941427Y-81884624D01*
X154951796Y-81891552D01*
X154964237Y-81901763D01*
X154970612Y-81909531D01*
X154975347Y-81918389D01*
X154978263Y-81928001D01*
X154979852Y-81944140D01*
X154979852Y-82431861D01*
X154978046Y-82450198D01*
X154977444Y-82462450D01*
X154977444Y-82480869D01*
X154975250Y-82503149D01*
X154958524Y-82587236D01*
X154952026Y-82608655D01*
X154919215Y-82687871D01*
X154908665Y-82707607D01*
X154861031Y-82778897D01*
X154846824Y-82796208D01*
X154786208Y-82856824D01*
X154768897Y-82871031D01*
X154697607Y-82918665D01*
X154677871Y-82929215D01*
X154598655Y-82962026D01*
X154577236Y-82968524D01*
X154493149Y-82985250D01*
X154470869Y-82987444D01*
X154452450Y-82987444D01*
X154440198Y-82988046D01*
X154421861Y-82989852D01*
X153934139Y-82989852D01*
X153915802Y-82988046D01*
X153903550Y-82987444D01*
X153885131Y-82987444D01*
X153862851Y-82985250D01*
X153778764Y-82968524D01*
X153757345Y-82962026D01*
X153678129Y-82929215D01*
X153658393Y-82918665D01*
X153587103Y-82871031D01*
X153569792Y-82856824D01*
X153509176Y-82796208D01*
X153494969Y-82778897D01*
X153447335Y-82707607D01*
X153436785Y-82687871D01*
X153403974Y-82608655D01*
X153397476Y-82587236D01*
X153380750Y-82503149D01*
X153378556Y-82480869D01*
X153378556Y-82462450D01*
X153377954Y-82450198D01*
X153376148Y-82431861D01*
X153376148Y-81944140D01*
X153377737Y-81928001D01*
X153380653Y-81918389D01*
X153385388Y-81909531D01*
X153391763Y-81901763D01*
X153404202Y-81891554D01*
X153414568Y-81884628D01*
X153431895Y-81867302D01*
X153445510Y-81846927D01*
X153454888Y-81824289D01*
X153459669Y-81800255D01*
X153459669Y-81775751D01*
X153454889Y-81751717D01*
X153445513Y-81729078D01*
X153431899Y-81708703D01*
X153414573Y-81691376D01*
X153404204Y-81684448D01*
X153391763Y-81674237D01*
X153385388Y-81666469D01*
X153380653Y-81657611D01*
X153377737Y-81647999D01*
X153376148Y-81631860D01*
X153376148Y-81144140D01*
X153377954Y-81125802D01*
X153378556Y-81113550D01*
X153378556Y-81095131D01*
X153380750Y-81072851D01*
X153397476Y-80988764D01*
X153403974Y-80967345D01*
X153436785Y-80888129D01*
X153447335Y-80868393D01*
X153494969Y-80797103D01*
X153509176Y-80779792D01*
X153569792Y-80719176D01*
X153587103Y-80704969D01*
X153658393Y-80657335D01*
X153678129Y-80646785D01*
X153757345Y-80613974D01*
X153778764Y-80607476D01*
X153862851Y-80590750D01*
X153885131Y-80588556D01*
X153903550Y-80588556D01*
X153915802Y-80587954D01*
X153934140Y-80586148D01*
X154421860Y-80586148D01*
X154440198Y-80587954D01*
X154440198Y-80587954D01*
G37*
G36*
X146312198Y-80587954D02*
X146324450Y-80588556D01*
X146342869Y-80588556D01*
X146365149Y-80590750D01*
X146449236Y-80607476D01*
X146470655Y-80613974D01*
X146549871Y-80646785D01*
X146569607Y-80657335D01*
X146640897Y-80704969D01*
X146658208Y-80719176D01*
X146718824Y-80779792D01*
X146733031Y-80797103D01*
X146780665Y-80868393D01*
X146791215Y-80888129D01*
X146824026Y-80967345D01*
X146830524Y-80988764D01*
X146847250Y-81072851D01*
X146849444Y-81095131D01*
X146849444Y-81113550D01*
X146850046Y-81125802D01*
X146851852Y-81144140D01*
X146851852Y-81631860D01*
X146850263Y-81647999D01*
X146847347Y-81657611D01*
X146842612Y-81666469D01*
X146836237Y-81674237D01*
X146823798Y-81684446D01*
X146813432Y-81691372D01*
X146796105Y-81708698D01*
X146782490Y-81729073D01*
X146773112Y-81751711D01*
X146768331Y-81775745D01*
X146768331Y-81800249D01*
X146773111Y-81824283D01*
X146782487Y-81846922D01*
X146796101Y-81867297D01*
X146813427Y-81884624D01*
X146823796Y-81891552D01*
X146836237Y-81901763D01*
X146842612Y-81909531D01*
X146847347Y-81918389D01*
X146850263Y-81928001D01*
X146851852Y-81944140D01*
X146851852Y-82431861D01*
X146850046Y-82450198D01*
X146849444Y-82462450D01*
X146849444Y-82480869D01*
X146847250Y-82503149D01*
X146830524Y-82587236D01*
X146824026Y-82608655D01*
X146791215Y-82687871D01*
X146780665Y-82707607D01*
X146733031Y-82778897D01*
X146718824Y-82796208D01*
X146658208Y-82856824D01*
X146640897Y-82871031D01*
X146569607Y-82918665D01*
X146549871Y-82929215D01*
X146470655Y-82962026D01*
X146449236Y-82968524D01*
X146365149Y-82985250D01*
X146342869Y-82987444D01*
X146324450Y-82987444D01*
X146312198Y-82988046D01*
X146293861Y-82989852D01*
X145806139Y-82989852D01*
X145787802Y-82988046D01*
X145775550Y-82987444D01*
X145757131Y-82987444D01*
X145734851Y-82985250D01*
X145650764Y-82968524D01*
X145629345Y-82962026D01*
X145550129Y-82929215D01*
X145530393Y-82918665D01*
X145459103Y-82871031D01*
X145441792Y-82856824D01*
X145381176Y-82796208D01*
X145366969Y-82778897D01*
X145319335Y-82707607D01*
X145308785Y-82687871D01*
X145275974Y-82608655D01*
X145269476Y-82587236D01*
X145252750Y-82503149D01*
X145250556Y-82480869D01*
X145250556Y-82462450D01*
X145249954Y-82450198D01*
X145248148Y-82431861D01*
X145248148Y-81944140D01*
X145249737Y-81928001D01*
X145252653Y-81918389D01*
X145257388Y-81909531D01*
X145263763Y-81901763D01*
X145276202Y-81891554D01*
X145286568Y-81884628D01*
X145303895Y-81867302D01*
X145317510Y-81846927D01*
X145326888Y-81824289D01*
X145331669Y-81800255D01*
X145331669Y-81775751D01*
X145326889Y-81751717D01*
X145317513Y-81729078D01*
X145303899Y-81708703D01*
X145286573Y-81691376D01*
X145276204Y-81684448D01*
X145263763Y-81674237D01*
X145257388Y-81666469D01*
X145252653Y-81657611D01*
X145249737Y-81647999D01*
X145248148Y-81631860D01*
X145248148Y-81144140D01*
X145249954Y-81125802D01*
X145250556Y-81113550D01*
X145250556Y-81095131D01*
X145252750Y-81072851D01*
X145269476Y-80988764D01*
X145275974Y-80967345D01*
X145308785Y-80888129D01*
X145319335Y-80868393D01*
X145366969Y-80797103D01*
X145381176Y-80779792D01*
X145441792Y-80719176D01*
X145459103Y-80704969D01*
X145530393Y-80657335D01*
X145550129Y-80646785D01*
X145629345Y-80613974D01*
X145650764Y-80607476D01*
X145734851Y-80590750D01*
X145757131Y-80588556D01*
X145775550Y-80588556D01*
X145787802Y-80587954D01*
X145806140Y-80586148D01*
X146293860Y-80586148D01*
X146312198Y-80587954D01*
X146312198Y-80587954D01*
G37*
G36*
X148344198Y-80587954D02*
X148356450Y-80588556D01*
X148374869Y-80588556D01*
X148397149Y-80590750D01*
X148481236Y-80607476D01*
X148502655Y-80613974D01*
X148581871Y-80646785D01*
X148601607Y-80657335D01*
X148672897Y-80704969D01*
X148690208Y-80719176D01*
X148750824Y-80779792D01*
X148765031Y-80797103D01*
X148812665Y-80868393D01*
X148823215Y-80888129D01*
X148856026Y-80967345D01*
X148862524Y-80988764D01*
X148879250Y-81072851D01*
X148881444Y-81095131D01*
X148881444Y-81113550D01*
X148882046Y-81125802D01*
X148883852Y-81144140D01*
X148883852Y-81631860D01*
X148882263Y-81647999D01*
X148879347Y-81657611D01*
X148874612Y-81666469D01*
X148868237Y-81674237D01*
X148855798Y-81684446D01*
X148845432Y-81691372D01*
X148828105Y-81708698D01*
X148814490Y-81729073D01*
X148805112Y-81751711D01*
X148800331Y-81775745D01*
X148800331Y-81800249D01*
X148805111Y-81824283D01*
X148814487Y-81846922D01*
X148828101Y-81867297D01*
X148845427Y-81884624D01*
X148855796Y-81891552D01*
X148868237Y-81901763D01*
X148874612Y-81909531D01*
X148879347Y-81918389D01*
X148882263Y-81928001D01*
X148883852Y-81944140D01*
X148883852Y-82431861D01*
X148882046Y-82450198D01*
X148881444Y-82462450D01*
X148881444Y-82480869D01*
X148879250Y-82503149D01*
X148862524Y-82587236D01*
X148856026Y-82608655D01*
X148823215Y-82687871D01*
X148812665Y-82707607D01*
X148765031Y-82778897D01*
X148750824Y-82796208D01*
X148690208Y-82856824D01*
X148672897Y-82871031D01*
X148601607Y-82918665D01*
X148581871Y-82929215D01*
X148502655Y-82962026D01*
X148481236Y-82968524D01*
X148397149Y-82985250D01*
X148374869Y-82987444D01*
X148356450Y-82987444D01*
X148344198Y-82988046D01*
X148325861Y-82989852D01*
X147838139Y-82989852D01*
X147819802Y-82988046D01*
X147807550Y-82987444D01*
X147789131Y-82987444D01*
X147766851Y-82985250D01*
X147682764Y-82968524D01*
X147661345Y-82962026D01*
X147582129Y-82929215D01*
X147562393Y-82918665D01*
X147491103Y-82871031D01*
X147473792Y-82856824D01*
X147413176Y-82796208D01*
X147398969Y-82778897D01*
X147351335Y-82707607D01*
X147340785Y-82687871D01*
X147307974Y-82608655D01*
X147301476Y-82587236D01*
X147284750Y-82503149D01*
X147282556Y-82480869D01*
X147282556Y-82462450D01*
X147281954Y-82450198D01*
X147280148Y-82431861D01*
X147280148Y-81944140D01*
X147281737Y-81928001D01*
X147284653Y-81918389D01*
X147289388Y-81909531D01*
X147295763Y-81901763D01*
X147308202Y-81891554D01*
X147318568Y-81884628D01*
X147335895Y-81867302D01*
X147349510Y-81846927D01*
X147358888Y-81824289D01*
X147363669Y-81800255D01*
X147363669Y-81775751D01*
X147358889Y-81751717D01*
X147349513Y-81729078D01*
X147335899Y-81708703D01*
X147318573Y-81691376D01*
X147308204Y-81684448D01*
X147295763Y-81674237D01*
X147289388Y-81666469D01*
X147284653Y-81657611D01*
X147281737Y-81647999D01*
X147280148Y-81631860D01*
X147280148Y-81144140D01*
X147281954Y-81125802D01*
X147282556Y-81113550D01*
X147282556Y-81095131D01*
X147284750Y-81072851D01*
X147301476Y-80988764D01*
X147307974Y-80967345D01*
X147340785Y-80888129D01*
X147351335Y-80868393D01*
X147398969Y-80797103D01*
X147413176Y-80779792D01*
X147473792Y-80719176D01*
X147491103Y-80704969D01*
X147562393Y-80657335D01*
X147582129Y-80646785D01*
X147661345Y-80613974D01*
X147682764Y-80607476D01*
X147766851Y-80590750D01*
X147789131Y-80588556D01*
X147807550Y-80588556D01*
X147819802Y-80587954D01*
X147838140Y-80586148D01*
X148325860Y-80586148D01*
X148344198Y-80587954D01*
X148344198Y-80587954D01*
G37*
G36*
X150376198Y-80587954D02*
X150388450Y-80588556D01*
X150406869Y-80588556D01*
X150429149Y-80590750D01*
X150513236Y-80607476D01*
X150534655Y-80613974D01*
X150613871Y-80646785D01*
X150633607Y-80657335D01*
X150704897Y-80704969D01*
X150722208Y-80719176D01*
X150782824Y-80779792D01*
X150797031Y-80797103D01*
X150844665Y-80868393D01*
X150855215Y-80888129D01*
X150888026Y-80967345D01*
X150894524Y-80988764D01*
X150911250Y-81072851D01*
X150913444Y-81095131D01*
X150913444Y-81113550D01*
X150914046Y-81125802D01*
X150915852Y-81144140D01*
X150915852Y-81631860D01*
X150914263Y-81647999D01*
X150911347Y-81657611D01*
X150906612Y-81666469D01*
X150900237Y-81674237D01*
X150887798Y-81684446D01*
X150877432Y-81691372D01*
X150860105Y-81708698D01*
X150846490Y-81729073D01*
X150837112Y-81751711D01*
X150832331Y-81775745D01*
X150832331Y-81800249D01*
X150837111Y-81824283D01*
X150846487Y-81846922D01*
X150860101Y-81867297D01*
X150877427Y-81884624D01*
X150887796Y-81891552D01*
X150900237Y-81901763D01*
X150906612Y-81909531D01*
X150911347Y-81918389D01*
X150914263Y-81928001D01*
X150915852Y-81944140D01*
X150915852Y-82431861D01*
X150914046Y-82450198D01*
X150913444Y-82462450D01*
X150913444Y-82480869D01*
X150911250Y-82503149D01*
X150894524Y-82587236D01*
X150888026Y-82608655D01*
X150855215Y-82687871D01*
X150844665Y-82707607D01*
X150797031Y-82778897D01*
X150782824Y-82796208D01*
X150722208Y-82856824D01*
X150704897Y-82871031D01*
X150633607Y-82918665D01*
X150613871Y-82929215D01*
X150534655Y-82962026D01*
X150513236Y-82968524D01*
X150429149Y-82985250D01*
X150406869Y-82987444D01*
X150388450Y-82987444D01*
X150376198Y-82988046D01*
X150357861Y-82989852D01*
X149870139Y-82989852D01*
X149851802Y-82988046D01*
X149839550Y-82987444D01*
X149821131Y-82987444D01*
X149798851Y-82985250D01*
X149714764Y-82968524D01*
X149693345Y-82962026D01*
X149614129Y-82929215D01*
X149594393Y-82918665D01*
X149523103Y-82871031D01*
X149505792Y-82856824D01*
X149445176Y-82796208D01*
X149430969Y-82778897D01*
X149383335Y-82707607D01*
X149372785Y-82687871D01*
X149339974Y-82608655D01*
X149333476Y-82587236D01*
X149316750Y-82503149D01*
X149314556Y-82480869D01*
X149314556Y-82462450D01*
X149313954Y-82450198D01*
X149312148Y-82431861D01*
X149312148Y-81944140D01*
X149313737Y-81928001D01*
X149316653Y-81918389D01*
X149321388Y-81909531D01*
X149327763Y-81901763D01*
X149340202Y-81891554D01*
X149350568Y-81884628D01*
X149367895Y-81867302D01*
X149381510Y-81846927D01*
X149390888Y-81824289D01*
X149395669Y-81800255D01*
X149395669Y-81775751D01*
X149390889Y-81751717D01*
X149381513Y-81729078D01*
X149367899Y-81708703D01*
X149350573Y-81691376D01*
X149340204Y-81684448D01*
X149327763Y-81674237D01*
X149321388Y-81666469D01*
X149316653Y-81657611D01*
X149313737Y-81647999D01*
X149312148Y-81631860D01*
X149312148Y-81144140D01*
X149313954Y-81125802D01*
X149314556Y-81113550D01*
X149314556Y-81095131D01*
X149316750Y-81072851D01*
X149333476Y-80988764D01*
X149339974Y-80967345D01*
X149372785Y-80888129D01*
X149383335Y-80868393D01*
X149430969Y-80797103D01*
X149445176Y-80779792D01*
X149505792Y-80719176D01*
X149523103Y-80704969D01*
X149594393Y-80657335D01*
X149614129Y-80646785D01*
X149693345Y-80613974D01*
X149714764Y-80607476D01*
X149798851Y-80590750D01*
X149821131Y-80588556D01*
X149839550Y-80588556D01*
X149851802Y-80587954D01*
X149870140Y-80586148D01*
X150357860Y-80586148D01*
X150376198Y-80587954D01*
X150376198Y-80587954D01*
G37*
G36*
X152408198Y-80587954D02*
X152420450Y-80588556D01*
X152438869Y-80588556D01*
X152461149Y-80590750D01*
X152545236Y-80607476D01*
X152566655Y-80613974D01*
X152645871Y-80646785D01*
X152665607Y-80657335D01*
X152736897Y-80704969D01*
X152754208Y-80719176D01*
X152814824Y-80779792D01*
X152829031Y-80797103D01*
X152876665Y-80868393D01*
X152887215Y-80888129D01*
X152920026Y-80967345D01*
X152926524Y-80988764D01*
X152943250Y-81072851D01*
X152945444Y-81095131D01*
X152945444Y-81113550D01*
X152946046Y-81125802D01*
X152947852Y-81144140D01*
X152947852Y-81631860D01*
X152946263Y-81647999D01*
X152943347Y-81657611D01*
X152938612Y-81666469D01*
X152932237Y-81674237D01*
X152919798Y-81684446D01*
X152909432Y-81691372D01*
X152892105Y-81708698D01*
X152878490Y-81729073D01*
X152869112Y-81751711D01*
X152864331Y-81775745D01*
X152864331Y-81800249D01*
X152869111Y-81824283D01*
X152878487Y-81846922D01*
X152892101Y-81867297D01*
X152909427Y-81884624D01*
X152919796Y-81891552D01*
X152932237Y-81901763D01*
X152938612Y-81909531D01*
X152943347Y-81918389D01*
X152946263Y-81928001D01*
X152947852Y-81944140D01*
X152947852Y-82431861D01*
X152946046Y-82450198D01*
X152945444Y-82462450D01*
X152945444Y-82480869D01*
X152943250Y-82503149D01*
X152926524Y-82587236D01*
X152920026Y-82608655D01*
X152887215Y-82687871D01*
X152876665Y-82707607D01*
X152829031Y-82778897D01*
X152814824Y-82796208D01*
X152754208Y-82856824D01*
X152736897Y-82871031D01*
X152665607Y-82918665D01*
X152645871Y-82929215D01*
X152566655Y-82962026D01*
X152545236Y-82968524D01*
X152461149Y-82985250D01*
X152438869Y-82987444D01*
X152420450Y-82987444D01*
X152408198Y-82988046D01*
X152389861Y-82989852D01*
X151902139Y-82989852D01*
X151883802Y-82988046D01*
X151871550Y-82987444D01*
X151853131Y-82987444D01*
X151830851Y-82985250D01*
X151746764Y-82968524D01*
X151725345Y-82962026D01*
X151646129Y-82929215D01*
X151626393Y-82918665D01*
X151555103Y-82871031D01*
X151537792Y-82856824D01*
X151477176Y-82796208D01*
X151462969Y-82778897D01*
X151415335Y-82707607D01*
X151404785Y-82687871D01*
X151371974Y-82608655D01*
X151365476Y-82587236D01*
X151348750Y-82503149D01*
X151346556Y-82480869D01*
X151346556Y-82462450D01*
X151345954Y-82450198D01*
X151344148Y-82431861D01*
X151344148Y-81944140D01*
X151345737Y-81928001D01*
X151348653Y-81918389D01*
X151353388Y-81909531D01*
X151359763Y-81901763D01*
X151372202Y-81891554D01*
X151382568Y-81884628D01*
X151399895Y-81867302D01*
X151413510Y-81846927D01*
X151422888Y-81824289D01*
X151427669Y-81800255D01*
X151427669Y-81775751D01*
X151422889Y-81751717D01*
X151413513Y-81729078D01*
X151399899Y-81708703D01*
X151382573Y-81691376D01*
X151372204Y-81684448D01*
X151359763Y-81674237D01*
X151353388Y-81666469D01*
X151348653Y-81657611D01*
X151345737Y-81647999D01*
X151344148Y-81631860D01*
X151344148Y-81144140D01*
X151345954Y-81125802D01*
X151346556Y-81113550D01*
X151346556Y-81095131D01*
X151348750Y-81072851D01*
X151365476Y-80988764D01*
X151371974Y-80967345D01*
X151404785Y-80888129D01*
X151415335Y-80868393D01*
X151462969Y-80797103D01*
X151477176Y-80779792D01*
X151537792Y-80719176D01*
X151555103Y-80704969D01*
X151626393Y-80657335D01*
X151646129Y-80646785D01*
X151725345Y-80613974D01*
X151746764Y-80607476D01*
X151830851Y-80590750D01*
X151853131Y-80588556D01*
X151871550Y-80588556D01*
X151883802Y-80587954D01*
X151902140Y-80586148D01*
X152389860Y-80586148D01*
X152408198Y-80587954D01*
X152408198Y-80587954D01*
G37*
G36*
X163505181Y-81123581D02*
X162018842Y-82609920D01*
X159259711Y-79850789D01*
X160746050Y-78364450D01*
X163505181Y-81123581D01*
X163505181Y-81123581D01*
G37*
G36*
X165660443Y-78968319D02*
X164174104Y-80454658D01*
X161414973Y-77695527D01*
X162901312Y-76209188D01*
X165660443Y-78968319D01*
X165660443Y-78968319D01*
G37*
G36*
X167815704Y-76813058D02*
X166329365Y-78299397D01*
X163570234Y-75540266D01*
X165056573Y-74053927D01*
X167815704Y-76813058D01*
X167815704Y-76813058D01*
G37*
G36*
X145069000Y-76401000D02*
X142967000Y-76401000D01*
X142967000Y-71799000D01*
X145069000Y-71799000D01*
X145069000Y-76401000D01*
X145069000Y-76401000D01*
G37*
G36*
X155526000Y-74951000D02*
X149274000Y-74951000D01*
X149274000Y-73249000D01*
X155526000Y-73249000D01*
X155526000Y-74951000D01*
X155526000Y-74951000D01*
G37*
G36*
X149001000Y-72976000D02*
X147299000Y-72976000D01*
X147299000Y-66724000D01*
X149001000Y-66724000D01*
X149001000Y-72976000D01*
X149001000Y-72976000D01*
G37*
G36*
X157501000Y-72976000D02*
X155799000Y-72976000D01*
X155799000Y-66724000D01*
X157501000Y-66724000D01*
X157501000Y-72976000D01*
X157501000Y-72976000D01*
G37*
G36*
X167574600Y-72915600D02*
X164322600Y-72915600D01*
X164322600Y-71813600D01*
X167574600Y-71813600D01*
X167574600Y-72915600D01*
X167574600Y-72915600D01*
G37*
G36*
X162524600Y-72915600D02*
X159272600Y-72915600D01*
X159272600Y-71813600D01*
X162524600Y-71813600D01*
X162524600Y-72915600D01*
X162524600Y-72915600D01*
G37*
G36*
X139724991Y-70650101D02*
X139810321Y-70658505D01*
X139947172Y-70700019D01*
X139947174Y-70700020D01*
X139947177Y-70700021D01*
X140073296Y-70767432D01*
X140183843Y-70858157D01*
X140274568Y-70968704D01*
X140341979Y-71094823D01*
X140341980Y-71094826D01*
X140341981Y-71094828D01*
X140383495Y-71231679D01*
X140397512Y-71374000D01*
X140383495Y-71516321D01*
X140341981Y-71653172D01*
X140341979Y-71653177D01*
X140274568Y-71779296D01*
X140183843Y-71889843D01*
X140073296Y-71980568D01*
X139947177Y-72047979D01*
X139947174Y-72047980D01*
X139947172Y-72047981D01*
X139810321Y-72089495D01*
X139724991Y-72097899D01*
X139703660Y-72100000D01*
X139632340Y-72100000D01*
X139611009Y-72097899D01*
X139525679Y-72089495D01*
X139388828Y-72047981D01*
X139388826Y-72047980D01*
X139388823Y-72047979D01*
X139262704Y-71980568D01*
X139152157Y-71889843D01*
X139061432Y-71779296D01*
X138994021Y-71653177D01*
X138994019Y-71653172D01*
X138952505Y-71516321D01*
X138938488Y-71374000D01*
X138952505Y-71231679D01*
X138994019Y-71094828D01*
X138994020Y-71094826D01*
X138994021Y-71094823D01*
X139061432Y-70968704D01*
X139152157Y-70858157D01*
X139262704Y-70767432D01*
X139388823Y-70700021D01*
X139388826Y-70700020D01*
X139388828Y-70700019D01*
X139525679Y-70658505D01*
X139611009Y-70650101D01*
X139632340Y-70648000D01*
X139703660Y-70648000D01*
X139724991Y-70650101D01*
X139724991Y-70650101D01*
G37*
G36*
X138394000Y-72100000D02*
X136942000Y-72100000D01*
X136942000Y-70648000D01*
X138394000Y-70648000D01*
X138394000Y-72100000D01*
X138394000Y-72100000D01*
G37*
G36*
X167574600Y-70375600D02*
X164322600Y-70375600D01*
X164322600Y-69273600D01*
X167574600Y-69273600D01*
X167574600Y-70375600D01*
X167574600Y-70375600D01*
G37*
G36*
X162524600Y-70375600D02*
X159272600Y-70375600D01*
X159272600Y-69273600D01*
X162524600Y-69273600D01*
X162524600Y-70375600D01*
X162524600Y-70375600D01*
G37*
G36*
X139958242Y-66663404D02*
X139995339Y-66674657D01*
X140029520Y-66692927D01*
X140059482Y-66717518D01*
X140084073Y-66747480D01*
X140102343Y-66781661D01*
X140113596Y-66818758D01*
X140118000Y-66863473D01*
X140118000Y-67756527D01*
X140113596Y-67801242D01*
X140102343Y-67838339D01*
X140084073Y-67872520D01*
X140059482Y-67902482D01*
X140029520Y-67927073D01*
X139995339Y-67945343D01*
X139958242Y-67956596D01*
X139913527Y-67961000D01*
X138470473Y-67961000D01*
X138425758Y-67956596D01*
X138388661Y-67945343D01*
X138354480Y-67927073D01*
X138324518Y-67902482D01*
X138299927Y-67872520D01*
X138281657Y-67838339D01*
X138270404Y-67801242D01*
X138266000Y-67756527D01*
X138266000Y-66863473D01*
X138270404Y-66818758D01*
X138281657Y-66781661D01*
X138299927Y-66747480D01*
X138324518Y-66717518D01*
X138354480Y-66692927D01*
X138388661Y-66674657D01*
X138425758Y-66663404D01*
X138470473Y-66659000D01*
X139913527Y-66659000D01*
X139958242Y-66663404D01*
X139958242Y-66663404D01*
G37*
G36*
X145069000Y-67901000D02*
X142967000Y-67901000D01*
X142967000Y-63299000D01*
X145069000Y-63299000D01*
X145069000Y-67901000D01*
X145069000Y-67901000D01*
G37*
G36*
X167574600Y-67835600D02*
X164322600Y-67835600D01*
X164322600Y-66733600D01*
X167574600Y-66733600D01*
X167574600Y-67835600D01*
X167574600Y-67835600D01*
G37*
G36*
X162524600Y-67835600D02*
X159272600Y-67835600D01*
X159272600Y-66733600D01*
X162524600Y-66733600D01*
X162524600Y-67835600D01*
X162524600Y-67835600D01*
G37*
G36*
X155526000Y-66451000D02*
X149274000Y-66451000D01*
X149274000Y-64749000D01*
X155526000Y-64749000D01*
X155526000Y-66451000D01*
X155526000Y-66451000D01*
G37*
G36*
X139530855Y-64662140D02*
X139594618Y-64668420D01*
X139676427Y-64693237D01*
X139717333Y-64705645D01*
X139798444Y-64749000D01*
X139830426Y-64766095D01*
X139929553Y-64847447D01*
X140010905Y-64946574D01*
X140010906Y-64946576D01*
X140071355Y-65059667D01*
X140071355Y-65059668D01*
X140108580Y-65182382D01*
X140121149Y-65310000D01*
X140108580Y-65437618D01*
X140083763Y-65519427D01*
X140071355Y-65560333D01*
X140017819Y-65660491D01*
X140010905Y-65673426D01*
X139929553Y-65772553D01*
X139830426Y-65853905D01*
X139830424Y-65853906D01*
X139717333Y-65914355D01*
X139676427Y-65926763D01*
X139594618Y-65951580D01*
X139530855Y-65957860D01*
X139498974Y-65961000D01*
X138885026Y-65961000D01*
X138853145Y-65957860D01*
X138789382Y-65951580D01*
X138707573Y-65926763D01*
X138666667Y-65914355D01*
X138553576Y-65853906D01*
X138553574Y-65853905D01*
X138454447Y-65772553D01*
X138373095Y-65673426D01*
X138366181Y-65660491D01*
X138312645Y-65560333D01*
X138300237Y-65519427D01*
X138275420Y-65437618D01*
X138262851Y-65310000D01*
X138275420Y-65182382D01*
X138312645Y-65059668D01*
X138312645Y-65059667D01*
X138373094Y-64946576D01*
X138373095Y-64946574D01*
X138454447Y-64847447D01*
X138553574Y-64766095D01*
X138585556Y-64749000D01*
X138666667Y-64705645D01*
X138707573Y-64693237D01*
X138789382Y-64668420D01*
X138853145Y-64662140D01*
X138885026Y-64659000D01*
X139498974Y-64659000D01*
X139530855Y-64662140D01*
X139530855Y-64662140D01*
G37*
G36*
X142316466Y-61061064D02*
X142355137Y-61072795D01*
X142390779Y-61091847D01*
X142422017Y-61117482D01*
X142447652Y-61148720D01*
X142466704Y-61184362D01*
X142478435Y-61223033D01*
X142483000Y-61269387D01*
X142483000Y-61920611D01*
X142478435Y-61966965D01*
X142466704Y-62005636D01*
X142447652Y-62041278D01*
X142422017Y-62072516D01*
X142390779Y-62098151D01*
X142355137Y-62117203D01*
X142316466Y-62128934D01*
X142270112Y-62133499D01*
X141193888Y-62133499D01*
X141147534Y-62128934D01*
X141108863Y-62117203D01*
X141073221Y-62098151D01*
X141041983Y-62072516D01*
X141016348Y-62041278D01*
X140997296Y-62005636D01*
X140985565Y-61966965D01*
X140981000Y-61920611D01*
X140981000Y-61269387D01*
X140985565Y-61223033D01*
X140997296Y-61184362D01*
X141016348Y-61148720D01*
X141041983Y-61117482D01*
X141073221Y-61091847D01*
X141108863Y-61072795D01*
X141147534Y-61061064D01*
X141193888Y-61056499D01*
X142270112Y-61056499D01*
X142316466Y-61061064D01*
X142316466Y-61061064D01*
G37*
G36*
X144284966Y-61046065D02*
X144323637Y-61057796D01*
X144359279Y-61076848D01*
X144390517Y-61102483D01*
X144416152Y-61133721D01*
X144435204Y-61169363D01*
X144446935Y-61208034D01*
X144451500Y-61254388D01*
X144451500Y-61905612D01*
X144446935Y-61951966D01*
X144435204Y-61990637D01*
X144416152Y-62026279D01*
X144390517Y-62057517D01*
X144359279Y-62083152D01*
X144323637Y-62102204D01*
X144284966Y-62113935D01*
X144238612Y-62118500D01*
X143162388Y-62118500D01*
X143116034Y-62113935D01*
X143077363Y-62102204D01*
X143041721Y-62083152D01*
X143010483Y-62057517D01*
X142984848Y-62026279D01*
X142965796Y-61990637D01*
X142954065Y-61951966D01*
X142949500Y-61905612D01*
X142949500Y-61254388D01*
X142954065Y-61208034D01*
X142965796Y-61169363D01*
X142984848Y-61133721D01*
X143010483Y-61102483D01*
X143041721Y-61076848D01*
X143077363Y-61057796D01*
X143116034Y-61046065D01*
X143162388Y-61041500D01*
X144238612Y-61041500D01*
X144284966Y-61046065D01*
X144284966Y-61046065D01*
G37*
G36*
X142316466Y-59186064D02*
X142355137Y-59197795D01*
X142390779Y-59216847D01*
X142422017Y-59242482D01*
X142447652Y-59273720D01*
X142466704Y-59309362D01*
X142478435Y-59348033D01*
X142483000Y-59394387D01*
X142483000Y-60045611D01*
X142478435Y-60091965D01*
X142466704Y-60130636D01*
X142447652Y-60166278D01*
X142422017Y-60197516D01*
X142390779Y-60223151D01*
X142355137Y-60242203D01*
X142316466Y-60253934D01*
X142270112Y-60258499D01*
X141193888Y-60258499D01*
X141147534Y-60253934D01*
X141108863Y-60242203D01*
X141073221Y-60223151D01*
X141041983Y-60197516D01*
X141016348Y-60166278D01*
X140997296Y-60130636D01*
X140985565Y-60091965D01*
X140981000Y-60045611D01*
X140981000Y-59394387D01*
X140985565Y-59348033D01*
X140997296Y-59309362D01*
X141016348Y-59273720D01*
X141041983Y-59242482D01*
X141073221Y-59216847D01*
X141108863Y-59197795D01*
X141147534Y-59186064D01*
X141193888Y-59181499D01*
X142270112Y-59181499D01*
X142316466Y-59186064D01*
X142316466Y-59186064D01*
G37*
G36*
X144284966Y-59171065D02*
X144323637Y-59182796D01*
X144359279Y-59201848D01*
X144390517Y-59227483D01*
X144416152Y-59258721D01*
X144435204Y-59294363D01*
X144446935Y-59333034D01*
X144451500Y-59379388D01*
X144451500Y-60030612D01*
X144446935Y-60076966D01*
X144435204Y-60115637D01*
X144416152Y-60151279D01*
X144390517Y-60182517D01*
X144359279Y-60208152D01*
X144323637Y-60227204D01*
X144284966Y-60238935D01*
X144238612Y-60243500D01*
X143162388Y-60243500D01*
X143116034Y-60238935D01*
X143077363Y-60227204D01*
X143041721Y-60208152D01*
X143010483Y-60182517D01*
X142984848Y-60151279D01*
X142965796Y-60115637D01*
X142954065Y-60076966D01*
X142949500Y-60030612D01*
X142949500Y-59379388D01*
X142954065Y-59333034D01*
X142965796Y-59294363D01*
X142984848Y-59258721D01*
X143010483Y-59227483D01*
X143041721Y-59201848D01*
X143077363Y-59182796D01*
X143116034Y-59171065D01*
X143162388Y-59166500D01*
X144238612Y-59166500D01*
X144284966Y-59171065D01*
X144284966Y-59171065D01*
G37*
G36*
X142009396Y-56489546D02*
X142182466Y-56561234D01*
X142338230Y-56665312D01*
X142470688Y-56797770D01*
X142574766Y-56953534D01*
X142646454Y-57126604D01*
X142683000Y-57310333D01*
X142683000Y-57497667D01*
X142646454Y-57681396D01*
X142574766Y-57854466D01*
X142470688Y-58010230D01*
X142338230Y-58142688D01*
X142182466Y-58246766D01*
X142009396Y-58318454D01*
X141825667Y-58355000D01*
X141638333Y-58355000D01*
X141454604Y-58318454D01*
X141281534Y-58246766D01*
X141125770Y-58142688D01*
X140993312Y-58010230D01*
X140889234Y-57854466D01*
X140817546Y-57681396D01*
X140781000Y-57497667D01*
X140781000Y-57310333D01*
X140817546Y-57126604D01*
X140889234Y-56953534D01*
X140993312Y-56797770D01*
X141125770Y-56665312D01*
X141281534Y-56561234D01*
X141454604Y-56489546D01*
X141638333Y-56453000D01*
X141825667Y-56453000D01*
X142009396Y-56489546D01*
X142009396Y-56489546D01*
G37*
G36*
X147624458Y-56456897D02*
X147656601Y-56466648D01*
X147686236Y-56482488D01*
X147712202Y-56503798D01*
X147733512Y-56529764D01*
X147749352Y-56559399D01*
X147759103Y-56591542D01*
X147763000Y-56631115D01*
X147763000Y-58176885D01*
X147759103Y-58216458D01*
X147749352Y-58248601D01*
X147733512Y-58278236D01*
X147712202Y-58304202D01*
X147686236Y-58325512D01*
X147656601Y-58341352D01*
X147624458Y-58351103D01*
X147584885Y-58355000D01*
X146039115Y-58355000D01*
X145999542Y-58351103D01*
X145967399Y-58341352D01*
X145937764Y-58325512D01*
X145911798Y-58304202D01*
X145890488Y-58278236D01*
X145874648Y-58248601D01*
X145864897Y-58216458D01*
X145861000Y-58176885D01*
X145861000Y-56631115D01*
X145864897Y-56591542D01*
X145874648Y-56559399D01*
X145890488Y-56529764D01*
X145911798Y-56503798D01*
X145937764Y-56482488D01*
X145967399Y-56466648D01*
X145999542Y-56456897D01*
X146039115Y-56453000D01*
X147584885Y-56453000D01*
X147624458Y-56456897D01*
X147624458Y-56456897D01*
G37*
G36*
X144549396Y-56489546D02*
X144722466Y-56561234D01*
X144878230Y-56665312D01*
X145010688Y-56797770D01*
X145114766Y-56953534D01*
X145186454Y-57126604D01*
X145223000Y-57310333D01*
X145223000Y-57497667D01*
X145186454Y-57681396D01*
X145114766Y-57854466D01*
X145010688Y-58010230D01*
X144878230Y-58142688D01*
X144722466Y-58246766D01*
X144549396Y-58318454D01*
X144365667Y-58355000D01*
X144178333Y-58355000D01*
X143994604Y-58318454D01*
X143821534Y-58246766D01*
X143665770Y-58142688D01*
X143533312Y-58010230D01*
X143429234Y-57854466D01*
X143357546Y-57681396D01*
X143321000Y-57497667D01*
X143321000Y-57310333D01*
X143357546Y-57126604D01*
X143429234Y-56953534D01*
X143533312Y-56797770D01*
X143665770Y-56665312D01*
X143821534Y-56561234D01*
X143994604Y-56489546D01*
X144178333Y-56453000D01*
X144365667Y-56453000D01*
X144549396Y-56489546D01*
X144549396Y-56489546D01*
G37*
G36*
X161762000Y-58079200D02*
X160310000Y-58079200D01*
X160310000Y-56627200D01*
X161762000Y-56627200D01*
X161762000Y-58079200D01*
X161762000Y-58079200D01*
G37*
G36*
X159092991Y-56629301D02*
X159178321Y-56637705D01*
X159315172Y-56679219D01*
X159315174Y-56679220D01*
X159315177Y-56679221D01*
X159441296Y-56746632D01*
X159551843Y-56837357D01*
X159642568Y-56947904D01*
X159709979Y-57074023D01*
X159709980Y-57074026D01*
X159709981Y-57074028D01*
X159751495Y-57210879D01*
X159765512Y-57353200D01*
X159751495Y-57495521D01*
X159709981Y-57632372D01*
X159709979Y-57632377D01*
X159642568Y-57758496D01*
X159551843Y-57869043D01*
X159441296Y-57959768D01*
X159315177Y-58027179D01*
X159315174Y-58027180D01*
X159315172Y-58027181D01*
X159178321Y-58068695D01*
X159092991Y-58077099D01*
X159071660Y-58079200D01*
X159000340Y-58079200D01*
X158979009Y-58077099D01*
X158893679Y-58068695D01*
X158756828Y-58027181D01*
X158756826Y-58027180D01*
X158756823Y-58027179D01*
X158630704Y-57959768D01*
X158520157Y-57869043D01*
X158429432Y-57758496D01*
X158362021Y-57632377D01*
X158362019Y-57632372D01*
X158320505Y-57495521D01*
X158306488Y-57353200D01*
X158320505Y-57210879D01*
X158362019Y-57074028D01*
X158362020Y-57074026D01*
X158362021Y-57074023D01*
X158429432Y-56947904D01*
X158520157Y-56837357D01*
X158630704Y-56746632D01*
X158756823Y-56679221D01*
X158756826Y-56679220D01*
X158756828Y-56679219D01*
X158893679Y-56637705D01*
X158979009Y-56629301D01*
X159000340Y-56627200D01*
X159071660Y-56627200D01*
X159092991Y-56629301D01*
X159092991Y-56629301D01*
G37*
M02*
